<svg xmlns="http://www.w3.org/2000/svg" xmlns:xlink="http://www.w3.org/1999/xlink" width="568.209" height="436.308" viewBox="0 0 568.209 436.308"><defs><linearGradient id="a" x1="0.5" y1="1" x2="0.5" gradientUnits="objectBoundingBox"><stop offset="0" stop-color="gray" stop-opacity="0.251"/><stop offset="0.54" stop-color="gray" stop-opacity="0.122"/><stop offset="1" stop-color="gray" stop-opacity="0.102"/></linearGradient><linearGradient id="b" x1="0.5" x2="0.5" xlink:href="#a"/></defs><g transform="translate(0.01 0.019)"><path d="M648.7,318.475c-.509.372-.977.733-1.476,1.084a49.777,49.777,0,0,1-5.768,3.518c-10.476,5.523-23.391,8.221-35.97,10.054-28.212,4.113-57.014,4.912-85.694,5.7-77.493,2.128-155.174,4.251-232.479-.652-30.543-1.934-61.758-5.172-89.435-15.1q-5.951-2.128-11.667-4.693a95.823,95.823,0,0,1-21.278-12.726c-5.788-4.724-10.481-10.151-13.286-16.32-5.849-12.848-2.754-27.28,3.925-39.874a123.916,123.916,0,0,1,9.361-14.645c5.157-7.091,10.843-13.979,16.03-21.065,18.458-25.188,30.5-57.055,13.464-82.889-4.9-7.422-11.973-13.938-15.964-21.686-5.091-9.911-4.7-20.917-3.08-31.607q.316-2.036.667-4.032c2.764-15.852,7.967-32.931,24.007-42.827,16.661-10.283,40.322-9.764,61-6.109,32.157,5.742,61.819,17.695,91.8,28.487S414.2,73.743,447.144,74.8c29.092.937,63.026-6.073,82.334-24.292,18.753-17.695,54.005-19.044,79.412-8.354,17.44,7.335,30.451,20.55,35.939,35.415a46.226,46.226,0,0,1,2.387,9.224,42.539,42.539,0,0,1,.428,8.7c-.076,1.436-.224,2.856-.428,4.261-4.245,29.332-34.8,52.468-53.379,78.669-9.076,12.8-15.485,28.171-9.244,41.971,9.519,21.029,42.623,28.507,62.613,44.155a47.037,47.037,0,0,1,9.825,10.079C666.729,288.558,663.15,307.367,648.7,318.475Z" transform="translate(-94.269 -21.839)" fill="#6c63ff" opacity="0.1"/><g transform="translate(-0.01 -0.019)"><path d="M197.6,249.672s-23.416-41.5-58.7-53.451a72.176,72.176,0,0,1-36.57-27.356A121.155,121.155,0,0,1,91.53,149.46" transform="translate(-66.261 -84.292)" fill="none" stroke="#535461" stroke-miterlimit="10" stroke-width="2"/><path d="M44.97,117.585c4.022,3.884,22.744,7.956,22.744,7.956s-4.581-18.591-8.613-22.5a10.145,10.145,0,1,0-14.132,14.559Z" transform="translate(-41.89 -60.098)" fill="#6c63ff"/><path d="M60.866,181.079c5.493,1.089,23.416-5.7,23.416-5.7s-13.973-13.113-19.471-14.2a10.144,10.144,0,1,0-3.946,19.9Z" transform="translate(-47.193 -89.949)" fill="#6c63ff"/><path d="M131.2,253.07c5.294-1.833,17.308-16.733,17.308-16.733s-18.672-4.271-23.961-2.438a10.145,10.145,0,1,0,6.618,19.171Z" transform="translate(-78.967 -125.522)" fill="#6c63ff"/><path d="M202.62,293.806c5.528-.916,19.9-13.566,19.9-13.566s-17.679-7.366-23.208-6.455a10.146,10.146,0,0,0,3.3,20.021Z" transform="translate(-115.007 -145.29)" fill="#6c63ff"/><path d="M125.823,150.736c0,5.6-10.13,21.854-10.13,21.854s-10.151-16.244-10.156-21.843a10.145,10.145,0,1,1,20.286,0Z" transform="translate(-73.136 -79.831)" fill="#6c63ff"/><path d="M207.046,197.649c-1.675,5.345-16.208,17.817-16.208,17.817s-4.826-18.555-3.171-23.925a10.145,10.145,0,0,1,19.344,6.063Z" transform="translate(-113.289 -101.663)" fill="#6c63ff"/><path d="M278.487,257.461c-.743,5.554-12.96,20.3-12.96,20.3s-7.89-17.45-7.127-23a10.145,10.145,0,1,1,20.109,2.7Z" transform="translate(-148.159 -131.669)" fill="#6c63ff"/><path d="M44.97,117.585c4.022,3.884,22.744,7.956,22.744,7.956s-4.581-18.591-8.613-22.5a10.145,10.145,0,1,0-14.132,14.559Z" transform="translate(-41.89 -60.098)" opacity="0.25"/><path d="M60.866,181.079c5.493,1.089,23.416-5.7,23.416-5.7s-13.973-13.113-19.471-14.2a10.144,10.144,0,1,0-3.946,19.9Z" transform="translate(-47.193 -89.949)" opacity="0.25"/><path d="M131.2,253.07c5.294-1.833,17.308-16.733,17.308-16.733s-18.672-4.271-23.961-2.438a10.145,10.145,0,1,0,6.618,19.171Z" transform="translate(-78.967 -125.522)" opacity="0.25"/><path d="M202.62,293.806c5.528-.916,19.9-13.566,19.9-13.566s-17.679-7.366-23.208-6.455a10.146,10.146,0,0,0,3.3,20.021Z" transform="translate(-115.007 -145.29)" opacity="0.25"/><path d="M125.823,150.736c0,5.6-10.13,21.854-10.13,21.854s-10.151-16.244-10.156-21.843a10.145,10.145,0,1,1,20.286,0Z" transform="translate(-73.136 -79.831)" opacity="0.25"/><path d="M207.046,197.649c-1.675,5.345-16.208,17.817-16.208,17.817s-4.826-18.555-3.171-23.925a10.145,10.145,0,0,1,19.344,6.063Z" transform="translate(-113.289 -101.663)" opacity="0.25"/><path d="M278.487,257.461c-.743,5.554-12.96,20.3-12.96,20.3s-7.89-17.45-7.127-23a10.145,10.145,0,1,1,20.109,2.7Z" transform="translate(-148.159 -131.669)" opacity="0.25"/><path d="M242.892,214.879s-4.581-47.434-32.009-72.662a72.153,72.153,0,0,1-22.347-39.828,121.231,121.231,0,0,1-2-22.118" transform="translate(-112.905 -50.323)" fill="none" stroke="#535461" stroke-miterlimit="10" stroke-width="2"/><path d="M152.064,35.389c2.1,5.2,17.578,16.473,17.578,16.473S172.976,33,170.884,27.8a10.152,10.152,0,0,0-18.835,7.585Z" transform="translate(-95.61 -21.441)" fill="#6c63ff"/><path d="M140.853,99.9c4.581,3.222,23.707,4.276,23.707,4.276s-7.417-17.644-12-20.866A10.153,10.153,0,0,0,140.853,99.9Z" transform="translate(-88.365 -50.902)" fill="#6c63ff"/><path d="M176.129,194.219c5.6.473,22.622-8.277,22.622-8.277S183.414,174.473,177.829,174a10.145,10.145,0,1,0-1.7,20.214Z" transform="translate(-103.121 -96.314)" fill="#6c63ff"/><path d="M224.823,260.353c5.427,1.4,23.7-4.337,23.7-4.337s-13.179-13.9-18.6-15.3a10.145,10.145,0,1,0-5.091,19.64Z" transform="translate(-127.97 -128.932)" fill="#6c63ff"/><path d="M212.436,98.681c-2.265,5.121-18.117,15.867-18.117,15.867s-2.7-18.957-.433-24.083a10.145,10.145,0,1,1,18.551,8.217Z" transform="translate(-116.068 -52.363)" fill="#6c63ff"/><path d="M263.747,173.876c-3.7,4.21-22.037,9.723-22.037,9.723s3.1-18.9,6.8-23.106a10.141,10.141,0,0,1,15.241,13.383Z" transform="translate(-139.991 -88.014)" fill="#6c63ff"/><path d="M307.636,257.886c-2.932,4.775-20.077,13.307-20.077,13.307s-.143-19.151,2.79-23.925a10.153,10.153,0,0,1,17.308,10.619Z" transform="translate(-162.5 -129.931)" fill="#6c63ff"/></g><ellipse cx="56.775" cy="7.391" rx="56.775" ry="7.391" transform="translate(150.995 418.768)" fill="#6c63ff" opacity="0.1"/><g transform="translate(74.397 392.714)"><ellipse cx="17.247" cy="2.953" rx="17.247" ry="2.953" transform="translate(1.447 29.922)" fill="#6c63ff" opacity="0.1"/><path d="M224.71,792.94s2.795,3.66-1.293,9.163-7.458,10.181-6.109,13.627c0,0,6.165-10.257,11.2-10.4S230.239,799.11,224.71,792.94Z" transform="translate(-202.27 -792.94)" fill="#6c63ff"/><path d="M224.874,792.94a4.5,4.5,0,0,1,.57,1.15c4.9,5.752,7.509,11.123,2.8,11.255-4.383.127-9.647,7.967-10.9,9.947a4.7,4.7,0,0,0,.148.453s6.165-10.257,11.2-10.4S230.4,799.11,224.874,792.94Z" transform="translate(-202.433 -792.94)" opacity="0.1"/><path d="M241.727,801.3c0,1.288-.143,2.331-.321,2.331s-.326-1.018-.326-2.331.183-.682.361-.682S241.727,800.008,241.727,801.3Z" transform="translate(-214.088 -796.633)" fill="#ffd037"/><path d="M243.728,804.266c-1.13.616-2.118.988-2.2.83s.764-.784,1.894-1.4.682-.168.769,0S244.858,803.65,243.728,804.266Z" transform="translate(-214.303 -798.066)" fill="#ffd037"/><path d="M197.064,792.94s-2.795,3.66,1.293,9.163,7.458,10.181,6.109,13.627c0,0-6.165-10.257-11.2-10.4S191.546,799.11,197.064,792.94Z" transform="translate(-189.396 -792.94)" fill="#6c63ff"/><path d="M197.053,792.94a4.5,4.5,0,0,0-.57,1.15c-4.9,5.752-7.509,11.123-2.8,11.255,4.388.127,9.647,7.967,10.9,9.947a3.616,3.616,0,0,1-.148.453s-6.165-10.257-11.2-10.4S191.535,799.11,197.053,792.94Z" transform="translate(-189.385 -792.94)" opacity="0.1"/><path d="M192.91,801.3c0,1.288.143,2.331.321,2.331s.326-1.018.326-2.331-.183-.682-.361-.682S192.91,800.008,192.91,801.3Z" transform="translate(-190.439 -796.633)" fill="#ffd037"/><path d="M188.746,804.266c1.13.616,2.113.988,2.2.83s-.764-.784-1.894-1.4-.682-.168-.769,0S187.616,803.65,188.746,804.266Z" transform="translate(-188.057 -798.066)" fill="#ffd037"/><path d="M194.66,832.723s7.819-.244,10.181-1.919,12.024-3.686,12.609-.993,11.749,13.383,2.922,13.454-20.51-1.374-22.862-2.8S194.66,832.723,194.66,832.723Z" transform="translate(-191.299 -810.396)" fill="#a8a8a8"/><path d="M220.525,846.4c-8.827.071-20.51-1.375-22.862-2.8-1.792-1.094-2.5-5.009-2.744-6.811h-.26s.509,6.3,2.846,7.738,14.035,2.876,22.862,2.8c2.545,0,3.431-.926,3.38-2.27C223.4,845.877,222.424,846.381,220.525,846.4Z" transform="translate(-191.299 -814.463)" opacity="0.2"/><path d="M689.092,836.183s-21.523-1.3-18.983,13.785a3.669,3.669,0,0,0,1.909,3.874s.041-1.115,2.209-.738a9.854,9.854,0,0,0,2.337.112,4.836,4.836,0,0,0,2.861-1.181h0s6.048-2.494,8.4-12.385c0,0,1.741-2.158,1.675-2.713l-3.635,1.527s1.242,2.622.265,4.8c0,0-.117-4.7-.814-4.581-.143,0-1.889.906-1.889.906s2.138,4.581.509,7.88c0,0,.611-5.6-1.191-7.549l-2.545,1.492s2.494,4.714.8,8.562c0,0,.433-5.9-1.339-8.2l-2.316,1.807s2.342,4.648.911,7.839c0,0-.183-6.867-1.415-7.386a13.328,13.328,0,0,0-2.337,2.545s1.6,3.37.611,5.152c0,0-.611-4.582-1.115-4.582,0,0-2.036,3.054-2.23,5.091a11.084,11.084,0,0,1,1.741-5.4,6.077,6.077,0,0,0-3.09,1.6s.316-2.143,3.563-2.331a13.945,13.945,0,0,1,2.118-2.438,13.254,13.254,0,0,0-5.233.6s1.736-2.036,5.829-1.1l2.286-1.863s-4.286-.59-6.109.061c0,0,2.1-1.792,6.725-.509l2.494-1.486a22.716,22.716,0,0,0-5.839-.509s2.3-1.242,6.567.1l1.782-.8s-2.683-.509-3.467-.606-.825-.3-.825-.3a9.3,9.3,0,0,1,5.035.56S689.158,836.422,689.092,836.183Z" transform="translate(-424.617 -814.156)" fill="#6c63ff"/><ellipse cx="15.231" cy="2.576" rx="15.231" ry="2.576" transform="translate(234.42 38.423)" fill="#6c63ff" opacity="0.1"/><path d="M623.1,837.775s-12.136-.733-10.69,7.773a2.077,2.077,0,0,0,1.079,2.184s0-.631,1.247-.417a5.943,5.943,0,0,0,1.313.066,2.785,2.785,0,0,0,1.614-.667h0s3.411-1.41,4.739-6.984c0,0,.977-1.217.942-1.527l-2.036.87a3.69,3.69,0,0,1,.148,2.708s-.066-2.652-.458-2.591c-.081,0-1.064.509-1.064.509s1.2,2.545.3,4.444c0,0,.341-3.171-.672-4.261l-1.441.845s1.405,2.657.453,4.826c0,0,.244-3.329-.759-4.622l-1.3,1.018s1.318,2.622.509,4.419c0,0-.107-3.874-.8-4.164a7.966,7.966,0,0,0-1.318,1.42s.906,1.9.346,2.907c0,0-.346-2.581-.626-2.591a8.551,8.551,0,0,0-1.257,2.881,6.184,6.184,0,0,1,.977-3.054,3.42,3.42,0,0,0-1.741.9s.178-1.212,2.036-1.313a7.708,7.708,0,0,1,1.191-1.375,7.46,7.46,0,0,0-2.953.336s.982-1.14,3.288-.621l1.288-1.054a10.609,10.609,0,0,0-3.441.036s1.181-1.018,3.792-.275l1.4-.835a12.577,12.577,0,0,0-3.288-.285,5.062,5.062,0,0,1,3.7.056l1.018-.448s-1.527-.3-1.95-.346-.468-.168-.468-.168a5.253,5.253,0,0,1,2.841.316A12,12,0,0,0,623.1,837.775Z" transform="translate(-396.336 -814.944)" fill="#6c63ff"/><ellipse cx="8.588" cy="1.451" rx="8.588" ry="1.451" transform="translate(209.823 32.08)" fill="#6c63ff" opacity="0.1"/><path d="M666.3,802.362s-14.645-.886-12.92,9.382a2.5,2.5,0,0,0,1.3,2.637s0-.758,1.5-.509a7.228,7.228,0,0,0,1.588.076,3.355,3.355,0,0,0,1.95-.8h0s4.118-1.7,5.717-8.435c0,0,1.186-1.466,1.14-1.843l-2.474,1.054a4.451,4.451,0,0,1,.183,3.268s-.081-3.2-.56-3.126c-.092,0-1.283.616-1.283.616s1.456,3.11.356,5.365c0,0,.417-3.828-.809-5.141l-1.741,1.018s1.7,3.207.55,5.829c0,0,.3-4.016-.916-5.6l-1.578,1.227s1.6,3.161.626,5.335c0,0-.127-4.673-.967-5.029a9.581,9.581,0,0,0-1.588,1.716s1.094,2.3.412,3.507c0,0-.412-3.11-.753-3.126a10.218,10.218,0,0,0-1.527,3.477,7.489,7.489,0,0,1,1.181-3.675,4.138,4.138,0,0,0-2.1,1.089s.214-1.461,2.443-1.588a9.572,9.572,0,0,1,1.441-1.66,9.064,9.064,0,0,0-3.563.412s1.181-1.38,3.971-.753l1.558-1.268a12.805,12.805,0,0,0-4.159.041s1.425-1.217,4.581-.331l1.7-1.018a16.7,16.7,0,0,0-3.971-.341s1.563-.845,4.469.066l1.212-.54s-1.828-.361-2.362-.417-.56-.2-.56-.2a6.328,6.328,0,0,1,3.426.382A14.935,14.935,0,0,0,666.3,802.362Z" transform="translate(-416.438 -797.556)" fill="#6c63ff"/><ellipse cx="10.369" cy="1.751" rx="10.369" ry="1.751" transform="translate(229.411 15.969)" fill="#6c63ff" opacity="0.1"/></g><g transform="translate(69.608 48.626)"><path d="M662.937,365.993V117H178.65V351.709a96.416,96.416,0,0,0,21.38,13.072q5.732,2.642,11.708,4.831H657.159Z" transform="translate(-178.65 -117)" fill="url(#a)"/><path d="M663.022,372.968V131H180.73V359.106a97.392,97.392,0,0,0,21.278,12.726q5.712,2.545,11.667,4.693H657.254Z" transform="translate(-179.671 -123.873)" fill="#fff"/><rect width="482.286" height="12.798" transform="translate(1.064 0.708)" fill="#5a5773"/></g><g transform="translate(76.994 52.423)"><circle cx="3.309" cy="3.309" r="3.309" fill="#fff"/><circle cx="3.309" cy="3.309" r="3.309" transform="translate(8.908)" fill="#fff"/><circle cx="3.309" cy="3.309" r="3.309" transform="translate(17.817)" fill="#fff"/></g><g transform="translate(83.612 90.256)"><rect width="79.667" height="50.06" transform="translate(110.307)" fill="#6c63ff"/><rect width="79.667" height="50.06" fill="#5a5773" opacity="0.2"/><rect width="79.667" height="50.06" transform="translate(220.613)" fill="#5a5773" opacity="0.2"/><rect width="79.667" height="50.06" transform="translate(0 71.568)" fill="#5a5773" opacity="0.2"/><rect width="79.667" height="50.06" transform="translate(110.307 71.568)" fill="#5a5773" opacity="0.2"/><rect width="79.667" height="50.06" transform="translate(220.613 71.568)" fill="#5a5773" opacity="0.2"/><rect width="79.667" height="50.06" transform="translate(0 143.13)" fill="#5a5773" opacity="0.2"/><rect width="79.667" height="50.06" transform="translate(110.307 143.13)" fill="#5a5773" opacity="0.2"/><rect width="79.667" height="50.06" transform="translate(220.613 143.13)" fill="#5a5773" opacity="0.2"/></g><g transform="translate(175.415 102.757)"><path d="M470.428,336.277s-14.309-26.155-11.9-30.411a57.961,57.961,0,0,0,4.189-10.415S468,291.837,468,290.361s4.184-4.892,6.389-6.378,1.1-8.506,0-9.356a19.391,19.391,0,0,1-2.846-3.828s1.527-4.251,0-5.528.224-2.545,0-3.828a51.364,51.364,0,0,1,0-5.951,9.593,9.593,0,0,0-5.63-4.072l-.163-.672-.942-3.966s4.581-8.781-2.851-13.378a12.422,12.422,0,0,0-1.644-.865,5.708,5.708,0,0,0-.041-.575,35.98,35.98,0,0,0-1.079-6.725c-.387-1.232-.891-2.062-1.527-1.873a1.018,1.018,0,0,0-.417.239,4.643,4.643,0,0,0-.789.932h0a.207.207,0,0,1-.036.056,15.965,15.965,0,0,0-1.751,4.861,28.062,28.062,0,0,0-.509,3.054h0a16.8,16.8,0,0,0-.85,1.889c-.9,2.337-1.955,6.384-.036,9.377,1.629,2.545,3.823,6.042,5.416,8.588l.051.081.1.158-.168.107v.392l.148,2.143,1.232,18.519a7.863,7.863,0,0,0-1.13-.239,10.262,10.262,0,0,0-1.644-.107c-1.074-4.22-4.022-8.145-4.581-12.553a11.635,11.635,0,0,1-.087-1.329c.046-2.774.738-5.559.682-8.328,0-.509,0-1.018-.051-1.527h0a4.088,4.088,0,0,0-.041-.423,12.517,12.517,0,0,0-6.806-9.484c-1.278-.636-2.662-1.059-3.9-1.756-2.871-1.609-4.709-4.51-7.315-6.5-1.939-1.481-4.836-2.275-7-1.527a32.32,32.32,0,0,0-3.406.7h0a30.722,30.722,0,0,0-7.794,3.238c-.331.2-.662.4-.977.636a4.307,4.307,0,0,0-1.573,1.838,4.816,4.816,0,0,0-.244,1.98c0,.484,0,.977.031,1.461-.143,8.145-8.919,14.447-9.641,22.4,0,.188-.031.377-.041.565v.87h0v.636c.127,3.487,1.94,6.735,2.27,10.206.031.311.046.616.051.926a15.394,15.394,0,0,1-.9,4.673,13.678,13.678,0,0,0-3.161,1.283c-2.667,1.716-7.483,4.678-9.239,10.344a15.15,15.15,0,0,0-.667,4.541A94.812,94.812,0,0,1,391.4,312.5a30.3,30.3,0,0,1-.937,3.986.936.936,0,0,0-.031.392l-1.059,13.744-.188,2.418-.265,3.441s.076.209.188.56a16.179,16.179,0,0,1,.417,1.588,8.542,8.542,0,0,1,.137,3.563,2.454,2.454,0,0,1-.743,1.308.55.55,0,0,0-.087.1,10.572,10.572,0,0,0-.8,3.5c-.092.713-.178,1.527-.265,2.372-.509,5.421-.825,13.536-1.018,20.245-.183,6.618-.249,11.846-.249,11.846a13.511,13.511,0,0,0,2.734,1.354c-.071.178-.148.361-.219.555a26.741,26.741,0,0,0-1.66,6.994c-.428,5,.972,10.563,7.951,13.424a11.227,11.227,0,0,0,1.369.468,4.343,4.343,0,0,0,3.482-.214c0,.3.036.59.051.881.071,1.242.132,2.377.163,3.329.219,5.956,1.7,16.371,1.7,16.371s.509,4.256.066,5.528,0,6.378,0,6.378,1.527,2.545,0,3.828-1.98,7.636-1.527,8.506a.287.287,0,0,1,.025.1c.336,2.113-1.563,33.5-1.563,33.5s-1.8,4.805-3.227,9.794c-1.395,4.856-2.443,9.886-1.15,10.828a10.8,10.8,0,0,0,4.027,1.089c0,.209-.031.417-.051.631-.183,2.245-.473,4.663-.891,5.274-.606.865-1.242,7.575-1.553,11.2l-.031.4a37.512,37.512,0,0,0-1.639,4.755s-4.872,12.217-3.222,15.389a2.6,2.6,0,0,0,.606.748h0a1.37,1.37,0,0,0,.158.143c2.347,1.878,8.226,2.27,10.359,2.357l-.081,3.024v.112h2.774v-.076c0-.382.061-2.133.153-4.475,0-.417.031-.855.051-1.3,0-.351.036-.708.051-1.074a18.834,18.834,0,0,0,1.206-6.8,29.819,29.819,0,0,1,1.069-7.88,21.89,21.89,0,0,1,1.41-3.843s.865-4.581-.341-7.824a5.651,5.651,0,0,0-1.018-1.761c0-.107,0-.214,0-.326v-.692a29.369,29.369,0,0,1,.652-6.526.727.727,0,0,1,0-.1c.041-.178.087-.346.132-.509l.031-.112.9.031c2.764.076,4.8.076,4.8.076s2.2-11.27,1.985-16.157V488.3a62.931,62.931,0,0,1,1.334-11.459l1.777-17.231s-.881-2.983,0-5.091c.545-1.313,1.67-3.752,2.454-5.432.367-.779.657-1.39.779-1.654l.071-.143a3.3,3.3,0,0,1-.784-.392h0c-.718-.479-1.359-1.415.789-2.795,3.3-2.128,2.2-7.442,2.2-7.442a3.821,3.821,0,0,1,.173-3.614c1.145-1.7,0-8.079,0-8.079a26.714,26.714,0,0,0,2.26-5.32c.82-2.545,2.891-14.992,3.869-20.993.321-1.97.509-3.243.509-3.243l.031.311.031.336h0l.275,2.835.036.377.509,5.36s1.018,14.091.382,19.614v.1a6.527,6.527,0,0,1-.372,1.675c-1.171,2.647-.957,13.164-.9,15.49v.468a9.367,9.367,0,0,0-.621,3.594h0a2.306,2.306,0,0,0,.4,1.069,2.708,2.708,0,0,1,.392,1.654v.051a6.021,6.021,0,0,1-.061.733,13.979,13.979,0,0,1-.774,2.881s-1.181,3.105-.733,4.729h0a1.5,1.5,0,0,0,.29.575,1.359,1.359,0,0,1,.168.611.22.22,0,0,0,0,.056c.412,3.426-.652,18.55-1.283,26.827-.255,3.268-.438,5.467-.438,5.467L427.25,508.3l.173.122c.2.143.57.387,1.069.682v.041l-.076.545c-.249,1.741-.585,3.767-.952,5.315-.031.117-.056.229-.087.336a4.871,4.871,0,0,0-1.868.748c-3.706,6.582-2.067,11.8,0,13.317.585.428.982,1.624,1.247,3.11l.509,6.562v.753a1.954,1.954,0,0,0,.1.6l.158,1.99.214,2.769h1.69v-3.354h.092c2.667.092,6.969.2,8.842.056h.051a3.306,3.306,0,0,0,.509-.056,1.277,1.277,0,0,0,.3-.081c.993-.479,3.467-7.493,1.237-9.087s-2.723-6.109-2.723-6.109c-.193-.59-.387-1.15-.585-1.685v-.346a28,28,0,0,1,.265-5.834,44.383,44.383,0,0,0,.58-6.969v-.647a8.688,8.688,0,0,0,1.135-.372l.081-.036a8,8,0,0,0,1.9-1.125l6.231-27.611.657-3.212,3.742-18.27s-1.318-6.378,0-7.437c.484-.387.616-2.036.585-3.945-.051-3.339-.585-7.539-.585-7.539s1.761-2.764,2.647-4.464,0-6.165,0-6.165l1.736-10.222s1.985-12.121,6.826-22.327c3.563-7.509,1.293-27.784-1.018-38.576-.061-.28-.122-.555-.183-.82v-.041c1.089-.54,2.423-1.191,3.848-1.873l.54-.255c1.807-.85,3.721-1.726,5.437-2.454l.112-.046a37.981,37.981,0,0,1,3.782-1.415,6.348,6.348,0,0,1,1.161-.239C479.677,352.435,470.428,336.277,470.428,336.277Zm-68.88,34.59h.916c-.107.2-.209.4-.31.606-.061.122-.122.239-.178.361-.336.7-.647,1.41-.9,2.107.1-.753.229-1.573.372-2.449C401.481,371.3,401.517,371.071,401.548,370.867Zm-2.474,13.271a.376.376,0,0,0,0-.071l-.076-.239c-.056-.163-.107-.326-.158-.509q.473-.143.962-.321h.066v.168c-.025.239-.056.479-.087.713h0a.51.51,0,0,1,0,.092,4.953,4.953,0,0,1-.066.56c-.046.366-.092.723-.132,1.064-.1-.321-.193-.636-.3-.947a2.412,2.412,0,0,1-.214-.509Z" transform="translate(-386.5 -223.338)" fill="url(#b)"/><path d="M527.749,255.678l-5.5,1.945-2-3.309c-1.527-2.545-3.645-6.027-5.208-8.557-2.759-4.449.85-11.23.85-11.23s.651-6.806,2.973-8.9,2.968,8.9,2.968,8.9c9.321,4.235,4.327,14.2,4.327,14.2l.906,3.95Z" transform="translate(-449.1 -224.329)" fill="#efb7b9"/><path d="M533.773,281.847l-5.5,1.945-2-3.309v-.29a9.574,9.574,0,0,1,6.826-1.349Z" transform="translate(-455.125 -250.498)" opacity="0.1"/><path d="M523.56,304.754l2.754-2.331-1.38-20.983s7.127-4.877,12.4,2.754a53.533,53.533,0,0,0,0,5.936c.214,1.273-1.481,2.545,0,3.813s0,5.513,0,5.513a19.138,19.138,0,0,0,2.734,3.813c1.059.845,2.123,7.844,0,9.326s-6.1,4.877-6.1,6.358-5.091,5.091-5.091,5.091l-4.469-5.91Z" transform="translate(-453.789 -251.109)" fill="#ff6484"/><path d="M399.112,552.866c-10.273-4.357-7.992-15-6.058-20.362a27.724,27.724,0,0,1,1.359-3.176l5.762-3.5s1.176,3,2.433,7.02C405.526,542.206,408.88,557.015,399.112,552.866Z" transform="translate(-388.9 -371.846)" fill="#efb7b9"/><path d="M421.329,767.075a17.308,17.308,0,0,0-1.527,4.286,30.954,30.954,0,0,0-.662,7.295c.041,1.7.183,2.8.183,2.8l-11.443,7.87s.066-.921.178-2.276c.3-3.6.911-10.293,1.492-11.158.4-.6.682-3.014.86-5.253s.249-4.2.249-4.2S424.429,761.277,421.329,767.075Z" transform="translate(-396.997 -488.933)" fill="#efb7b9"/><path d="M476.576,779.823s0,2.189-.081,4.734a48.468,48.468,0,0,1-.555,6.949,28.6,28.6,0,0,0-.26,5.813c.076,2.545.26,4.836.26,4.836s-11.683-11.046-10.492-11.922a5.413,5.413,0,0,0,.926-2.428c.356-1.527.677-3.563.916-5.294.285-2.062.463-3.721.463-3.721Z" transform="translate(-425.217 -496.036)" fill="#efb7b9"/><path d="M423.794,767.075a17.305,17.305,0,0,0-1.527,4.286,93.531,93.531,0,0,1-9.367-.718c.173-2.189.249-4.2.249-4.2S426.894,761.277,423.794,767.075Z" transform="translate(-399.461 -488.933)" opacity="0.1"/><path d="M478.435,779.833s0,2.189-.081,4.734c-3.645.932-7.391-.932-9.2-2.036.285-2.062.463-3.721.463-3.721Z" transform="translate(-427.077 -496.045)" opacity="0.1"/><path d="M470.509,524.267a98.868,98.868,0,0,0-6.572,22.256l-1.7,10.181s.85,4.449,0,6.144S459.7,567.3,459.7,567.3s1.273,10.385,0,11.443,0,7.417,0,7.417l-4.24,21.38-5.936,27.55c-5.722,4.668-13.337-1.268-13.337-1.268l1.68-18.015s2.545-31.561,1.486-32.854.423-5.3.423-5.3,1.486-3.818.428-5.3.209-4.663.209-4.663-.422-12.93.85-15.9,0-21.324,0-21.324l-.509-5.717-.3-3.166-.025-.31s-.193,1.268-.509,3.232c-.937,5.981-2.932,18.377-3.721,20.927a27.248,27.248,0,0,1-2.174,5.3s1.1,6.358,0,8.053a3.943,3.943,0,0,0-.168,3.6s1.059,5.3-2.123,7.417,0,3.182,0,3.182-2.331,5.091-3.176,7.2,0,5.091,0,5.091l-1.7,17.165s-1.486,7.2-1.273,12.08-1.909,16.106-1.909,16.106-16.32,0-18.835-1.909,4.2-20.53,4.2-20.53,1.909-32.64,1.481-33.485,0-7.208,1.486-8.476,0-3.818,0-3.818-.423-5.091,0-6.358-.066-5.513-.066-5.513-1.42-10.385-1.629-16.32-1.273-19.283-1.273-19.283,1.11-8.257,1.278-12.187a13.841,13.841,0,0,1,1.527-4.953,44.181,44.181,0,0,1,3.156-5.538s50.218-14.844,52.326-13.368c.56.392,1.374,3.054,2.179,6.908C471.751,496.575,473.94,516.784,470.509,524.267Z" transform="translate(-395.23 -348.755)" fill="#444053"/><circle cx="14.625" cy="14.625" r="14.625" transform="translate(29.713 16.724)" fill="#a1616a"/><path d="M476.805,485.818c-1.685.865-2.815,1.461-2.815,1.461s-23.737,11.235-30.487,10.6c-5.223-.509-18.555-.219-24.363-.076a44.2,44.2,0,0,1,3.156-5.539s50.223-14.839,52.331-13.363C475.187,479.3,476,481.955,476.805,485.818Z" transform="translate(-402.525 -348.755)" opacity="0.1"/><path d="M425.988,327.2s-13.546,2.138-16.743,4.235-9.529,6.149-9.529,14.839-1.481,17.593-2.331,20.133,13.352,23.1,13.352,23.1l-5.091,31.159s20.362-.636,27.143,0,30.508-10.6,30.508-10.6,13.989-7.417,16.957-7.636-5.936-16.32-5.936-16.32-13.78-26.063-11.449-30.3a58.569,58.569,0,0,0,4.042-10.385l-2.545-21.614a8.315,8.315,0,0,0-6.994,1.059c-3.182,2.331-13.989,1.059-13.989,1.059Z" transform="translate(-391.826 -272.492)" fill="#ff6484"/><path d="M399.647,394.791l-5.315,1.481-1.471,19.945s1.909,5.3,0,6.994-2.331,37.94-2.331,37.94a13.86,13.86,0,0,0,13.352,1.059s-1.059-4.027,2.123-18.652,3.176-22.042,3.176-22.042,0-18.229,1.486-21.2,0-10.385,0-10.385-2.968-4.027-2.759-5.508S399.647,394.791,399.647,394.791Z" transform="translate(-388.479 -302.361)" opacity="0.1"/><path d="M404.215,532.88a13.535,13.535,0,0,1-9.555-.346,27.714,27.714,0,0,1,1.359-3.177l5.762-3.5S402.978,528.858,404.215,532.88Z" transform="translate(-390.506 -371.86)" opacity="0.1"/><path d="M399.022,394.771l-5.3,1.481L392.241,416.2s1.909,5.3,0,6.994-2.331,37.94-2.331,37.94a13.843,13.843,0,0,0,13.352,1.038s-1.059-4.027,2.118-18.652,3.182-22.042,3.182-22.042,0-18.229,1.481-21.2,0-10.385,0-10.385-2.968-4.027-2.754-5.508S399.022,394.771,399.022,394.771Z" transform="translate(-388.174 -302.341)" fill="#ff6484"/><path d="M503.972,411.15s-2.754,23.737-10.812,28.191C493.16,439.341,511.175,434.256,503.972,411.15Z" transform="translate(-438.865 -315.544)" opacity="0.1"/><path d="M434.88,415.32s9.957,4.872,7.636,8.262S434.88,415.32,434.88,415.32Z" transform="translate(-410.252 -317.591)" opacity="0.1"/><path d="M434.88,434.47s6.358,6.572,5.091,8.9S434.88,434.47,434.88,434.47Z" transform="translate(-410.252 -326.993)" opacity="0.1"/><path d="M535.63,327.47s2.494,4.235,2.734,6.994S535.63,327.47,535.63,327.47Z" transform="translate(-459.715 -274.461)" opacity="0.1"/><path d="M535.63,315.774s1.252-1.064,4.449,0S535.63,315.774,535.63,315.774Z" transform="translate(-459.715 -268.487)" opacity="0.1"/><path d="M493.778,555.211a29.474,29.474,0,0,1-15.5-1.985l-2.673,6.842-.3-3.166c.438-2.657,1.288-5.5,2.968-6.221A25.724,25.724,0,0,0,493.778,555.211Z" transform="translate(-430.101 -384.046)" opacity="0.1"/><path d="M426.18,577.07s13.037,2.7,16.692,2.225Z" transform="translate(-405.981 -397.002)" opacity="0.1"/><path d="M428.84,583.759s5.564-.239,8.343.875Z" transform="translate(-407.287 -400.275)" opacity="0.1"/><path d="M430.09,588.31a49.881,49.881,0,0,0,7.707,1.018Z" transform="translate(-407.9 -402.52)" opacity="0.1"/><path d="M429.46,644.131c.239-.158,11.128-2.7,12.482-.876Z" transform="translate(-407.591 -429.173)" opacity="0.1"/><path d="M429.46,651.692s9.458-1.115,9.7,0S429.46,651.692,429.46,651.692Z" transform="translate(-407.591 -433.394)" opacity="0.1"/><path d="M429.46,656.5s10.095-2.087,11.286-1.578S429.46,656.5,429.46,656.5Z" transform="translate(-407.591 -435.184)" opacity="0.1"/><path d="M419.363,793.9l-11.444,7.87s.066-.921.178-2.276a30.851,30.851,0,0,1,5.859-9.565c2.581-.672,4.21-.051,5.223,1.166C419.221,792.79,419.363,793.9,419.363,793.9Z" transform="translate(-397.016 -501.372)" opacity="0.1"/><path d="M415.781,801.277a28.4,28.4,0,0,0-2.387,11.708,18.158,18.158,0,0,1-2.423,9.423,9.286,9.286,0,0,1-.8,1.15s-7.951-.066-10.736-2.372a2.753,2.753,0,0,1-.748-.916c-1.593-3.177,3.1-15.338,3.1-15.338,2.464-9.377,7.468-14.386,7.468-14.386C418.163,788.24,415.781,801.277,415.781,801.277Z" transform="translate(-392.319 -501.673)" fill="#444053"/><path d="M412.01,836.574a9.28,9.28,0,0,1-.8,1.151s-7.951-.066-10.736-2.372c1.369-4.531,5.737-18.239,7.783-15.908C410.178,821.634,411.516,832.166,412.01,836.574Z" transform="translate(-393.359 -515.865)" opacity="0.1"/><path d="M420.465,820.29l-.555,20.535h2.667s.433-18.015,1.624-20.535S420.465,820.29,420.465,820.29Z" transform="translate(-402.903 -515.86)" fill="#444053"/><path d="M475.939,810.78s-11.683-11.046-10.492-11.922a5.412,5.412,0,0,0,.926-2.428c2.245-.392,6.109.545,9.305,9.514C475.756,808.49,475.939,810.78,475.939,810.78Z" transform="translate(-425.217 -504.661)" opacity="0.1"/><path d="M474.8,823.412a1.19,1.19,0,0,1-.28.081,82.952,82.952,0,0,1-9.275,0,2.006,2.006,0,0,1-1.94-2c0-.764,0-1.7-.061-2.688-.132-3.136-.509-6.867-1.634-7.707-1.99-1.527-3.563-6.709,0-13.271,0,0,6.831-5.218,11.759,10.466,0,0,.479,4.475,2.622,6.063S475.759,822.959,474.8,823.412Z" transform="translate(-422.334 -504.973)" fill="#444053"/><path d="M478.126,836.232a82.967,82.967,0,0,1-9.275,0,2.006,2.006,0,0,1-1.94-2c0-.764,0-1.7-.061-2.688.86-3.8,2.1-7.707,3.691-8.6C470.551,822.941,475.372,822.4,478.126,836.232Z" transform="translate(-425.948 -517.712)" opacity="0.1"/><path d="M423.46,799.176l1.283,17.089h1.629V797.72Z" transform="translate(-383.316 -494.405)" fill="#444053"/><path d="M445.206,239.1a29.23,29.23,0,0,0-13.042,4.189,5.42,5.42,0,0,0-2.459,2.469,8.184,8.184,0,0,0-.2,3.054c.137,8.766-9.636,15.4-9.331,24.16.122,3.477,1.868,6.714,2.189,10.181.535,5.783-2.886,11.1-6.165,15.893a13.164,13.164,0,0,0,9.29-3.08,70.447,70.447,0,0,1,1.3,35.506h4.688a3.563,3.563,0,0,1,1.369.168,3.441,3.441,0,0,1,1.084.809c4.383,4.363,7.32,10.812,5.645,16.768l9.977-3.742a29.639,29.639,0,0,0,6.887-3.283,9.947,9.947,0,0,0,4.256-6.134c.27-1.527.183-3.35,1.441-4.235a7.839,7.839,0,0,1,1.965-.728c2.739-.967,3.95-4.133,4.51-6.984a40.215,40.215,0,0,0,.636-10.624c-.443-5.956-2.2-12-.753-17.817.82-3.263,2.642-6.3,2.79-9.672.239-5.554-4.1-10.339-4.749-15.862-.453-3.848.937-7.743.484-11.591a12.451,12.451,0,0,0-6.552-9.453c-1.227-.631-2.545-1.054-3.757-1.751-2.764-1.6-4.531-4.49-7.04-6.475s-6.689-2.734-8.578-.153Z" transform="translate(-401.081 -231.058)" opacity="0.1"/><path d="M445.206,237.843a29.23,29.23,0,0,0-13.042,4.189,5.42,5.42,0,0,0-2.459,2.469,8.184,8.184,0,0,0-.2,3.054c.137,8.766-9.636,15.4-9.331,24.165.122,3.472,1.868,6.709,2.189,10.181.535,5.783-2.886,11.1-6.165,15.9a13.235,13.235,0,0,0,9.29-3.08,70.422,70.422,0,0,1,1.3,35.5h4.688a3.564,3.564,0,0,1,1.369.173,3.349,3.349,0,0,1,1.084.8c4.383,4.368,7.32,10.812,5.645,16.768l9.977-3.742a29.639,29.639,0,0,0,6.887-3.283A9.946,9.946,0,0,0,460.7,334.8c.27-1.527.183-3.35,1.441-4.235a7.84,7.84,0,0,1,1.965-.728c2.739-.967,3.95-4.133,4.51-6.984a40.215,40.215,0,0,0,.652-10.634c-.443-5.956-2.2-12-.753-17.817.82-3.263,2.642-6.3,2.79-9.672.239-5.554-4.1-10.339-4.749-15.862-.453-3.848.937-7.738.484-11.591a12.461,12.461,0,0,0-6.552-9.453c-1.227-.631-2.545-1.054-3.757-1.746-2.764-1.609-4.531-4.495-7.04-6.48s-6.689-2.734-8.578-.153Z" transform="translate(-401.081 -230.435)" fill="#925978"/><g transform="translate(15.119 15.003)" opacity="0.1"><path d="M442.291,252.81a5.654,5.654,0,0,0-.031.591C442.275,253.207,442.285,253.009,442.291,252.81Z" transform="translate(-428.994 -252.81)"/><path d="M514.958,285.034c.183-2.7.784-5.406.56-8.094C515.35,279.638,514.749,282.346,514.958,285.034Z" transform="translate(-464.664 -264.657)"/><path d="M426.193,310.26c-.3-3.156-1.766-6.109-2.113-9.26a11.6,11.6,0,0,0-.076,1.741c.122,3.436,1.828,6.648,2.174,10.069A13.742,13.742,0,0,0,426.193,310.26Z" transform="translate(-420.029 -276.469)"/><path d="M518.464,335.322a21.83,21.83,0,0,0-.509,6.322,19.172,19.172,0,0,1,.509-3.67c.82-3.263,2.642-6.3,2.79-9.672a10.492,10.492,0,0,0-.081-1.792C520.775,329.539,519.192,332.359,518.464,335.322Z" transform="translate(-466.133 -288.993)"/><path d="M425.49,344.36a13.235,13.235,0,0,1-7.514,3.054c-.58.906-1.181,1.792-1.777,2.667a13.235,13.235,0,0,0,9.29-3.08,70.248,70.248,0,0,1,2.963,19.064A70.408,70.408,0,0,0,425.49,344.36Z" transform="translate(-416.2 -297.756)"/><path d="M491.186,393.494c-.56,2.851-1.771,6.017-4.51,6.979a7.634,7.634,0,0,0-1.965.733c-1.257.886-1.171,2.718-1.441,4.235a9.819,9.819,0,0,1-4.256,6.109,30.606,30.606,0,0,1-6.887,3.288l-9.519,3.563a13.139,13.139,0,0,1-.458,2.825l9.977-3.742a29.639,29.639,0,0,0,6.887-3.283,9.946,9.946,0,0,0,4.256-6.134c.27-1.527.183-3.35,1.441-4.235a7.839,7.839,0,0,1,1.965-.728c2.739-.967,3.95-4.134,4.51-6.984a39.919,39.919,0,0,0,.718-9.01A39.861,39.861,0,0,1,491.186,393.494Z" transform="translate(-438.759 -318.744)"/><path d="M444.192,415.045a3.366,3.366,0,0,0-1.084-.809,3.64,3.64,0,0,0-1.369-.173h-4.159c-.163.886-.336,1.772-.509,2.652h4.688a3.563,3.563,0,0,1,1.369.173,3.349,3.349,0,0,1,1.084.8,20.167,20.167,0,0,1,6.053,11.922C450.779,424.33,448.04,418.893,444.192,415.045Z" transform="translate(-426.446 -331.973)"/></g><path d="M405.37,449.4s3.787-1.588,4.632,0S405.37,449.4,405.37,449.4Z" transform="translate(-395.764 -333.975)" opacity="0.1"/><path d="M408,454.749s3.787-1.588,4.637,0S408,454.749,408,454.749Z" transform="translate(-397.055 -336.602)" opacity="0.1"/></g><g transform="translate(365.221 4.369)"><path d="M852.453,51.656s-19.369-1.166-17.084,12.406a3.311,3.311,0,0,0,1.721,3.487s.036-1.018,1.985-.667a8.914,8.914,0,0,0,2.1.1,4.362,4.362,0,0,0,2.566-1.064h0s5.442-2.245,7.559-11.143c0,0,1.568-1.945,1.527-2.443l-3.268,1.4a5.857,5.857,0,0,1,.234,4.317s-.1-4.235-.733-4.134c-.127,0-1.7.814-1.7.814s1.919,4.108.468,7.1c0,0,.55-5.06-1.069-6.8L844.456,56.4s2.245,4.24.723,7.7c0,0,.392-5.309-1.206-7.376l-2.087,1.624s2.113,4.159.84,7.03c0,0-.168-6.185-1.278-6.648a12.592,12.592,0,0,0-2.1,2.27s1.441,3.054.545,4.632c0,0-.55-4.113-1.018-4.134,0,0-1.817,2.729-2.006,4.581a9.931,9.931,0,0,1,1.563-4.861,5.431,5.431,0,0,0-2.779,1.446s.28-1.929,3.227-2.1a12.7,12.7,0,0,1,1.9-2.194,11.936,11.936,0,0,0-4.709.545s1.563-1.822,5.248-1.018l2.036-1.68s-3.859-.509-5.5.056c0,0,1.884-1.609,6.053-.438l2.24-1.339a20.11,20.11,0,0,0-5.248-.453s2.067-1.115,5.905.092l1.6-.718s-2.413-.473-3.115-.55-.743-.27-.743-.27a8.328,8.328,0,0,1,4.526.509S852.509,51.87,852.453,51.656Z" transform="translate(-796.586 -40.65)" fill="#6c63ff" opacity="0.1"/><path d="M805.631,30.06s-16.29,10.542-6.409,20.118a3.313,3.313,0,0,0,3.451,1.792s-.57-.835,1.206-1.716a8.835,8.835,0,0,0,1.756-1.166,4.383,4.383,0,0,0,1.441-2.377h0s3.054-5.04-.509-13.459c0,0,.112-2.494-.234-2.861l-1.8,3.054a5.858,5.858,0,0,1,2.749,3.334s-2.591-3.344-3.054-2.891c-.092.092-.886,1.665-.886,1.665s3.986,2.169,4.581,5.432c0,0-2.545-4.4-4.892-4.836l-1.059,2.443s4.327,2.087,5.152,5.778c0,0-2.835-4.51-5.345-5.228l-.713,2.545s4.174,2.118,4.841,5.192c0,0-3.8-4.877-4.968-4.581a12.9,12.9,0,0,0-.346,3.054s2.963,1.588,3.187,3.411c0,0-2.881-2.988-3.253-2.739,0,0,.153,3.273,1.1,4.892a9.942,9.942,0,0,1-1.619-4.841,5.447,5.447,0,0,0-1.385,2.81s-.916-1.721,1.359-3.6a13.939,13.939,0,0,1,.229-2.9,11.783,11.783,0,0,0-3.472,3.227s.183-2.393,3.64-3.91l.662-2.571s-3.421,1.863-4.393,3.3c0,0,.565-2.413,4.612-3.94l1.018-2.408a20.714,20.714,0,0,0-4.5,2.749s1.018-2.128,4.816-3.426l.865-1.527s-2.225,1.049-2.835,1.4-.758.224-.758.224a8.343,8.343,0,0,1,3.945-2.275S805.8,30.2,805.631,30.06Z" transform="translate(-777.369 -30.06)" fill="#6c63ff" opacity="0.1"/><path d="M762.833,54.146s-9.738,16.8,3.411,20.836a3.283,3.283,0,0,0,3.889,0s-.881-.479.3-2.072a8.914,8.914,0,0,0,1.018-1.833,4.4,4.4,0,0,0,.209-2.774h0s.433-5.874-6.567-11.764c0,0-1.018-2.27-1.527-2.438l-.219,3.563a5.869,5.869,0,0,1,3.966,1.726s-3.828-1.807-4.021-1.2c-.041.122-.036,1.883-.036,1.883s4.576.137,6.613,2.774c0,0-4.276-2.764-6.552-2.092l.163,2.657s4.8-.1,7.208,2.815c0,0-4.581-2.734-7.127-2.235l.509,2.591s4.683,0,6.669,2.433c0,0-5.6-2.627-6.511-1.848a12.582,12.582,0,0,0,1.084,2.9s3.36.071,4.388,1.593c0,0-3.925-1.359-4.144-.962,0,0,1.624,2.846,3.207,3.854a9.942,9.942,0,0,1-3.64-3.563,5.452,5.452,0,0,0,.041,3.131s-1.6-1.115-.428-3.828a12.793,12.793,0,0,1-1.1-2.683A12.1,12.1,0,0,0,762,72.054s-.927-2.214,1.466-5.131l-.575-2.6s-2.2,3.212-2.418,4.938c0,0-.591-2.408,2.326-5.6l-.193-2.6a20.322,20.322,0,0,0-2.759,4.49s-.071-2.352,2.734-5.238l.076-1.756s-1.527,1.939-1.889,2.545-.575.519-.575.519A8.379,8.379,0,0,1,762.68,57.8S763.047,54.192,762.833,54.146Z" transform="translate(-759.363 -41.862)" fill="#6c63ff" opacity="0.1"/></g><path d="M909.889,375.241a7.285,7.285,0,1,0,7.284,7.285,7.285,7.285,0,0,0-7.284-7.285Zm-21.3-57.161v7.285h7.285l13.113,26.562-5.483,8.924a7,7,0,0,0-.911,3.462c0,4.877,3.334,7.285,7.855,7.285h42.592v-7h-41.7a.86.86,0,0,1-.911-.911,4.583,4.583,0,0,1,.387-.906l3.64-5.747h27.138a7.127,7.127,0,0,0,6.373-3.823l13.118-22.556a4.23,4.23,0,0,0,.367-1.822,3.5,3.5,0,0,0-3.645-3.462H903.892l-3.462-7.285Zm57.161,57.161a7.285,7.285,0,1,0,7.29,7.286,7.285,7.285,0,0,0-7.29-7.286Z" transform="translate(-457.585 -167.094)" fill="#6c63ff"/><path d="M924.469,330.319H918.36V324.21h-4.582v6.109H907.67V334.9h6.109v6.109h4.582V334.9h6.109Z" transform="translate(-445.623 -159.179)" fill="#fff"/></g></svg>