<svg xmlns="http://www.w3.org/2000/svg" xmlns:xlink="http://www.w3.org/1999/xlink" width="167.28" height="120.511" viewBox="0 0 167.28 120.511"><defs><linearGradient id="a" x1="7.793" y1="0.584" x2="7.793" y2="-0.54" gradientUnits="objectBoundingBox"><stop offset="0" stop-color="gray" stop-opacity="0.251"/><stop offset="0.54" stop-color="gray" stop-opacity="0.122"/><stop offset="1" stop-color="gray" stop-opacity="0.102"/></linearGradient><linearGradient id="b" x1="3.15" y1="1.083" x2="3.15" y2="0.078" xlink:href="#a"/></defs><g transform="translate(0 -0.034)"><g transform="translate(146.804 56.214)" opacity="0.5"><rect width="20.476" height="20.476" rx="10.238" fill="#d0d2d5"/><path d="M1049.311,461.85h5.807s4.89,4.279,0,8.71h-5.807S1044.421,466.587,1049.311,461.85Z" transform="translate(-1041.976 -455.965)" opacity="0.1"/><rect width="0.764" height="2.292" transform="translate(7.946 8.328)" fill="#3f3d56"/><rect width="0.764" height="2.751" transform="translate(11.766 8.022)" fill="#3f3d56"/><path d="M1022.637,446.19h0a.917.917,0,0,1,.917.917v.764h-1.834v-.764A.917.917,0,0,1,1022.637,446.19Z" transform="translate(-1012.399 -434.195)" fill="#3f3d56"/></g><path d="M593.271,92.117c.484-.011.967.026,1.45,0,.442-.021.88-.093,1.322-.138.755-.075,1.516-.069,2.274-.1a2.573,2.573,0,0,0,1.427-.364,10.119,10.119,0,0,0,.927-1.044,52.957,52.957,0,0,0,3.541-4.557c.306-.373.625-.744.9-1.143a14.35,14.35,0,0,0,1.277-2.486,6.894,6.894,0,0,0,.367-.981c.069-.269.1-.547.2-.81.19-.538.645-1.009.7-1.575l-.064.009c.556-.707.471-1.941.746-2.847a12.259,12.259,0,0,1,.637-1.572l1.022-2.226a3.418,3.418,0,0,1,.663-1.07c.368-.356.882-.533,1.252-.888a1.942,1.942,0,0,0,.48-.781l.032.031c.2.191.348.425.539.622.411.425.981.668,1.4,1.085a3.736,3.736,0,0,0,.648.625.718.718,0,0,0,.831-.1c.75-.66,1.869-.721,2.68-1.3.225-.162.42-.359.631-.536a8.607,8.607,0,0,1,1.63-1.024,4.066,4.066,0,0,1,1.007.144,5.11,5.11,0,0,0,1.42.336,2.048,2.048,0,0,0,1.193-.458,1.224,1.224,0,0,0,.513-.764.981.981,0,0,0-.367-.825c-.034-.029-.069-.055-.1-.081a1.021,1.021,0,0,0-.368-.711,2.445,2.445,0,0,0-.833-.425,1.787,1.787,0,0,0-.526-.119,2.4,2.4,0,0,0-.816.191,7.846,7.846,0,0,1-1.6.336c-.1.009-.292-.011-.458-.012l-.057-.162a4.935,4.935,0,0,1-2.072.053c-.339,0-.677.06-1.015.081a9.154,9.154,0,0,1-1.122-.024l-1.129-.072a13.311,13.311,0,0,1-1.439-.153c-.127-.258-.254-.516-.4-.764a7.07,7.07,0,0,0-.839-1.166,4.05,4.05,0,0,1,.4-.306l.027-.017c.035-.02.078-.041.125-.063a2.893,2.893,0,0,0,4.135-2.61,2.216,2.216,0,0,0,.245-.112c.046-.024.092-.05.136-.079l.066-.044a1.275,1.275,0,0,0,.119-.1c.018-.018.037-.037.053-.057a.728.728,0,0,0,.087-.128h0c.009-.018.018-.035.026-.053s0-.014.008-.021a.137.137,0,0,0,.015-.04c0-.012,0-.018.008-.028l.009-.037a.21.21,0,0,0,0-.029v-.067a.257.257,0,0,1,0-.034.257.257,0,0,0,0-.034v-.034a.247.247,0,0,0,0-.034v-.041a.281.281,0,0,0,0-.035V60.2a.188.188,0,0,0,0-.028.357.357,0,0,0,0-.043v-.024a.085.085,0,0,0-.011-.046v-.021l-.014-.049v-.018a.212.212,0,0,0-.015-.05v-.015l-.018-.055v-.009a.269.269,0,0,0-.026-.079c-.115-.33-.238-.659-.37-.983a2.39,2.39,0,0,0-.425-.743,6,6,0,0,0-.983-.66,7.219,7.219,0,0,1-.992-.989,2.058,2.058,0,0,0-1.183-.7,2.317,2.317,0,0,0-1.079.2c-2.807,1.036-5.105,3.078-7.622,4.7a5.5,5.5,0,0,1-3.236,1.141l1.024,1.626c.049.079.1.153.153.235s.107.153.164.229a1.844,1.844,0,0,0,.536.492,1.175,1.175,0,0,0,.165.079,1.361,1.361,0,0,0,.153.047,2.716,2.716,0,0,0,1.134-.06c.127-.024.254-.05.379-.079l.153-.043h.024v.024c-.086.153-.167.292-.238.443a9.289,9.289,0,0,0-.546,1.7,11.416,11.416,0,0,0-.5,3.493,3.356,3.356,0,0,1-.021,1.186,1.071,1.071,0,0,0-.1.567,2.613,2.613,0,0,1,.141.333c.024.177-.116.33-.217.477s-.153.38-.009.483a.824.824,0,0,0-.546.68.579.579,0,0,1-.052.261.646.646,0,0,1-.153.142.823.823,0,0,0-.286.513c-.295,0-.544.287-.813.458a3.279,3.279,0,0,1-.741.269,5.619,5.619,0,0,0-1.951,1.23,2.5,2.5,0,0,0-.785.989c-.046.131-.07.269-.11.4a2.77,2.77,0,0,1-.355.724,5.229,5.229,0,0,1-1.07,1.195,2.841,2.841,0,0,0-.55.59c-.234.338-.709.439-.96.764a3.627,3.627,0,0,1-.306.458c-.194.183-.487.2-.735.306-.579.24-.847.917-1.363,1.274a.144.144,0,0,1-.1.034c-.044,0-.07-.053-.108-.079-.075-.05-.174-.012-.263.011s-.208.014-.231-.075c-1.245-.755-2.469-1.574-3.716-2.329l-.568-.344-3.041-1.843a.226.226,0,0,0-.24,0l-.095.066c-.153-.162-.322-.306-.423-.425-.041-.047-.083-.095-.125-.141a.186.186,0,0,0,.081-.015.153.153,0,0,0,.066-.2.5.5,0,0,0-.141-.179,3.38,3.38,0,0,1-.365-.417,3.855,3.855,0,0,0-.4-.526.738.738,0,0,0-.6-.237.968.968,0,0,0-.345.139,5.669,5.669,0,0,0-1.146.879.121.121,0,0,0-.05.095c0,.031.031.053.034.083a.107.107,0,0,1-.029.076,3.2,3.2,0,0,1-.723.659q-.582.435-1.138.9a1.593,1.593,0,0,0-.532.649,1.27,1.27,0,0,0,.093.9,5.721,5.721,0,0,0,1.138,1.571.556.556,0,0,0,.292.2.371.371,0,0,0,.264-.064,1.057,1.057,0,0,0,.335-.865c.008-.153.017-.293.026-.44a.2.2,0,0,1,.017-.086.214.214,0,0,1,.093-.075l.42-.222c-.012-.02-.026-.04-.04-.06a1.713,1.713,0,0,1,.992-.064c.223.066.428.2.642.281a1.42,1.42,0,0,0,.153.828,6.439,6.439,0,0,1,2.191.781,17.472,17.472,0,0,1,1.647.931q.648.422,1.268.882c.587.434,1.154.894,1.714,1.358a8.272,8.272,0,0,0,1.172.863,3.359,3.359,0,0,0,3.6-.131c1.277-.973,2.9-1.479,4.279-2.321a4.829,4.829,0,0,0,1.108-.851.759.759,0,0,1-.018.118c-.083.38-.411.656-.535,1.041-.1.306-.061.659-.247.917-.142.2-.408.338-.416.581,0,.067.02.134.02.2a.63.63,0,0,1-.073.243,2.049,2.049,0,0,1-.637.917c-.122.084-.278.16-.306.306a.289.289,0,0,1-.032.121c-.052.072-.167.034-.249.064-.115.043-.133.191-.179.306a.5.5,0,0,1-.5.293c-1.044-.127-2.069.345-3.12.318-.362-.011-.723-.047-1.086-.05a11.78,11.78,0,0,0-3.282.611,1.733,1.733,0,0,0-.217.688,2.654,2.654,0,0,1-1.123.043,2.4,2.4,0,0,0-.281-.038.423.423,0,0,0,.024-.217,6.136,6.136,0,0,0-1.258.561c-.261.153-.538.367-.562.668a1,1,0,0,0,.049.342l.142.539a.569.569,0,0,0,.127.27c.047.046.11.073.153.122a.479.479,0,0,1,.083.194l.119.468a2.978,2.978,0,0,1,.095.475c.014.153,0,.293.011.44a4.57,4.57,0,0,0,.105.718l.17.847a2.89,2.89,0,0,0,.2.688c.072.153.168.284.226.437.046.118.067.243.122.355a.946.946,0,0,0,.443.41.494.494,0,0,0,.215.067c.217,0,.373-.2.474-.394a2.383,2.383,0,0,0,.316-1.149c0-.162-.032-.322-.046-.484-.037-.458.095-.9.095-1.362a.267.267,0,0,0-.191-.278,2.266,2.266,0,0,1,.217-1.131,1.7,1.7,0,0,1,.373-.4c.057.18.119.359.189.533A14.216,14.216,0,0,1,593.271,92.117Zm24.845-23.466c-.083.031-.167.061-.252.089a4.442,4.442,0,0,1-2.265.306,1.967,1.967,0,0,1-.62-.306l-.053-.034A12.865,12.865,0,0,1,618.116,68.651Z" transform="translate(-498.261 -55.65)" fill="url(#a)"/><path d="M849.651,129.208a2.361,2.361,0,0,1,.811-.188,1.781,1.781,0,0,1,.523.121,2.456,2.456,0,0,1,.831.428,1,1,0,0,1,.368.825,1.221,1.221,0,0,1-.509.764,2.028,2.028,0,0,1-1.186.458,5.145,5.145,0,0,1-1.414-.341,4.059,4.059,0,0,0-1.048-.153,2.291,2.291,0,0,1-.533-.034.571.571,0,0,1-.41-.315.807.807,0,0,1,0-.458c.035-.189.029-.639.2-.752.134-.092.611-.018.776-.032A7.661,7.661,0,0,0,849.651,129.208Z" transform="translate(-725.661 -117.78)" fill="#fbbebe"/><path d="M786.483,110.12a7.065,7.065,0,0,1,1.184,1.528,10.124,10.124,0,0,0,1.69,2.751,5.7,5.7,0,0,0,.683.494,1.97,1.97,0,0,0,.62.306,4.341,4.341,0,0,0,2.252-.306,14.261,14.261,0,0,0,2.037-.917,1.681,1.681,0,0,0,.238.837.608.608,0,0,0,.764.229,9.061,9.061,0,0,0-1.762,1.09c-.209.177-.4.373-.627.533-.805.579-1.919.637-2.663,1.294a.717.717,0,0,1-.827.1,3.637,3.637,0,0,1-.646-.628c-.419-.419-.987-.663-1.4-1.09-.191-.2-.344-.431-.539-.623-.28-.275-.643-.458-.9-.764-.191-.225-.306-.5-.484-.738-.153-.208-.333-.39-.469-.611a2.2,2.2,0,0,1-.139-1.817A6.943,6.943,0,0,1,786.483,110.12Z" transform="translate(-673.402 -101.768)" fill="#f86d70"/><path d="M786.483,110.12a7.065,7.065,0,0,1,1.184,1.528,10.124,10.124,0,0,0,1.69,2.751,5.7,5.7,0,0,0,.683.494,1.97,1.97,0,0,0,.62.306,4.341,4.341,0,0,0,2.252-.306,14.261,14.261,0,0,0,2.037-.917,1.681,1.681,0,0,0,.238.837.608.608,0,0,0,.764.229,9.061,9.061,0,0,0-1.762,1.09c-.209.177-.4.373-.627.533-.805.579-1.919.637-2.663,1.294a.717.717,0,0,1-.827.1,3.637,3.637,0,0,1-.646-.628c-.419-.419-.987-.663-1.4-1.09-.191-.2-.344-.431-.539-.623-.28-.275-.643-.458-.9-.764-.191-.225-.306-.5-.484-.738-.153-.208-.333-.39-.469-.611a2.2,2.2,0,0,1-.139-1.817A6.943,6.943,0,0,1,786.483,110.12Z" transform="translate(-673.402 -101.768)" opacity="0.1"/><path d="M588.9,199.688a1.583,1.583,0,0,0-.431-.39,1.3,1.3,0,0,0-.805-.083,5.538,5.538,0,0,0-1.913.764A4.406,4.406,0,0,0,584.44,201a1.047,1.047,0,0,0-.231.458.944.944,0,0,0,.035.417,1.009,1.009,0,0,0,.545.706,1.417,1.417,0,0,0,1-.13,2.135,2.135,0,0,1,1.348-.189c.329.1.611.347.958.356a1.374,1.374,0,0,0,1-.633c.225-.275.717-.772.685-1.158S589.139,199.965,588.9,199.688Z" transform="translate(-502.974 -177.224)" fill="#fbbebe"/><path d="M637.209,279.356a2.639,2.639,0,0,1-1.146.047c-.232-.043-.517-.1-.665.084a.547.547,0,0,0-.093.226,7.441,7.441,0,0,0,.611,4.684.144.144,0,0,0,.043.064c.041.031.1.009.145-.011a1.724,1.724,0,0,0,.432-.252,1.507,1.507,0,0,0,.37-1.094,2.353,2.353,0,0,1,.212-1.154c.257-.42.793-.625,1-1.07a1.476,1.476,0,0,0-.069-1.161c-.05-.128-.07-.458-.189-.521S637.345,279.319,637.209,279.356Z" transform="translate(-546.137 -244.999)" fill="#fbbebe"/><path d="M584.83,192.783a.153.153,0,0,0,.064-.2.517.517,0,0,0-.141-.18,3.161,3.161,0,0,1-.364-.419,4.235,4.235,0,0,0-.4-.526.741.741,0,0,0-.594-.238.917.917,0,0,0-.344.138,5.556,5.556,0,0,0-1.138.874c-.026.026-.055.058-.049.095s.031.052.034.083a.105.105,0,0,1-.027.075,3.161,3.161,0,0,1-.718.656q-.578.434-1.131.9a1.574,1.574,0,0,0-.527.646,1.285,1.285,0,0,0,.1.9,5.83,5.83,0,0,0,1.138,1.575.577.577,0,0,0,.293.206.37.37,0,0,0,.263-.064,1.065,1.065,0,0,0,.329-.862l.024-.442a.2.2,0,0,1,.017-.084.206.206,0,0,1,.093-.075l.416-.22a1.34,1.34,0,0,0-1.222-.636.459.459,0,0,1-.327-.044.269.269,0,0,1,0-.373.822.822,0,0,1,.361-.2c1.1-.4,2.086-1.047,3.149-1.528a.809.809,0,0,1,.376-.087C584.605,192.763,584.731,192.826,584.83,192.783Z" transform="translate(-498.951 -170.475)" fill="#f86d70"/><path d="M629.962,283.092c-.049.092-.066.2-.119.289a.214.214,0,0,1-.26.107.267.267,0,0,1-.1-.136,5.708,5.708,0,0,1-.374-3.371,2.124,2.124,0,0,1,.164-.538.873.873,0,0,0,.165-.513,6.058,6.058,0,0,0-1.25.556c-.26.153-.533.365-.558.665a1.045,1.045,0,0,0,.05.342l.144.539a.558.558,0,0,0,.128.27c.046.046.108.075.153.124a.457.457,0,0,1,.083.193l.121.468a2.992,2.992,0,0,1,.1.477c.014.153,0,.293.012.44a4.734,4.734,0,0,0,.107.717l.173.847a2.945,2.945,0,0,0,.2.688c.072.153.168.284.228.439.044.118.067.243.122.355a.961.961,0,0,0,.442.411.518.518,0,0,0,.215.069c.215.008.37-.2.471-.394a2.377,2.377,0,0,0,.306-1.146c0-.162-.034-.322-.047-.484-.038-.458.09-.9.089-1.36C630.725,282.715,630.12,282.8,629.962,283.092Z" transform="translate(-539.767 -244.782)" fill="#f86d70"/><path d="M772.041,98.34a3.374,3.374,0,0,1-1.222-.955,5.84,5.84,0,0,1-.458-.68,20.657,20.657,0,0,1-1.49-3.067,4.179,4.179,0,0,0,1.974.07,2.726,2.726,0,0,0,.917-.486,7.928,7.928,0,0,0,.966-.943,9.285,9.285,0,0,0,.764,1.222c.164.22.717.668.675.967s-.652.449-.9.591l-.026.017a3.466,3.466,0,0,0-.94.876A2.373,2.373,0,0,0,772.041,98.34Z" transform="translate(-659.426 -86.654)" fill="#fbbebe"/><path d="M789.375,95.046a2.864,2.864,0,0,1-1.505-1.834,7.923,7.923,0,0,0,.966-.943,9.285,9.285,0,0,0,.764,1.222c.164.22.717.668.675.967S789.623,94.9,789.375,95.046Z" transform="translate(-675.522 -86.645)" opacity="0.1"/><circle cx="2.862" cy="2.862" r="2.862" transform="translate(112.366 2.902)" fill="#fbbebe"/><path d="M740.068,115.68a1.336,1.336,0,0,1-1.317.032,2.536,2.536,0,0,1-.568-.478,13.957,13.957,0,0,1-2.462-3.183,2.205,2.205,0,0,1-.278-.821.9.9,0,0,1,.295-.782.635.635,0,0,0,.153-.142.573.573,0,0,0,.05-.26.811.811,0,0,1,.541-.677c-.153-.1-.092-.335.008-.483s.238-.306.214-.477a2.614,2.614,0,0,0-.141-.333,1.046,1.046,0,0,1,.1-.565,3.393,3.393,0,0,0,.017-1.186,11.412,11.412,0,0,1,.487-3.489,9.355,9.355,0,0,1,.538-1.7,4.833,4.833,0,0,1,.235-.442,11.743,11.743,0,0,1,.961-1.337,1.736,1.736,0,0,1,.656-.587.653.653,0,0,1,.076-.028,1.663,1.663,0,0,1,.584-.044,2.187,2.187,0,0,1,1.427.516,3.264,3.264,0,0,1,.654,1.366,3.777,3.777,0,0,0,.193.481,4.793,4.793,0,0,0,1.028,1.242l.423.408c.212.2.581.153.781.368a.99.99,0,0,1,.179.342,5.31,5.31,0,0,1,.39,1.731,2.869,2.869,0,0,1-.023.4,2.084,2.084,0,0,1-.579,1.222c-.367.353-.877.527-1.242.882a3.33,3.33,0,0,0-.657,1.07l-1.01,2.222a12.6,12.6,0,0,0-.628,1.566C740.833,113.585,741.013,115.091,740.068,115.68Z" transform="translate(-631.101 -92.088)" fill="#f86d70"/><path d="M622.88,196.224c-.755.031-1.511.021-2.263.093-.439.043-.876.115-1.316.133-.48.021-.961-.017-1.443-.008a14.27,14.27,0,0,0-3.573.682,6.785,6.785,0,0,1-.506-2.532,1.6,1.6,0,0,1,0-.173,1.737,1.737,0,0,1,.215-.7,11.428,11.428,0,0,1,3.265-.6c.362,0,.721.043,1.082.053,1.047.032,2.064-.437,3.1-.306a.489.489,0,0,0,.5-.292c.044-.113.063-.261.177-.306.083-.031.2.008.247-.063a.32.32,0,0,0,.032-.121c.031-.153.185-.222.306-.306a2.08,2.08,0,0,0,.631-.917.622.622,0,0,0,.072-.241c0-.067-.021-.134-.02-.2,0-.241.271-.38.411-.578a2.921,2.921,0,0,0,.243-.917c.122-.385.448-.659.529-1.038a.751.751,0,0,0,.018-.118,4.786,4.786,0,0,1-1.1.847c-1.357.836-2.98,1.336-4.246,2.3a3.338,3.338,0,0,1-3.579.119,8.277,8.277,0,0,1-1.171-.866c-.559-.458-1.125-.928-1.71-1.365q-.611-.458-1.267-.885a17.445,17.445,0,0,0-1.641-.961,6.44,6.44,0,0,0-2.184-.79,1.609,1.609,0,0,1-.043-1.32,4.453,4.453,0,0,1,.715-1.154,3.328,3.328,0,0,1,.819-.836.223.223,0,0,1,.238,0l3.029,1.86.567.347c1.242.764,2.465,1.582,3.707,2.341.023.087.144.1.231.075s.186-.06.261-.009c.037.024.063.07.109.079a.153.153,0,0,0,.1-.034c.513-.353.776-1.031,1.352-1.268.246-.1.538-.116.73-.306a3.471,3.471,0,0,0,.306-.458c.249-.325.721-.423.952-.764a2.8,2.8,0,0,1,.546-.587,5.169,5.169,0,0,0,1.07-1.19,2.763,2.763,0,0,0,.35-.721c.04-.133.064-.27.109-.4a2.458,2.458,0,0,1,.778-.986,5.636,5.636,0,0,1,1.938-1.222,3.275,3.275,0,0,0,.738-.267c.295-.18.565-.515.9-.437a.764.764,0,0,1,.335.211,10.643,10.643,0,0,1,1.138,1.3q.818,1.041,1.633,2.083a2.407,2.407,0,0,0,.64.634,1.756,1.756,0,0,0,1.184.153c-.053.567-.5,1.034-.691,1.572-.09.261-.125.539-.193.807a6.606,6.606,0,0,1-.362.979,14.287,14.287,0,0,1-1.262,2.48c-.272.4-.585.764-.892,1.138-1.212,1.462-2.139,3.226-3.515,4.541a10.674,10.674,0,0,1-.917,1.041A2.5,2.5,0,0,1,622.88,196.224Z" transform="translate(-522.737 -160.041)" fill="#434175"/><path d="M743.562,165.37a.83.83,0,0,0-.382.115c.28-.1.62.163.879.04.121-.058.1-.075,0-.11C743.9,165.362,743.718,165.41,743.562,165.37Z" transform="translate(-637.661 -148.575)" opacity="0.1"/><rect width="11.919" height="2.139" transform="translate(142.911 71.279) rotate(-19.55)" fill="#d0d2d5"/><path d="M0,0H10.849a1.07,1.07,0,0,1,1.07,1.07h0a1.07,1.07,0,0,1-1.07,1.07H0V0Z" transform="translate(146.668 75.46) rotate(-19.55)" fill="#d0d2d5"/><path d="M3.466,0H6.109a8.863,8.863,0,0,1,8.863,8.863v2.644a3.466,3.466,0,0,1-3.466,3.466H3.466A3.466,3.466,0,0,1,0,11.506V3.466A3.466,3.466,0,0,1,3.466,0Z" transform="translate(133.662 70.349) rotate(-19.55)" fill="#3f3d56"/><path d="M740.663,174.945a.593.593,0,0,0-.322-.02.682.682,0,0,0-.42.206.229.229,0,0,0,.188,0,1.111,1.111,0,0,1,.306-.034c.089,0,.353.1.422.055C740.936,175.087,740.731,174.971,740.663,174.945Z" transform="translate(-634.899 -156.658)" opacity="0.1"/><path d="M759.028,105.79a2.967,2.967,0,0,1-.654-.315c-.536-.341-.987-.8-1.517-1.152a8.444,8.444,0,0,0-.83-.458l-1.789-.917a1.814,1.814,0,0,0-.434-.177c-.292-.064-.62.131-.917.09a1.1,1.1,0,0,1-.746-.515,2.682,2.682,0,0,1-.336-.866,4.439,4.439,0,0,1-.1-.549,2.445,2.445,0,0,1-.011-.579,1.449,1.449,0,0,1,.5-.987,1.847,1.847,0,0,1,.709-.306,2.96,2.96,0,0,1,.491-.081,1.746,1.746,0,0,1,.283,0,2.692,2.692,0,0,1,1.7,1.016c.237.266.458.552.685.822a3.76,3.76,0,0,0,.193.481,4.793,4.793,0,0,0,1.028,1.242l.423.408c.212.2.581.153.781.368a.99.99,0,0,1,.179.342,5.311,5.311,0,0,1,.387,1.736A2.869,2.869,0,0,1,759.028,105.79Z" transform="translate(-644.862 -92.324)" opacity="0.1"/><path d="M657.648,239.216l-9.208,1.355a1.738,1.738,0,0,1,.215-.7,11.429,11.429,0,0,1,3.266-.6c.362,0,.721.043,1.082.053,1.047.032,2.064-.437,3.1-.306a.489.489,0,0,0,.5-.292c.044-.113.063-.261.177-.306.083-.031.2.008.248-.063a.322.322,0,0,0,.032-.121c.031-.153.185-.222.306-.306a2.08,2.08,0,0,0,.631-.917.621.621,0,0,0,.072-.241c0-.067-.021-.134-.02-.2,0-.241.271-.38.411-.578a2.922,2.922,0,0,0,.243-.917c.122-.385.448-.659.529-1.038l.04-.052,1.568-.611Z" transform="translate(-557.398 -206.193)" opacity="0.1"/><ellipse cx="64.943" cy="5.043" rx="64.943" ry="5.043" transform="translate(0 97.163)" fill="#6c63ff" opacity="0.1"/><ellipse cx="42.022" cy="5.466" rx="42.022" ry="5.466" transform="translate(80.333 109.614)" fill="#6c63ff" opacity="0.1"/><path d="M527.89,605.552l.043-2.164q3.056-.174,6.112-.232a13.086,13.086,0,0,1,3.525.267c.793.206,1.543.555,2.326.8a17.824,17.824,0,0,0,4.845.594,9.883,9.883,0,0,0,4.671-.642c2.468-1.222,3.505-4.225,3.626-6.974s-.426-5.519-.046-8.252" transform="translate(-455.269 -507.429)" fill="none" stroke="#3f3d56" stroke-miterlimit="10" stroke-width="12"/><path d="M360.849,599.987l-27.229-.348.079-.7,1.317-11.52h23.911l1.76,11.52.134.872Z" transform="translate(-282.641 -497.63)" fill="#d0d2d5"/><path d="M360.823,663.682H347.233l-13.613-.174.079-.7h26.989Z" transform="translate(-282.641 -561.499)" opacity="0.1"/><rect width="36.131" height="0.873" transform="translate(46.441 101.485)" fill="#d0d2d5"/><path d="M234.1,177.562a2.272,2.272,0,0,0-2.262-2.292h-100.9a2.274,2.274,0,0,0-2.262,2.292v61.162H234.1Z" transform="translate(-117.06 -156.962)" fill="#3f3d56"/><path d="M128.68,586.53V593.7a2.262,2.262,0,0,0,2.262,2.262h100.9A2.262,2.262,0,0,0,234.1,593.7V586.53Z" transform="translate(-117.061 -505.379)" fill="#d0d2d5"/><rect width="97.22" height="54.981" transform="translate(15.984 22.155)" fill="#2f2e41"/><path d="M463.93,604.143a2.358,2.358,0,0,0,1.854-.9h0a2.333,2.333,0,0,0,.183-.271l-1.293-.212,1.4.011a2.359,2.359,0,0,0,.044-1.867l-1.875.973,1.73-1.271a2.356,2.356,0,1,0-3.886,2.636h0A2.353,2.353,0,0,0,463.93,604.143Z" transform="translate(-399.075 -516.284)" fill="#6c63ff"/><path d="M439.85,592.56l10.863,10.909-1.667-10.909Z" transform="translate(-372.638 -501.984)" opacity="0.1"/><path d="M703.964,144.983l5.834-7.73a5.532,5.532,0,0,1,1.186-1.267c1.375-.95,3.391-.388,4.541.83a9.307,9.307,0,0,1,1.986,4.551,48.3,48.3,0,0,1,1.094,11.483,20.4,20.4,0,0,1-.877,6.01c-.981,2.931-2.969,5.4-4.471,8.1-2.419,4.35-3.432,10.152-.37,14.078,1,1.279,2.356,2.257,3.278,3.592A14.14,14.14,0,0,1,718,189.772a48.211,48.211,0,0,1,1.267,8.19,24.63,24.63,0,0,1-12.62,22.119c-5.463,2.952-12.072,3.808-16.822,7.811-1.681,1.41-3.129,3.484-2.717,5.632a5.183,5.183,0,0,0,3.548,3.644,13.822,13.822,0,0,0,5.276.428,97.231,97.231,0,0,0,12.683-1.566c3.55-.678,7.093-1.264,10.188-3.131a2.139,2.139,0,0,0,.772-.692,2.512,2.512,0,0,0,.261-1.129,8.022,8.022,0,0,0-.241-3.415c-.472-1.259-1.549-2.213-2.066-3.453a6.336,6.336,0,0,1-.089-3.973,22.628,22.628,0,0,1,1.918-4.592c.735-1.442,1.481-2.88,2.346-4.248,2.436-3.845,5.764-7.029,9.057-10.169" transform="translate(-590.096 -123.275)" fill="none" stroke="#3f3d56" stroke-miterlimit="10" stroke-width="12"/><path d="M846.6,123.958a2.292,2.292,0,0,1,.811-.188,1.833,1.833,0,0,1,.523.119,2.46,2.46,0,0,1,.831.429.992.992,0,0,1,.368.825,1.225,1.225,0,0,1-.509.764,2.02,2.02,0,0,1-1.186.458,5.379,5.379,0,0,1-1.414-.342,4.057,4.057,0,0,0-1.048-.153,2.293,2.293,0,0,1-.533-.035.57.57,0,0,1-.409-.313.822.822,0,0,1,0-.451c.037-.189.031-.64.2-.753.135-.09.611-.017.776-.031A7.862,7.862,0,0,0,846.6,123.958Z" transform="translate(-723.078 -113.332)" fill="#fbbebe"/><path d="M767.25,102.566a4.9,4.9,0,0,1-2.063.047c-.338,0-.674.057-1.01.076a9.084,9.084,0,0,1-1.117-.029l-1.119-.076a9.541,9.541,0,0,1-1.954-.269,13.382,13.382,0,0,0-2.095-1.455,12,12,0,0,1-1.358-1.5,2.686,2.686,0,0,0-1.7-1.016,2.507,2.507,0,0,0-.775.083,1.806,1.806,0,0,0-.708.306,1.443,1.443,0,0,0-.5.987,3.313,3.313,0,0,0,.112,1.128,2.691,2.691,0,0,0,.336.868,1.122,1.122,0,0,0,.747.515c.295.04.622-.153.917-.092a1.813,1.813,0,0,1,.434.177l1.791.917a8.589,8.589,0,0,1,.828.458c.532.348.981.811,1.517,1.152a2.1,2.1,0,0,0,1.809.332c1.834-.683,3.9-.365,5.845-.2-.012-.037.067-.07.09-.1a1.643,1.643,0,0,0,.306-1.145A5.656,5.656,0,0,0,767.25,102.566Z" transform="translate(-645.847 -91.787)" fill="#f86d70"/><path d="M741.823,61.431a1.047,1.047,0,0,0,.458-.41,1.364,1.364,0,0,0-.052-1.07c-.119-.351-.24-.659-.373-.983a2.368,2.368,0,0,0-.425-.744,5.854,5.854,0,0,0-.979-.662,7.315,7.315,0,0,1-.99-.992,2.07,2.07,0,0,0-1.181-.707,2.283,2.283,0,0,0-1.042.194c-2.79,1.025-5.072,3.056-7.57,4.667a5.423,5.423,0,0,1-3.209,1.129l1.025,1.629a2.336,2.336,0,0,0,1.013,1.038,2.433,2.433,0,0,0,1.282,0,3.455,3.455,0,0,0,.976-.293c.611-.332,1-1.021,1.661-1.261a2.3,2.3,0,0,1,1.528.1,7.841,7.841,0,0,0,1.488.474,3.8,3.8,0,0,0,2.6-.825,9.828,9.828,0,0,1,1.375-.917,2.072,2.072,0,0,1,1.222-.215A1.653,1.653,0,0,0,741.823,61.431Z" transform="translate(-623.496 -55.8)" fill="#2f2e41"/><path d="M742.214,83.835a1.329,1.329,0,0,0-.046-1.045.917.917,0,0,1-.076.576,1.07,1.07,0,0,1-.458.41,1.605,1.605,0,0,1-1.207.142,2.087,2.087,0,0,0-1.222.215,12.023,12.023,0,0,0-1.375.917,3.8,3.8,0,0,1-2.6.824,7.95,7.95,0,0,1-1.488-.474,2.325,2.325,0,0,0-1.528-.1c-.656.24-1.044.931-1.659,1.261a3.47,3.47,0,0,1-.976.293,2.273,2.273,0,0,1-1.282,0,2.34,2.34,0,0,1-1.015-1.038l-.726-1.154h-.176l1.025,1.629a2.336,2.336,0,0,0,1.013,1.038,2.433,2.433,0,0,0,1.282,0,3.455,3.455,0,0,0,.976-.293c.611-.332,1-1.021,1.661-1.261a2.3,2.3,0,0,1,1.528.1,7.839,7.839,0,0,0,1.488.474,3.8,3.8,0,0,0,2.6-.825,9.832,9.832,0,0,1,1.375-.917,2.072,2.072,0,0,1,1.222-.215,1.615,1.615,0,0,0,1.206-.142A1.047,1.047,0,0,0,742.214,83.835Z" transform="translate(-623.428 -78.614)" opacity="0.1"/><path d="M881.4,513.516a1.529,1.529,0,0,1,.333-.37,4.4,4.4,0,0,0,1.143-2.463,25.139,25.139,0,0,1,.477-2.721,8.745,8.745,0,0,1,.538-1.325,3.831,3.831,0,0,1,.625-1.2.406.406,0,0,1,.193-.093,2.239,2.239,0,0,1,.553-.737,5.614,5.614,0,0,0,1.262-1.222,2.694,2.694,0,0,1,.295-.5c.2-.219.509-.306.691-.536a1.535,1.535,0,0,0,.153-1.1c-.031-.379,0-.83.327-1.027.2-.121.448-.11.651-.215a.945.945,0,0,0,.42-.883c-.006-.344-.113-.678-.141-1.021-.086-1.094.636-2.182.356-3.243a6.531,6.531,0,0,0-.524-1.125,2.633,2.633,0,0,1-.153-.388,5.434,5.434,0,0,1-1.487.359c.842-1.889.628-4.085,1.021-6.112l-.05-.07a3.164,3.164,0,0,1-.645-1.811,10.621,10.621,0,0,1,.512-2.2c.135-.63.13-1.285.306-1.9a5.852,5.852,0,0,1,.484-1.1c.191-.355.391-.7.6-1.044q.293-.972.588-1.944a9.3,9.3,0,0,1,1.093-2.619c.2-.289.255-.871.556-1.045a1.334,1.334,0,0,1,.795-.139,1.486,1.486,0,0,0,.851-1.053,1.021,1.021,0,0,0-.031-.306h-.052c-.674-.063-1.013-.656-1.363-1.174a3.3,3.3,0,0,1,0-2.934,1.987,1.987,0,0,1,.458-.808c.49-.458,1.267-.358,1.9-.579a6.511,6.511,0,0,1,.628-.237,1.878,1.878,0,0,1,1.245.232,12.791,12.791,0,0,0,1.148.6c.4.153.9.274,1,.688a.751.751,0,0,1-.035.417,1.556,1.556,0,0,1-.471.68,2.723,2.723,0,0,1-1.661,3.794c-.116.185-.225.376-.324.57a1.893,1.893,0,0,0-.267,1.112,3.264,3.264,0,0,1,.306.373,7.21,7.21,0,0,1,.917,2.045,21.338,21.338,0,0,1,.74,2.792,20.833,20.833,0,0,1,1.1,2.382,5.378,5.378,0,0,0,1.433-.191l1.29-.293a2.9,2.9,0,0,0,1.268-.507c.186-.153.332-.356.521-.509s.57-.329.778-.2a.611.611,0,0,1,.105.081c.188-.382,1.391,1.181.568,1.336l.053.153a2.349,2.349,0,0,1,.281,1.031l-5.739,1.97a3.544,3.544,0,0,1-1.155.255,1.865,1.865,0,0,1-.458-.061v.3c-.015,2.016.306,4.019.365,6.033a1.566,1.566,0,0,1-.232,1.051,1.181,1.181,0,0,1-1.123.306,2.547,2.547,0,0,1-.284-.063,10.607,10.607,0,0,0-.293,1.543l-.38,2.714a4.043,4.043,0,0,0-.06.847,5.983,5.983,0,0,0,.626,1.8,2.127,2.127,0,0,1,.067,1.85c-.1.171-.238.318-.329.5a2,2,0,0,0-.153.866q-.035,1.238-.067,2.472a.289.289,0,0,1,.193.04c.318.246.283,1.426.306,1.791.024.611,0,1.235.034,1.852a10.861,10.861,0,0,0,.409,2.465,1.572,1.572,0,0,0,.35.7,1.5,1.5,0,0,0,.62.322,7.119,7.119,0,0,0,2.356.321,2.317,2.317,0,0,1,.958.081.66.66,0,0,1,.432.764.964.964,0,0,1-.631.475,9.9,9.9,0,0,0-1.681.773,4.475,4.475,0,0,1-.651.368,3.289,3.289,0,0,1-.669.165l-2.708.458c-.555.1-1.222.153-1.575-.306a1.387,1.387,0,0,1-.209-.9,11.816,11.816,0,0,0,.057-1.844,5.574,5.574,0,0,0-.283-1.06l-.813-2.4a12.671,12.671,0,0,1-.652-2.46.913.913,0,0,1,.2-.844.541.541,0,0,1,.2-.1c.009-.737.105-1.475.064-2.211-.011-.183-.029-.368-.044-.552a2.57,2.57,0,0,0-.379.446c-.26.408-.356.949-.755,1.222-.339.232-.842.22-1.08.556a1.568,1.568,0,0,0-.171.414,3,3,0,0,1-.611.97,5.028,5.028,0,0,1-.377.969q-.338.711-.672,1.421c-.24.507-.481,1.015-.764,1.494a4.125,4.125,0,0,0-.512.987,2.264,2.264,0,0,0,.692,2.139,5.974,5.974,0,0,0,2.011,1.174.554.554,0,0,1,.206.122.394.394,0,0,1,.092.266.861.861,0,0,1-.622.764,2.333,2.333,0,0,1-1.044.038,15.5,15.5,0,0,1-5.626-1.663,2.02,2.02,0,0,1-.672-.518A.791.791,0,0,1,881.4,513.516Z" transform="translate(-754.712 -403.77)" fill="url(#b)"/><path d="M923.427,540.922q-.487.749-.917,1.537a5.673,5.673,0,0,0-.484,1.094c-.179.611-.173,1.265-.306,1.889a11.015,11.015,0,0,0-.51,2.184,3.133,3.133,0,0,0,.645,1.8,8.654,8.654,0,0,0,1.348,1.391,28.67,28.67,0,0,0,1.907-9.353,3.306,3.306,0,0,0-.144-1.314c-.1-.26-.576-.972-.883-.692-.112.1-.141.564-.209.717A5.54,5.54,0,0,1,923.427,540.922Z" transform="translate(-788.487 -465.444)" fill="#f86d70"/><path d="M923.427,540.922q-.487.749-.917,1.537a5.673,5.673,0,0,0-.484,1.094c-.179.611-.173,1.265-.306,1.889a11.015,11.015,0,0,0-.51,2.184,3.133,3.133,0,0,0,.645,1.8,8.654,8.654,0,0,0,1.348,1.391,28.67,28.67,0,0,0,1.907-9.353,3.306,3.306,0,0,0-.144-1.314c-.1-.26-.576-.972-.883-.692-.112.1-.141.564-.209.717A5.54,5.54,0,0,1,923.427,540.922Z" transform="translate(-788.487 -465.444)" opacity="0.1"/><path d="M1029.582,560.094a2.143,2.143,0,0,1,1.725.336,1.424,1.424,0,0,1,.5.941c.04.425-.206.926-.631.96a2.015,2.015,0,0,1-.306-.02,4.573,4.573,0,0,0-.8.066,3.273,3.273,0,0,1-2.787-1.125c-.364-.449.116-.656.548-.747C1028.416,560.38,1028.992,560.195,1029.582,560.094Z" transform="translate(-878.238 -482.945)" fill="#fbbebe"/><path d="M952.129,629.248l-.379,2.693a3.972,3.972,0,0,0-.058.84,5.9,5.9,0,0,0,.625,1.791,2.091,2.091,0,0,1,.069,1.834c-.1.171-.24.315-.329.49a1.987,1.987,0,0,0-.153.862l-.1,3.82a24.254,24.254,0,0,1-3.542-.02.206.206,0,0,1-.131-.034.211.211,0,0,1-.044-.139c-.052-.894.1-1.789.054-2.683-.018-.327-.066-.652-.07-.981-.02-1.331.639-2.634.44-3.952a8.743,8.743,0,0,0-.245-.981,21.871,21.871,0,0,1-.358-7.067.18.18,0,0,1,.031-.107.188.188,0,0,1,.084-.046,4.352,4.352,0,0,1,3.939.75c.167.134.587.264.7.423.153.225-.049.446-.136.685A8.7,8.7,0,0,0,952.129,629.248Z" transform="translate(-811.004 -538.297)" fill="#3f3d56"/><path d="M952.129,629.248l-.379,2.693a3.972,3.972,0,0,0-.058.84,5.9,5.9,0,0,0,.625,1.791,2.091,2.091,0,0,1,.069,1.834c-.1.171-.24.315-.329.49a1.987,1.987,0,0,0-.153.862l-.1,3.82a24.254,24.254,0,0,1-3.542-.02.206.206,0,0,1-.131-.034.211.211,0,0,1-.044-.139c-.052-.894.1-1.789.054-2.683-.018-.327-.066-.652-.07-.981-.02-1.331.639-2.634.44-3.952a8.743,8.743,0,0,0-.245-.981,21.871,21.871,0,0,1-.358-7.067.18.18,0,0,1,.031-.107.188.188,0,0,1,.084-.046,4.352,4.352,0,0,1,3.939.75c.167.134.587.264.7.423.153.225-.049.446-.136.685A8.7,8.7,0,0,0,952.129,629.248Z" transform="translate(-811.004 -538.297)" opacity="0.1"/><path d="M906.809,623.211a6.509,6.509,0,0,1,.524,1.117c.28,1.053-.44,2.139-.354,3.218.028.341.133.672.141,1.013a.941.941,0,0,1-.42.876c-.2.105-.458.095-.649.214a1.046,1.046,0,0,0-.327,1.019,1.51,1.51,0,0,1-.153,1.091c-.182.228-.494.315-.689.53a2.642,2.642,0,0,0-.3.5,5.776,5.776,0,0,1-1.261,1.222,1.539,1.539,0,0,0-.611,1.54,1.7,1.7,0,0,0,.935.85,9.923,9.923,0,0,0,2.226.787.537.537,0,0,0,.255.012.556.556,0,0,0,.223-.153,4.144,4.144,0,0,0,1.125-1.5,1.57,1.57,0,0,1,.171-.411c.238-.333.74-.322,1.08-.552.4-.27.494-.808.753-1.213.246-.382.64-.645.917-1a11.529,11.529,0,0,0,.917-2.06c.142-.289.324-.556.437-.857a4.645,4.645,0,0,0,.209-1.1c.215-1.785.764-3.582.419-5.348-.076-.39-.194-.764-.243-1.164-.086-.694.049-1.4-.054-2.093a.57.57,0,0,0-.231-.443.638.638,0,0,0-.263-.055,18.132,18.132,0,0,0-2.717.063,1.682,1.682,0,0,0-1.247.512,2.881,2.881,0,0,0-.306,1.14,2.8,2.8,0,0,1-.59,1.117A1.06,1.06,0,0,0,906.809,623.211Z" transform="translate(-772.771 -533.074)" fill="#3f3d56"/><path d="M947.834,723.148a1.073,1.073,0,0,0-.7.139.912.912,0,0,0-.2.839,12.651,12.651,0,0,0,.654,2.445l.813,2.385a5.478,5.478,0,0,1,.283,1.051,11.68,11.68,0,0,1-.057,1.834,1.437,1.437,0,0,0,.211.891c.345.443,1.019.391,1.574.3l2.706-.458a3.318,3.318,0,0,0,.669-.164,4.531,4.531,0,0,0,.649-.367,9.989,9.989,0,0,1,1.681-.764c.254-.095.538-.217.63-.472a.661.661,0,0,0-.432-.764,2.29,2.29,0,0,0-.958-.081,7.139,7.139,0,0,1-2.353-.319,1.469,1.469,0,0,1-.62-.319,1.547,1.547,0,0,1-.351-.7,10.888,10.888,0,0,1-.409-2.445c-.031-.611-.009-1.222-.034-1.834-.015-.362.02-1.528-.306-1.777-.243-.186-1.244.329-1.571.4A7.575,7.575,0,0,1,947.834,723.148Z" transform="translate(-810.271 -620.594)" fill="#2f2e41"/><path d="M883.388,723.322a26.208,26.208,0,0,0-.475,2.7,4.38,4.38,0,0,1-1.141,2.445,1.48,1.48,0,0,0-.332.367.773.773,0,0,0,.115.8,2.006,2.006,0,0,0,.671.515,15.558,15.558,0,0,0,5.625,1.65,2.347,2.347,0,0,0,1.042-.037.859.859,0,0,0,.622-.764.387.387,0,0,0-.092-.263.569.569,0,0,0-.206-.121,6.094,6.094,0,0,1-2.011-1.166,2.231,2.231,0,0,1-.692-2.118,4.185,4.185,0,0,1,.51-.979,16.2,16.2,0,0,0,.764-1.482l.672-1.41a3.675,3.675,0,0,0,.428-1.293,6.2,6.2,0,0,1-2.477-.4,3.9,3.9,0,0,1-1.019-.611c-.26-.217-.5-.62-.847-.338a4.1,4.1,0,0,0-.625,1.186A9.082,9.082,0,0,0,883.388,723.322Z" transform="translate(-754.741 -619.068)" fill="#2f2e41"/><path d="M952.468,502.5c-.067.585-.636.973-1.178,1.2l3.432,1.1a1.547,1.547,0,0,1,.179-1.375,7.769,7.769,0,0,1,.611-.978c.034-.047.072-.108.047-.162a.171.171,0,0,0-.1-.075,8.635,8.635,0,0,0-2.205-.755c-.223-.034-.645-.122-.811.105S952.5,502.232,952.468,502.5Z" transform="translate(-813.971 -433.269)" fill="#fbbebe"/><path d="M952.468,502.5c-.067.585-.636.973-1.178,1.2l3.432,1.1a1.547,1.547,0,0,1,.179-1.375,7.769,7.769,0,0,1,.611-.978c.034-.047.072-.108.047-.162a.171.171,0,0,0-.1-.075,8.635,8.635,0,0,0-2.205-.755c-.223-.034-.645-.122-.811.105S952.5,502.232,952.468,502.5Z" transform="translate(-813.971 -433.269)" opacity="0.1"/><circle cx="2.692" cy="2.692" r="2.692" transform="translate(137.805 64.324)" fill="#fbbebe"/><path d="M929.514,534.191a1.208,1.208,0,0,1-1.122.306,27.82,27.82,0,0,1-2.628-1.094,5.15,5.15,0,0,0-3.386.567,10.2,10.2,0,0,1-3.288,1.154c1.053-2.347.451-5.172,1.456-7.539a6,6,0,0,0,.646-1.762,14.3,14.3,0,0,0-.379-2.3,5.618,5.618,0,0,1,.35-2.031l.738-2.422a9.306,9.306,0,0,1,1.091-2.6c.2-.286.257-.863.556-1.038.654-.376,1.646.1,2.355.125a2.459,2.459,0,0,1,1.77,1.1,7.074,7.074,0,0,1,.917,2.028,19.137,19.137,0,0,1,.816,3.244c.023.165.043.33.058.5a45.156,45.156,0,0,1-.083,4.723v.012c-.014,2,.306,3.987.367,5.985A1.529,1.529,0,0,1,929.514,534.191Z" transform="translate(-786.691 -445.022)" fill="#f86d70"/><path d="M962.871,535.979a3.434,3.434,0,0,1-1.414-.845,5.962,5.962,0,0,1-.938-1.062,7.682,7.682,0,0,1-.808-1.705,19.763,19.763,0,0,1-1.07-4.933,1.879,1.879,0,0,1,.222-1.313,1.1,1.1,0,0,1,1.336-.326,2.214,2.214,0,0,1,.811.873,11.235,11.235,0,0,1,1.14,2.112c.122.333.212.677.332,1.012a9.33,9.33,0,0,0,.419.967c.023.165.043.33.058.5C963.1,532.817,962.883,534.4,962.871,535.979Z" transform="translate(-820.181 -453.839)" opacity="0.1"/><path d="M958.908,524.183a1.9,1.9,0,0,0-.222,1.313,19.753,19.753,0,0,0,1.07,4.931,7.553,7.553,0,0,0,.808,1.705,5.91,5.91,0,0,0,.938,1.062,2.922,2.922,0,0,0,1.857.9,3.578,3.578,0,0,0,1.155-.252l5.732-1.947a2.317,2.317,0,0,0-.281-1.024l-.306-.908a1.161,1.161,0,0,0-.416-.656c-.226-.136-.588.05-.778.2s-.335.35-.52.5a2.947,2.947,0,0,1-1.268.5l-1.288.29a5.442,5.442,0,0,1-1.433.19c-.359-1.1-1.042-2.061-1.429-3.149-.119-.333-.211-.677-.333-1.01a11.318,11.318,0,0,0-1.138-2.112,2.194,2.194,0,0,0-.811-.873A1.108,1.108,0,0,0,958.908,524.183Z" transform="translate(-820.22 -452.197)" fill="#f86d70"/><path d="M950.231,473.523a1.361,1.361,0,0,1,.162-.5.426.426,0,0,1,.458-.2c.269.084.359.5.64.515.189.009.325-.183.385-.365a1.108,1.108,0,0,1,.234-.513.857.857,0,0,1,.333-.153,2.225,2.225,0,0,0,1.543-1.238.749.749,0,0,0,.035-.413c-.1-.411-.611-.535-1-.685s-.764-.4-1.146-.593a1.884,1.884,0,0,0-1.245-.232,6.214,6.214,0,0,0-.628.235c-.633.219-1.409.118-1.9.573a1.986,1.986,0,0,0-.458.8,3.272,3.272,0,0,0,.008,2.912c.348.515.689,1.1,1.362,1.164C949.8,474.9,950.107,474.183,950.231,473.523Z" transform="translate(-810.592 -405.9)" fill="#2f2e41"/><g transform="translate(137.617 64.244)" opacity="0.1"><path d="M972.392,478.388a1.129,1.129,0,0,1,.232-.513.891.891,0,0,1,.333-.153,2.224,2.224,0,0,0,1.545-1.238.747.747,0,0,0,.034-.413.517.517,0,0,0-.081-.182.8.8,0,0,1,.527.506.749.749,0,0,1-.035.413,2.225,2.225,0,0,1-1.543,1.238.857.857,0,0,0-.333.153,1.116,1.116,0,0,0-.234.513c-.06.18-.2.374-.385.365s-.281-.182-.4-.327C972.216,478.729,972.336,478.555,972.392,478.388Z" transform="translate(-969.176 -475.89)"/><path d="M953.6,493.222c.785.072,1.1-.642,1.222-1.3a1.359,1.359,0,0,1,.162-.5.425.425,0,0,1,.458-.2c.145.044.238.188.338.306a.459.459,0,0,0-.345.214,1.361,1.361,0,0,0-.162.5c-.124.66-.435,1.375-1.222,1.3a1.253,1.253,0,0,1-.807-.417A1.139,1.139,0,0,0,953.6,493.222Z" transform="translate(-953.24 -488.865)"/></g><path d="M167.065,677.113l2.925-1.721a7.074,7.074,0,0,0-1.5-1.788l-5.518,1.716,4.331-2.543a7.029,7.029,0,0,0-10.406,6.166c0,3.881,3.146,4.017,7.029,4.017s7.029-.136,7.029-4.017a6.985,6.985,0,0,0-.611-2.851Z" transform="translate(-140.968 -577.715)" fill="#6c63ff"/><path d="M167.75,705.861a5.471,5.471,0,0,0-1.036-.814,4.824,4.824,0,0,0-1.707-.833,12.55,12.55,0,0,0-1.681-.047,3.919,3.919,0,0,1-2.569-1.178,8.027,8.027,0,0,0-1.193-1.236,2.625,2.625,0,0,0-1.789-.328,4.755,4.755,0,0,0-.529.108,7.014,7.014,0,0,0-.416,2.385c0,3.881,3.146,4.017,7.029,4.017a14.735,14.735,0,0,0,4.856-.509l-.211-.394a5.511,5.511,0,0,0-.755-1.17Z" transform="translate(-140.909 -602.689)" opacity="0.1"/><path d="M608.033,732.022l-3.88-2.281a9.341,9.341,0,0,1,1.986-2.372l7.318,2.275-5.735-3.371a9.321,9.321,0,0,1,13.8,8.175c0,5.148-4.173,5.327-9.321,5.327s-9.321-.179-9.321-5.327a9.3,9.3,0,0,1,.8-3.782Z" transform="translate(-518.8 -622.798)" fill="#6c63ff"/><path d="M623,770.138a7.269,7.269,0,0,1,1.375-1.08,6.42,6.42,0,0,1,2.263-1.1,17.072,17.072,0,0,1,2.222-.064,5.209,5.209,0,0,0,3.408-1.56,10.256,10.256,0,0,1,1.583-1.64,3.421,3.421,0,0,1,2.372-.435,5.853,5.853,0,0,1,.7.144,9.3,9.3,0,0,1,.55,3.162c0,5.148-4.173,5.327-9.321,5.327a19.541,19.541,0,0,1-6.441-.674l.28-.523A7.449,7.449,0,0,1,623,770.138Z" transform="translate(-534.753 -655.91)" opacity="0.1"/></g></svg>