<svg xmlns="http://www.w3.org/2000/svg" xmlns:xlink="http://www.w3.org/1999/xlink" width="136.02" height="118.916" viewBox="0 0 136.02 118.916"><defs><linearGradient id="a" x1="0.5" y1="1" x2="0.5" gradientUnits="objectBoundingBox"><stop offset="0" stop-color="gray" stop-opacity="0.251"/><stop offset="0.54" stop-color="gray" stop-opacity="0.122"/><stop offset="1" stop-color="gray" stop-opacity="0.102"/></linearGradient></defs><g transform="translate(0.007 0.011)"><path d="M143.241,45.713a8.655,8.655,0,0,0-1.323,3.3c-2.528,9.421-8.754,17-15.845,22.413-3,2.293-6.659,5.369-6,9.478.353,2.208,1.906,3.826,3.062,5.631a17.464,17.464,0,0,1,2.05,13.39c-1.312,5.128-4.976,9.918-3.841,15.1.7,3.2,3.075,5.464,5.359,7.416q5.343,4.567,11.028,8.554c2.541,1.782,5.243,3.517,8.2,3.742,2.607.2,5.16-.791,7.634-1.77a17.425,17.425,0,0,0,6.125-3.457A32.593,32.593,0,0,1,163,126.028c2.975-2.149,6.793-.786,10.2.129a35.524,35.524,0,0,0,24.314-2.226c11.745-5.526,20.7-17.109,32.181-23.328,4.939-2.675,10.312-4.334,14.886-7.779a27.808,27.808,0,0,0,6.543-7.085,30.617,30.617,0,0,0,4.792-18.792c-.537-6.657-3.566-13.074-8.317-16.831-5.087-4.023-11.511-4.774-17.3-7.189-5.978-2.5-11.294-6.784-17.214-9.459a35.2,35.2,0,0,0-30.361.686c-6.443,3.252-12.972,10.855-20.148,11.426C157.472,45.989,147.234,40.87,143.241,45.713Z" transform="translate(-120 -30.37)" fill="#6c63ff" opacity="0.1"/><ellipse cx="26.266" cy="5.985" rx="26.266" ry="5.985" transform="translate(61.489 106.935)" fill="#6c63ff" opacity="0.1"/><path d="M899.714,716.81s2.327,4.568.425,7.067.173,9.309.173,9.309" transform="translate(-788.918 -619.558)" fill="none" stroke="#6c63ff" stroke-miterlimit="10" stroke-width="1"/><path d="M899.072,697.124a.928.928,0,1,1-.646-1.594A2.68,2.68,0,0,1,899.072,697.124Z" transform="translate(-787.582 -601.293)" fill="#6c63ff"/><path d="M903.447,716.81s-2.327,4.568-.425,7.067-.173,9.309-.173,9.309" transform="translate(-791.44 -619.558)" fill="none" stroke="#6c63ff" stroke-miterlimit="10" stroke-width="1"/><path d="M905.68,697.124a.928.928,0,1,0,.646-1.594A2.68,2.68,0,0,0,905.68,697.124Z" transform="translate(-794.363 -601.293)" fill="#6c63ff"/><path d="M905.68,697.124a.928.928,0,1,0,.646-1.594A2.68,2.68,0,0,0,905.68,697.124Z" transform="translate(-794.363 -601.293)" opacity="0.1"/><path d="M914.954,716.81s2.327,4.568.425,7.067.173,9.309.173,9.309" transform="translate(-801.999 -619.558)" fill="none" stroke="#6c63ff" stroke-miterlimit="10" stroke-width="1"/><path d="M914.291,697.124a.928.928,0,1,1-.645-1.594A2.68,2.68,0,0,1,914.291,697.124Z" transform="translate(-800.646 -601.293)" fill="#6c63ff"/><path d="M910.031,722.937a.928.928,0,1,1,.639-1.6A2.686,2.686,0,0,1,910.031,722.937Z" transform="translate(-796.749 -623.446)" fill="#6c63ff"/><path d="M910.481,745.177a.928.928,0,1,1,.639-1.6A2.686,2.686,0,0,1,910.481,745.177Z" transform="translate(-797.135 -642.535)" fill="#6c63ff"/><path d="M887.323,762.361a.928.928,0,1,1-1.533-.781A2.688,2.688,0,0,1,887.323,762.361Z" transform="translate(-777.291 -657.984)" fill="#6c63ff"/><path d="M890.176,717.467a.927.927,0,1,1-1.686-.341A2.68,2.68,0,0,1,890.176,717.467Z" transform="translate(-779.609 -619.811)" fill="#6c63ff"/><path d="M890.176,717.467a.927.927,0,1,1-1.686-.341A2.68,2.68,0,0,1,890.176,717.467Z" transform="translate(-779.609 -619.811)" opacity="0.1"/><path d="M918.657,716.81s-2.327,4.568-.425,7.067-.173,9.309-.173,9.309" transform="translate(-804.495 -619.558)" fill="none" stroke="#6c63ff" stroke-miterlimit="10" stroke-width="1"/><path d="M920.89,697.124a.928.928,0,1,0,.646-1.594A2.68,2.68,0,0,0,920.89,697.124Z" transform="translate(-807.418 -601.293)" fill="#6c63ff"/><path d="M920.89,697.124a.928.928,0,1,0,.646-1.594A2.68,2.68,0,0,0,920.89,697.124Z" transform="translate(-807.418 -601.293)" opacity="0.1"/><path d="M918.209,728.962a.928.928,0,1,0,1.58-.682A2.688,2.688,0,0,0,918.209,728.962Z" transform="translate(-804.551 -629.403)" fill="#6c63ff"/><path d="M918.209,728.962a.928.928,0,1,0,1.58-.682A2.688,2.688,0,0,0,918.209,728.962Z" transform="translate(-804.551 -629.403)" opacity="0.1"/><path d="M926.769,759.762a.928.928,0,1,0,1.58-.682A2.689,2.689,0,0,0,926.769,759.762Z" transform="translate(-811.898 -655.839)" fill="#6c63ff"/><path d="M918.17,743.456s1.4-2.208,3.367-2.256" transform="translate(-805.083 -640.492)" fill="none" stroke="#6c63ff" stroke-miterlimit="10" stroke-width="1"/><path d="M890.077,734.046s-1.4-2.208-3.367-2.256" transform="translate(-778.081 -632.415)" fill="none" stroke="#6c63ff" stroke-miterlimit="10" stroke-width="1"/><path d="M909.19,756.26s1.4-2.209,3.374-2.26" transform="translate(-797.376 -651.478)" fill="none" stroke="#6c63ff" stroke-miterlimit="10" stroke-width="1"/><circle cx="0.364" cy="0.364" r="0.364" transform="translate(116.025 100.327)" fill="#6c63ff"/><circle cx="0.364" cy="0.364" r="0.364" transform="translate(108.299 99.023)" fill="#6c63ff"/><path d="M896.067,761.416s-1.4-2.208-3.367-2.256" transform="translate(-783.222 -655.907)" fill="none" stroke="#6c63ff" stroke-miterlimit="10" stroke-width="1"/><circle cx="0.364" cy="0.364" r="0.364" transform="translate(109.148 102.901)" fill="#6c63ff"/><circle cx="0.364" cy="0.364" r="0.364" transform="translate(114.844 102.175)" fill="#6c63ff"/><path d="M890.822,793.581s-3.376-.676-4.276-1.576-4.949-2.475-5.4-1.355-6.077,4.959-2.25,5.631,9,.9,10.128.451S890.822,793.581,890.822,793.581Z" transform="translate(-770.234 -682.603)" fill="#a8a8a8"/><path d="M878.9,815.825c3.826.676,9,.9,10.128.451.85-.343,1.452-1.984,1.688-2.756l.112.024s-.676,2.7-1.8,3.151-6.3.225-10.128-.451c-1.1-.2-1.417-.653-1.3-1.231C877.7,815.389,878.082,815.679,878.9,815.825Z" transform="translate(-770.244 -702.565)" opacity="0.2"/><path d="M625.338,113.991s-1.624-3.433-4.047-4.57a3.446,3.446,0,0,0-3.269-.15,3.327,3.327,0,0,0-1.417,1.179h0a8.248,8.248,0,0,1-3.633.973c-2.793,0-8.113,3.371-8.113,3.371s-2.926.269-3.192,1.214c-.1.337-.462.4-.9.339h0c.115-.6.231-1.013.231-1.013l1.064-9.439s.665-2.158-1.331-6.608a4.6,4.6,0,0,0-5.058-2.776v-.055l-.258-.47a1.956,1.956,0,0,0,.478-.31.949.949,0,0,1,.4-.261.807.807,0,0,1,.407.055l1.2.38a1.768,1.768,0,0,0,.633.118c.51-.031.884-.482,1.194-.894a1.255,1.255,0,0,0,.361-1.064,3.929,3.929,0,0,0-.188-.383,1.374,1.374,0,0,1,.111-1.141c.176-.353.425-.663.6-1.016a2.747,2.747,0,0,0-.347-2.909,2.115,2.115,0,0,1-.619-.922,2.156,2.156,0,0,1,.167-.9,2.729,2.729,0,0,0-.514-2.42,2.951,2.951,0,0,0-1.265-.86,1.682,1.682,0,0,0,.1-.992,6.34,6.34,0,0,0-1.444-3.276,2.791,2.791,0,0,0-.261-.251,1.928,1.928,0,0,0-.782-.425,5.48,5.48,0,0,0-1.744.181,9.459,9.459,0,0,1-2.409-.336,2.373,2.373,0,0,0-2.251.588c-.4.5-.449,1.211-.833,1.723a2.661,2.661,0,0,1-1.743.861,5.946,5.946,0,0,0-1.918.485,2.362,2.362,0,0,0-1.173,2.175,7.744,7.744,0,0,1,.086.918,2.958,2.958,0,0,1-.894,1.672,1.733,1.733,0,0,0-.567,1.179c.033.523.5.9.734,1.363a2.771,2.771,0,0,1-.211,2.339,6.969,6.969,0,0,0-.85,2.267,4.956,4.956,0,0,0,.115,1.226,1.615,1.615,0,0,0,.445.992.689.689,0,0,0,.326.241,2.6,2.6,0,0,1,.312.094.657.657,0,0,1,.035.283v.21l-.2.018c-2.395.269-5.187,1.618-5.054,3.236s.531,5.526.531,5.526,1.2,7.147,3.059,9.845a20.98,20.98,0,0,1,2.814,5.845l1.109,3.667.064.21a4.527,4.527,0,0,0-1.194,2.012c-.531,2.427-5.719,3.641-5.719,3.641s-5.384,2.613-5.721,6.278l-.245.869-1.209,4.329s-3.059,2.692-2.125,4.72,3.857,2.562,3.724,4.585c-.018.283.1.415.32.425.54.861,4.854-2.618,6.2-3.734-.385,1.452-1.35,5.835.754,6.684a2.1,2.1,0,0,0,1.323.266c.007.34.023.7.051,1.075l-1.995,8.9s-.962,7.042-2.023,9.473h-.06a2.193,2.193,0,0,1-.312.51,3.362,3.362,0,0,0-.516.992h.05c-.017.042-.034.085-.05.129a47.19,47.19,0,0,0-1.6,7.565l-.038.261-.238-.054s-.047.863-1.353,1.173v.033a.987.987,0,0,0-.918,1.313l-1.056.043v.674l6.251-.142,3.99-5.394-.266,4.45h.931l.664-4.72s2.926-2.427.133-4.854h-.24a1.557,1.557,0,0,0-.159-.269,1.712,1.712,0,0,1-.221-.921,2.871,2.871,0,0,1,.013-.326,21.065,21.065,0,0,1,1.007-4.283l3.325-6.878s2-2.293,1.331-8.36c0,0,3.59-6.472,6.518-8.63a5.094,5.094,0,0,0,.473-.4l.458,4.45.241-.111.026.245s3.432-1.6,6.5-2.76l.548,3.7s1.33,3.911,1.064,6.472,0,9.71,0,9.71.8,6.472,0,8.092l-.008.018H604a7.234,7.234,0,0,0-.293.952h.034l-.034.133a74.025,74.025,0,0,0-1.176,7.528l-.016.142h-.31s-.8,2.427,0,3.1,4.921-.142,4.921-.142,1.671-1.957.333-2.919v-5.435s-.062-.837-.088-1.937c-.009-.333-.013-.69-.011-1.056a9.532,9.532,0,0,1,.5-3.751c.8-1.349,2.395-8.092,2.395-9.439s-.408-7.687-.408-7.687-1.2-5.526.4-8.765l1.134-5.3c.912-1.6,1.587-2.927,1.587-2.927s6.783-9.17,9.975-9.574S625.338,113.991,625.338,113.991Zm-47.112,71.031-.214-.048q.049-.117.106-.247a9.567,9.567,0,0,1,3.826-4.561Zm10.537-62.128s-.129.065-.34.184l-.174-.4-.1-.266-.027-.071-.074-.194-.026-.068-.086-.232-.028-.078-.058-.159-.033-.089-.061-.171-.035-.1-.052-.153-.03-.088-.041-.128-.025-.078-.055-.177-.021-.071-.033-.115-.02-.069q-.02-.071-.037-.142l-.013-.05-.03-.126L587.35,120q-.011-.052-.02-.1v-.037q-.011-.064-.017-.12V119.6a.811.811,0,0,1,0-.088,1.043,1.043,0,0,0,0-.111v-.017a.857.857,0,0,0-.007-.13v-.017a10.842,10.842,0,0,0-.4-1.73l.129.122S589.3,120.195,588.764,122.894Z" transform="translate(-505.421 -71.522)" fill="url(#a)"/><rect width="7.98" height="10.906" transform="translate(80.773 15.968)" fill="#ffcd50"/><rect width="7.98" height="10.906" transform="translate(80.773 15.968)" opacity="0.05"/><path d="M749.9,120.922a2.664,2.664,0,0,1,.514,2.387,1.316,1.316,0,0,0,.452,1.8,2.679,2.679,0,0,1,.347,2.869c-.174.349-.425.655-.6,1a1.334,1.334,0,0,0-.111,1.125,3.842,3.842,0,0,1,.188.377,1.237,1.237,0,0,1-.361,1.05,1.816,1.816,0,0,1-1.194.881,1.79,1.79,0,0,1-.633-.116l-1.2-.375a.818.818,0,0,0-.407-.054.951.951,0,0,0-.4.258,1.335,1.335,0,0,1-1.5.309,1.677,1.677,0,0,1-.529-1.5,2.81,2.81,0,0,1,.462-1.808c.259-.31.639-.5.9-.81a3.687,3.687,0,0,0,.405-2.515,1.723,1.723,0,0,1,.067-.584,2,2,0,0,1,.266-.472,8.68,8.68,0,0,0,1.22-2.259,3.819,3.819,0,0,0-.079-2.465A2.428,2.428,0,0,1,749.9,120.922Z" transform="translate(-655.993 -107.286)" fill="#ffcd50"/><path d="M687.829,162.264l-1.442,2.164-.153.23-.086.33-1.376,5.255v7.98l-3.325,4.251-3.457-5.985s-3.059-4.392.8-11.039a24.252,24.252,0,0,0,1.17-2.278c.074-.163.142-.324.208-.485a15.74,15.74,0,0,0,1.261-5,7.593,7.593,0,0,0-.247-2.873l7.049,1.729a22.708,22.708,0,0,0-.7,2.209C686.7,162.076,687.829,162.264,687.829,162.264Z" transform="translate(-597.945 -137.188)" fill="#ffd5d8"/><path d="M743.131,211.816s5.054-2.125,7.049,2.267,1.331,6.518,1.331,6.518l-1.064,9.309s-.8,2.793-.266,4.392,1.462,8.378,1.462,8.378l-5.054.665s-.266-6.251-1.064-7.98l.244-10.241a4.383,4.383,0,0,0-.336-1.79h0a29.922,29.922,0,0,1-2.3-11.509Z" transform="translate(-654.845 -185.675)" fill="#ffd5d8"/><path d="M640.391,215.717a5.464,5.464,0,0,0-3.925-1.036c-2.395.266-5.187,1.6-5.054,3.192s.531,5.452.531,5.452,1.2,7.049,3.059,9.709l1.862,2.66,3.59,11.7,4.392-.531s-4.123-8.643-3.99-9.975-2.793-8.778-2.793-8.778Z" transform="translate(-558.952 -188.541)" fill="#ffd5d8"/><path d="M644.838,246.895l-4.392.531-1.529-4.983-1.109-3.616a20.572,20.572,0,0,0-2.814-5.764h0c-1.862-2.66-3.059-9.709-3.059-9.709s-.4-3.857-.531-5.452,2.66-2.926,5.054-3.192a5.668,5.668,0,0,1,2.135.164,5.05,5.05,0,0,1,1.788.871l-2.329,12.4s1.818,4.629,2.523,7.24a5.581,5.581,0,0,1,.271,1.537,12.283,12.283,0,0,0,1.063,3.4C643.092,243.238,644.838,246.895,644.838,246.895Z" transform="translate(-558.944 -188.569)" fill="#ffd5d8"/><path d="M574.966,326.333l-1.6,5.585s-3.059,2.665-2.128,4.649,3.857,2.526,3.724,4.521,6.65-3.724,6.65-3.724-2.395,7.58,1.729,7.182,7.58-8.643,7.58-8.643l6.118-1.729.664,6.383s9.575-4.392,11.039-3.857,5.985-8.246,5.985-8.246,6.783-9.044,9.975-9.442,2.395-15.294,2.395-15.294-3.059-6.383-7.049-4.521-.4,6.92-.4,6.92l-12.1,9.842-12.635,2.526Z" transform="translate(-507.16 -260.825)" fill="#fff"/><path d="M622.825,318.129c-3.192.4-9.975,9.442-9.975,9.442s-4.521,8.779-5.984,8.241-11.039,3.857-11.039,3.857l-.664-6.383-6.118,1.729s-3.457,8.246-7.58,8.643-1.729-7.182-1.729-7.182-6.783,5.727-6.651,3.729-2.793-2.525-3.724-4.52,2.125-4.655,2.125-4.655l1.216-4.251.38-1.33,19.949-7.847,12.634-2.526,12.1-9.842s-2.491-3.505-1.019-5.754a3.315,3.315,0,0,1,1.417-1.162c3.99-1.862,7.049,4.521,7.049,4.521S626.017,317.731,622.825,318.129Z" transform="translate(-505.546 -260.07)" opacity="0.02"/><path d="M640.431,462.73s-.738,1.3-1.832,3.137c-.3.5-.625,1.039-.968,1.6l-.249.4c-2.232,3.619-5.145,8.024-6.793,9.221-2.926,2.125-6.518,8.511-6.518,8.511.665,5.985-1.33,8.246-1.33,8.246l-3.325,6.783a20.632,20.632,0,0,0-1.007,4.224,2.143,2.143,0,0,0,.208,1.362,1.629,1.629,0,0,1,.255.516,4.637,4.637,0,0,1-.255,2.543c-2.54.85-4.016,3.423-4.662,4.86a9.851,9.851,0,0,0-.392.992l-2.793-.664s.051-.385.142-1a46,46,0,0,1,1.6-7.461,3.3,3.3,0,0,1,.516-.979,2.159,2.159,0,0,0,.312-.5c1.085-2.267,2.083-9.472,2.083-9.472l1.995-8.778c-.4-5.32,1.462-6.65,1.462-6.65l4.6-9.635,1.117-2.335,13.567-4.218.357-.111Z" transform="translate(-541.239 -401.478)" fill="#ffd5d8"/><path d="M595.428,830.438s-2.267-.4-1.862,1.33h1.862Z" transform="translate(-526.431 -717.052)" fill="#ffd5d8"/><path d="M613.975,821.456a9.875,9.875,0,0,0-.392.992l-2.793-.665s.051-.385.142-1Z" transform="translate(-541.256 -708.796)" opacity="0.05"/><path d="M605.254,823.028l-3.591-.8s-.047.85-1.353,1.158l.157,1.635,3.724-.133Z" transform="translate(-532.261 -710.041)" fill="#4f4a55"/><path d="M586.39,780.459v.664l6.251-.133,3.99-5.32-.266,4.392h.931l.664-4.655s2.926-2.395.133-4.788h-.931l-.133,3.059L592.906,779l-3.192,1.331Z" transform="translate(-520.313 -665.743)" fill="#4f4a55"/><path d="M629.488,758.946l-6.358-.734a3.307,3.307,0,0,1,.516-.979,2.163,2.163,0,0,0,.312-.5l5.065.337a2.143,2.143,0,0,0,.208,1.362A1.63,1.63,0,0,1,629.488,758.946Z" transform="translate(-551.847 -653.821)" opacity="0.05"/><path d="M629.488,759.886l-6.358-.734a3.305,3.305,0,0,1,.516-.979,2.16,2.16,0,0,0,.312-.5l5.065.337a2.143,2.143,0,0,0,.208,1.362A1.63,1.63,0,0,1,629.488,759.886Z" transform="translate(-551.847 -654.628)" fill="#4f4a55"/><path d="M800.781,462.73s-.738,1.3-1.832,3.137c-.3.5-.625,1.039-.968,1.6l-.249.4-.017-.4-.041-.961-.084-1.916s.35-.449.932-1.159l.357-.111Z" transform="translate(-701.588 -401.478)" opacity="0.1"/><path d="M811.209,409.221a44.724,44.724,0,0,1-1.01,8.181l-2.267,10.373c-1.6,3.192-.4,8.643-.4,8.643s.4,6.251.4,7.58-1.6,7.98-2.395,9.309a9.385,9.385,0,0,0-.5,3.7c0,.36,0,.708.011,1.041.026,1.084.088,1.91.088,1.91v6.251l-4.921-.4s.021-.2.06-.531a71.482,71.482,0,0,1,1.176-7.423,7.046,7.046,0,0,1,.293-.939q.034-.081.068-.149c.8-1.6,0-7.98,0-7.98s-.266-7.049,0-9.575-1.064-6.383-1.064-6.383l-.8-5.32-.407-9.36-.041-.961-.084-1.916s.387-.5,1.023-1.275c.663-.81,1.6-1.923,2.637-3.085,1.068-1.192,2.244-2.433,3.355-3.446,2-1.828,3.78-2.916,4.289-1.642A9.587,9.587,0,0,1,811.209,409.221Z" transform="translate(-703.159 -352.16)" fill="#ffd5d8"/><path d="M810.011,828.8v.931l-4.921-.4s.021-.2.06-.531Z" transform="translate(-708.026 -715.68)" opacity="0.1"/><path d="M803.208,829.74h-2.125s-.8,2.395,0,3.059,4.921-.133,4.921-.133,1.729-1.995.266-2.926Z" transform="translate(-704.281 -716.487)" fill="#4f4a55"/><path d="M714.519,156.589a22.724,22.724,0,0,0-.7,2.209,5.726,5.726,0,0,1-6.107-1.064,7.593,7.593,0,0,0-.247-2.873Z" transform="translate(-624.237 -137.23)" opacity="0.1"/><circle cx="5.719" cy="5.719" r="5.719" transform="translate(81.637 10.316)" fill="#ffd5d8"/><path d="M745.619,203.977a7.887,7.887,0,0,0-1.879.443l1.251-1.7Z" transform="translate(-655.368 -178.309)" fill="#f0f0f2"/><path d="M843.618,406.783a.8.8,0,0,0-.917-.544.783.783,0,0,1,.65.544,9.643,9.643,0,0,1,.479,3.389,44.724,44.724,0,0,1-1.01,8.181l-2.267,10.373c-1.6,3.192-.4,8.643-.4,8.643s.4,6.251.4,7.58-1.6,7.98-2.395,9.309a9.38,9.38,0,0,0-.5,3.7c0,.36,0,.708.011,1.041.026,1.084.088,1.91.088,1.91v6.234l.266.021v-6.253s-.062-.826-.088-1.91c-.009-.329-.013-.682-.011-1.041a9.277,9.277,0,0,1,.5-3.7c.8-1.33,2.395-7.98,2.395-9.309s-.4-7.58-.4-7.58-1.2-5.452.4-8.643l2.267-10.373a44.248,44.248,0,0,0,1.01-8.181A9.655,9.655,0,0,0,843.618,406.783Z" transform="translate(-735.981 -352.979)" opacity="0.1"/><path d="M721.481,422.745a14.12,14.12,0,0,0-4.251,2.526,18.646,18.646,0,0,1-1.567,1.142c-.3.2-.635.412-1.009.639a32,32,0,0,1-8.861,3.671,8.248,8.248,0,0,1-5.243-.191l1.117-2.335,13.924-4.329c.663-.81,1.6-1.923,2.637-3.085,1.068-1.192,2.244-2.433,3.355-3.446l1.23-.578S724.007,421.811,721.481,422.745Z" transform="translate(-618.298 -362.022)" opacity="0.05"/><path d="M833.413,409.28a28.536,28.536,0,0,0-8.123,1.7c2.992-3.34,6.852-7.069,7.651-5.088A9.812,9.812,0,0,1,833.413,409.28Z" transform="translate(-725.363 -352.219)" opacity="0.05"/><path d="M675.534,424.844s1.729,5.719,8.778,3.99a30.3,30.3,0,0,0,11.437-5.452A14.122,14.122,0,0,1,700,420.855c2.526-.931,1.33-5.985,1.33-5.985l-6.783,3.192-4.521-3.192-3.857,1.33-10.64,3.059Z" transform="translate(-596.823 -360.4)" fill="#fff"/><path d="M677,424.844s1.729,5.719,8.778,3.99a30.294,30.294,0,0,0,11.437-5.452,14.122,14.122,0,0,1,4.251-2.526c2.526-.931,1.331-5.985,1.331-5.985l-6.783,3.192-4.521-3.192-3.857,1.33L677,419.258Z" transform="translate(-598.085 -360.4)" opacity="0.02"/><path d="M642.679,312.206s-.8,10.639-4.521,9.575-12.235,2.395-12.235,2.395a4.352,4.352,0,0,0-2.793-1.729c-2.128-.531-4.392,1.862-4.392,1.862a28.769,28.769,0,0,0-6.783-.133c-3.326.4-1.6,4.392-1.6,4.392a6.163,6.163,0,0,1-5.985,1.995c-3.59-.931-5.32.8-5.32.8H595.88l.38-1.33,19.949-7.847,12.635-2.526,12.112-9.846s-2.491-3.505-1.019-5.754a10.406,10.406,0,0,0,1.417-.9,21.412,21.412,0,0,0,3.99,3.99C646.938,308.081,642.679,312.206,642.679,312.206Z" transform="translate(-528.458 -264.518)" opacity="0.03"/><path d="M686.377,211.953l-.153.23-1.462,5.585v7.98L681.436,230l-3.457-5.985s-3.059-4.392.8-11.039a23.583,23.583,0,0,0,1.379-2.763l.084-.031s-.665,12.368-.531,14.363,2.66,3.192,2.66,3.192c-.665-2.793,1.6-13.565,1.6-13.565l2.395-3.249v.625a.312.312,0,0,0,0,.035C686.368,211.713,686.372,211.834,686.377,211.953Z" transform="translate(-597.937 -184.712)" opacity="0.1"/><path d="M686.137,215.646l-1.376,5.255v7.98l-3.326,4.251-3.457-5.985s-3.059-4.392.8-11.039a24.238,24.238,0,0,0,1.17-2.278c-.123,2.358-.622,12.1-.506,13.849.133,2,2.659,3.192,2.659,3.192-.664-2.793,1.6-13.565,1.6-13.565l2.395-3.249v.625a.312.312,0,0,0,0,.035c0,.283.018.567.033.85A.307.307,0,0,1,686.137,215.646Z" transform="translate(-597.937 -187.845)" opacity="0.1"/><path d="M668.005,229.5v-1.16a31.264,31.264,0,0,1,1.02-7.919l.444-1.693.133-2.526.273-.1a5.049,5.049,0,0,1,1.788.871l-2.329,12.4s1.818,4.629,2.523,7.24c-.159-.208-.262-.324-.262-.324C666.673,231.761,668.005,229.5,668.005,229.5Z" transform="translate(-590.223 -189.793)" opacity="0.1"/><path d="M690.381,402.237l-4.392.531-1.529-4.983a13.908,13.908,0,0,1,2.991-2.125C688.636,398.58,690.381,402.237,690.381,402.237Z" transform="translate(-604.488 -343.911)" fill="#f0f0f2"/><path d="M642.479,232.184s-.8,10.639-4.521,9.575-12.235,2.395-12.235,2.395a4.352,4.352,0,0,0-2.793-1.729c-2.128-.531-4.392,1.862-4.392,1.862a28.77,28.77,0,0,0-6.783-.133c-3.326.4-1.6,4.392-1.6,4.392a6.163,6.163,0,0,1-5.985,1.995c-3.59-.931-5.32.8-5.32.8h-3.188c-.4-3.99,5.719-6.916,5.719-6.916s5.187-1.2,5.719-3.59,4.521-4.392,4.521-4.392c.531-2.66-1.729-5.187-1.729-5.187-4.921-4.521-3.59-6.783-3.59-6.783v-1.16a31.264,31.264,0,0,1,1.02-7.919l.444-1.693.133-2.526,2.531-.931s-.665,12.368-.531,14.363,2.657,3.192,2.657,3.192c-.665-2.793,1.6-13.565,1.6-13.565l2.395-3.249v.625a.343.343,0,0,0,0,.035c0,.283.018.567.033.85v.1c0,.112.013.224.021.336,0,.067.008.132.013.2v.024q.016.214.035.425a.05.05,0,0,0,0,.013c.011.142.026.283.04.414l.016.152c.016.153.033.3.054.456s.037.3.058.446a.156.156,0,0,0,.01.067c.021.2.051.384.086.567v.02a7.142,7.142,0,0,0,.942,2.38l3.99,11.3a7.119,7.119,0,0,0,1.764.6h0c.434.06.8,0,.9-.334.266-.931,3.192-1.2,3.192-1.2s5.32-3.325,8.113-3.325a9.9,9.9,0,0,0,5.32-1.995,21.412,21.412,0,0,0,3.99,3.99C646.717,228.058,642.479,232.184,642.479,232.184Z" transform="translate(-528.259 -184.764)" fill="#fff"/><path d="M709.82,355.6s2.926-.266,5.054-.665,6.783-4.392,6.783-4.392" transform="translate(-626.254 -305.185)" opacity="0.02"/><path d="M807.733,837.375H803.21a2.476,2.476,0,0,1,.2-.2,2.878,2.878,0,0,1,4.109,0C807.584,837.236,807.658,837.3,807.733,837.375Z" transform="translate(-706.412 -722.126)" fill="#ffd5d8"/><path d="M817.408,769.973l-3.6-.194a7.065,7.065,0,0,1,.293-.939l3.293.092C817.395,769.288,817.4,769.645,817.408,769.973Z" transform="translate(-715.51 -664.215)" opacity="0.1"/><path d="M817.408,770.9l-3.6-.194a7.062,7.062,0,0,1,.293-.939l3.293.092C817.395,770.228,817.4,770.576,817.408,770.9Z" transform="translate(-715.51 -665.014)" fill="#4f4a55"/><path d="M675.326,86.427a1.939,1.939,0,0,0-.776-.415,5.517,5.517,0,0,0-1.744.179,9.579,9.579,0,0,1-2.409-.332,2.391,2.391,0,0,0-2.252.581c-.4.489-.449,1.194-.833,1.7a2.681,2.681,0,0,1-1.743.85,6.012,6.012,0,0,0-1.918.477,2.322,2.322,0,0,0-1.173,2.145,7.533,7.533,0,0,1,.086.905,2.9,2.9,0,0,1-.894,1.648,1.7,1.7,0,0,0-.567,1.163c.033.516.5.884.734,1.345a2.7,2.7,0,0,1-.211,2.308,6.831,6.831,0,0,0-.85,2.232,4.829,4.829,0,0,0,.115,1.209c.078.434.22.944.638,1.084.142.048.32.051.415.17a.509.509,0,0,1,.065.339,2.681,2.681,0,0,0,.874,2.3,2.21,2.21,0,0,0,.66.31,2.7,2.7,0,0,0,2.138-.21,2,2,0,0,0,.992-1.842c-.031-.32-.152-.626-.2-.945a1.018,1.018,0,0,1,.224-.9,2.949,2.949,0,0,1,.445-.283,1.763,1.763,0,0,0,.6-1.785,13.236,13.236,0,0,0-.65-1.88,10.587,10.587,0,0,1-.425-2.531,7.878,7.878,0,0,1,.02-2.074.906.906,0,0,1,.142-.38.881.881,0,0,1,.434-.273,18.791,18.791,0,0,1,2.369-.4,2.193,2.193,0,0,0,1.8-1.4c.142-.614-.1-1.376.354-1.816.394-.383,1.049-.232,1.546,0a7.212,7.212,0,0,1,1.461.907c.466.373,1.094.877,1.671.415a1.508,1.508,0,0,0,.448-1.445A5.9,5.9,0,0,0,675.326,86.427Z" transform="translate(-584.157 -77.962)" opacity="0.1"/><path d="M674.334,85.487a1.938,1.938,0,0,0-.785-.415,5.518,5.518,0,0,0-1.744.179,9.58,9.58,0,0,1-2.409-.332,2.391,2.391,0,0,0-2.251.581c-.4.489-.449,1.194-.833,1.7a2.681,2.681,0,0,1-1.743.85,6.011,6.011,0,0,0-1.918.477,2.322,2.322,0,0,0-1.173,2.145,7.52,7.52,0,0,1,.086.905,2.9,2.9,0,0,1-.894,1.648,1.7,1.7,0,0,0-.567,1.163c.033.516.5.884.734,1.345a2.7,2.7,0,0,1-.211,2.308,6.829,6.829,0,0,0-.85,2.232,4.823,4.823,0,0,0,.115,1.209c.078.434.22.944.638,1.084.142.048.32.051.415.17a.508.508,0,0,1,.065.339,2.681,2.681,0,0,0,.874,2.3,2.211,2.211,0,0,0,.66.31,2.7,2.7,0,0,0,2.138-.21,2,2,0,0,0,.992-1.842c-.031-.32-.152-.626-.2-.945a1.018,1.018,0,0,1,.224-.9,2.945,2.945,0,0,1,.445-.283,1.763,1.763,0,0,0,.6-1.785,13.252,13.252,0,0,0-.65-1.88,10.593,10.593,0,0,1-.425-2.531,7.875,7.875,0,0,1,.02-2.074.906.906,0,0,1,.142-.38.881.881,0,0,1,.434-.273,18.79,18.79,0,0,1,2.369-.4,2.236,2.236,0,0,0,1.808-1.413c.142-.614-.1-1.376.354-1.816.394-.383,1.048-.232,1.546,0a7.21,7.21,0,0,1,1.461.907c.466.373,1.094.877,1.671.415a1.508,1.508,0,0,0,.448-1.445A5.934,5.934,0,0,0,674.334,85.487Z" transform="translate(-583.299 -77.155)" fill="#ffcd50"/><path d="M743.21,220.16c0,.283.018.567.033.85Q743.219,220.583,743.21,220.16Z" transform="translate(-654.913 -193.278)" fill="#ffd5d8"/><path d="M759.7,289.3l-5.054.665s-.266-6.251-1.064-7.98l.244-10.24a4.392,4.392,0,0,0-.336-1.79,17.211,17.211,0,0,1-.972-4.327l3.99,11.3a7.119,7.119,0,0,0,1.764.6,7.565,7.565,0,0,0-.034,3.391C758.771,282.519,759.7,289.3,759.7,289.3Z" transform="translate(-662.904 -232.305)" fill="#ffd5d8"/><path d="M609.974,172.36l-3.724,5.054,3.724,3.724.664-7.58Z" transform="translate(-520.356 -147.948)" fill="#fff"/><path d="M747.37,422.2s3.457-2.66,6.052-1.529a7.927,7.927,0,0,0,5.254.2l-1.065,1.731-7.175.264Z" transform="translate(-658.484 -365.141)" opacity="0.05"/><path d="M747.37,423.143s3.457-2.66,6.052-1.529a7.927,7.927,0,0,0,5.254.2l-1.064,1.729-7.177.266Z" transform="translate(-658.484 -365.948)" fill="#fff"/><path d="M562.84,364.918l1.828,5.805,4.008-1.262-2.728-6.2Z" transform="translate(-483.097 -311.799)" fill="#ffd5d8"/><path d="M684.48,430.624s1.862-2.793,3.059-2.395a11.871,11.871,0,0,0,3.912-.04l-.588,2.035-3.059.4-2.793.931Z" transform="translate(-604.505 -371.832)" opacity="0.05"/><path d="M684.48,431.564s1.862-2.793,3.059-2.395a11.87,11.87,0,0,0,3.912-.04l-.588,2.035-3.059.4-2.793.931Z" transform="translate(-604.505 -372.639)" fill="#fff"/><path d="M859.3,346.967s3.826.818,6.217-1.709,1.6-4.788,2.926-6.118,2.659-2.526,2.395-3.59" transform="translate(-754.555 -292.318)" fill="none" stroke="#000" stroke-miterlimit="10" stroke-width="2" opacity="0.05"/><path d="M807.733,842.61H803.21a2.435,2.435,0,0,1,.2-.2h4.109C807.584,842.471,807.658,842.539,807.733,842.61Z" transform="translate(-706.412 -727.361)" opacity="0.1"/><path d="M394.926,274.218a6.237,6.237,0,0,0-2.586,3.048,6.194,6.194,0,0,0,3.977-.387,6.261,6.261,0,0,0,2.586-3.048A6.238,6.238,0,0,0,394.926,274.218Z" transform="translate(-353.758 -239.203)" fill="#6c63ff" opacity="0.5"/><path d="M494.93,450.9a6.239,6.239,0,0,0-1.53,3.692,5.319,5.319,0,0,0,5.2-5.277A6.226,6.226,0,0,0,494.93,450.9Z" transform="translate(-440.499 -389.968)" fill="#6c63ff" opacity="0.5"/><path d="M404.844,525.729a6.2,6.2,0,0,0-3.454,2.011,5.319,5.319,0,0,0,7.332-1.049A6.2,6.2,0,0,0,404.844,525.729Z" transform="translate(-361.526 -455.512)" fill="#6c63ff" opacity="0.5"/><path d="M535.29,87.644a6.239,6.239,0,0,0-1.53,3.692,5.319,5.319,0,0,0,5.2-5.277A6.278,6.278,0,0,0,535.29,87.644Z" transform="translate(-475.14 -78.179)" fill="#6c63ff" opacity="0.5"/><path d="M837.53,164.588a6.24,6.24,0,0,0-1.53,3.692A5.319,5.319,0,0,0,841.2,163,6.255,6.255,0,0,0,837.53,164.588Z" transform="translate(-734.556 -144.217)" fill="#6c63ff" opacity="0.5"/><path d="M312.83,448.084a6.239,6.239,0,0,0-1.53,3.692,5.321,5.321,0,0,0,5.2-5.277A6.242,6.242,0,0,0,312.83,448.084Z" transform="translate(-284.201 -387.548)" fill="#6c63ff" opacity="0.5"/><path d="M240.116,314.234a6.237,6.237,0,0,0-2.586,3.048,6.194,6.194,0,0,0,3.977-.387,6.261,6.261,0,0,0,2.586-3.048A6.227,6.227,0,0,0,240.116,314.234Z" transform="translate(-220.883 -273.549)" fill="#6c63ff" opacity="0.5"/><path d="M550.806,322.665a6.237,6.237,0,0,0-2.586,3.048,6.194,6.194,0,0,0,3.977-.387,6.261,6.261,0,0,0,2.586-3.048A6.26,6.26,0,0,0,550.806,322.665Z" transform="translate(-487.551 -280.786)" fill="#6c63ff" opacity="0.5"/><path d="M271.612,688.49s1.115,1.458-.514,3.658-2.976,4.058-2.429,5.43c0,0,2.458-4.086,4.458-4.144S273.813,690.948,271.612,688.49Z" transform="translate(-247.504 -595.25)" fill="#6c63ff"/><path d="M272,688.49a1.806,1.806,0,0,1,.228.458c1.952,2.293,2.991,4.433,1.115,4.487-1.747.05-3.844,3.175-4.346,3.967a1.709,1.709,0,0,0,.06.18s2.458-4.086,4.458-4.145S274.2,690.948,272,688.49Z" transform="translate(-247.894 -595.25)" opacity="0.1"/><path d="M303.248,699.61c0,.513-.058.928-.129.928s-.129-.415-.129-.928.072-.272.142-.272S303.248,699.1,303.248,699.61Z" transform="translate(-277.068 -604.513)" fill="#ffd037"/><path d="M304.508,703.8c-.451.245-.85.394-.877.332s.3-.312.754-.557.273-.067.307,0S304.957,703.551,304.508,703.8Z" transform="translate(-277.617 -608.087)" fill="#ffd037"/><path d="M233.492,688.49s-1.115,1.458.514,3.658,2.975,4.058,2.429,5.43c0,0-2.458-4.086-4.458-4.144S231.292,690.948,233.492,688.49Z" transform="translate(-215.271 -595.25)" fill="#6c63ff"/><path d="M233.492,688.49a1.8,1.8,0,0,0-.228.458c-1.952,2.293-2.991,4.433-1.115,4.487,1.747.05,3.844,3.175,4.346,3.967a1.705,1.705,0,0,1-.06.18s-2.458-4.086-4.458-4.145S231.292,690.948,233.492,688.49Z" transform="translate(-215.271 -595.25)" opacity="0.1"/><path d="M234,699.61c0,.513.058.928.129.928s.129-.415.129-.928-.072-.272-.142-.272S234,699.1,234,699.61Z" transform="translate(-217.853 -604.513)" fill="#ffd037"/><path d="M227.339,703.8c.451.245.85.394.877.332s-.3-.312-.754-.557-.273-.067-.307,0S226.888,703.551,227.339,703.8Z" transform="translate(-211.9 -608.087)" fill="#ffd037"/><path d="M236.52,741.075s3.117-.1,4.055-.765,4.793-1.468,5.026-.4,4.683,5.335,1.165,5.363-8.174-.548-9.112-1.119S236.52,741.075,236.52,741.075Z" transform="translate(-220.016 -638.938)" fill="#a8a8a8"/><path d="M246.829,755.084c-3.518.028-8.174-.548-9.112-1.119-.708-.435-.992-2-1.094-2.715h-.1s.2,2.514,1.134,3.085,5.594,1.148,9.112,1.119c1.016-.009,1.366-.37,1.347-.9C247.973,754.876,247.585,755.078,246.829,755.084Z" transform="translate(-220.016 -649.118)" opacity="0.2"/></g></svg>