<svg xmlns="http://www.w3.org/2000/svg" xmlns:xlink="http://www.w3.org/1999/xlink" width="164.724" height="141.717" viewBox="0 0 164.724 141.717"><defs><linearGradient id="a" x1="0.5" y1="1" x2="0.5" gradientUnits="objectBoundingBox"><stop offset="0" stop-color="gray" stop-opacity="0.251"/><stop offset="0.54" stop-color="gray" stop-opacity="0.122"/><stop offset="1" stop-color="gray" stop-opacity="0.102"/></linearGradient><linearGradient id="b" x1="0.5" y1="1" x2="0.5" y2="0" xlink:href="#a"/></defs><g transform="translate(0.044 0.008)"><path d="M261.779,106.743c-6.4,10.913-5.528,25.588-3.036,37.118.833,3.86,1.8,7.927.939,12.291a19.763,19.763,0,0,1-8.161,12.026c-6.483,4.478-13.785,4.51-19.014.084-4.518-3.825-7.409-10.6-12.028-14.212C212.751,148,201.915,152,192.449,158c-6.7,4.247-14.079,9.6-20.133,6.788-4.26-1.982-6.827-7.773-7.954-14.111-.545-3.059-.843-6.409-2.184-8.721a8.879,8.879,0,0,0-3.071-3.021c-10.586-6.746-25.206-.609-35.391-8.277-6.879-5.179-10.635-16.093-11.709-27.827s.245-24.341,1.832-36.766c1.128-8.825,2.607-18.282,7.039-25.535C125.566,32.856,132.791,29.321,139,29.9s11.525,4.722,16.081,9.812c5.692,6.365,10.778,14.538,18.268,16.472,5.1,1.317,10.736-.45,16.2-1.5,9.139-1.754,18.111-1.494,27.018-1.1,8.527.381,17.1.9,24.994,3.972,5.584,2.174,9.81,6.854,15.01,9.846,3.385,1.95,7.243,2.125,10.38,4.754a17.066,17.066,0,0,1,5.42,17.084C270.731,96.654,265.182,100.95,261.779,106.743Z" transform="translate(-111.66 -29.85)" fill="#6c63ff" opacity="0.1"/><path d="M195.191,370.866s-11.252-18.637-8.1-35.361a32.976,32.976,0,0,0-2.675-20.693,55.485,55.485,0,0,0-5.3-8.652" transform="translate(-167.78 -259.567)" fill="none" stroke="#535461" stroke-miterlimit="10" stroke-width="2"/><path d="M145.646,226.532c.649,2.476-1.948,10.831-1.948,10.831s-6.367-6-7.018-8.478a4.636,4.636,0,1,1,8.965-2.361Z" transform="translate(-132.37 -190.487)" fill="#6c63ff"/><path d="M211.579,283.4c-.8,2.432-7.522,8.033-7.522,8.033s-2.083-8.5-1.282-10.93a4.634,4.634,0,1,1,8.8,2.9Z" transform="translate(-187.294 -235.585)" fill="#6c63ff"/><path d="M238.429,412.877c-1.918,1.686-10.549,3.137-10.549,3.137s2.493-8.387,4.41-10.082a4.634,4.634,0,1,1,6.137,6.945Z" transform="translate(-208.316 -341.546)" fill="#6c63ff"/><path d="M244.186,527.078c-1.6,2-9.866,4.874-9.866,4.874s1.039-8.689,2.643-10.682a4.634,4.634,0,1,1,7.223,5.808Z" transform="translate(-213.67 -436.96)" fill="#6c63ff"/><path d="M144.089,335.512c2.228,1.258,10.962.874,10.962.874s-4.183-7.685-6.409-8.938a4.635,4.635,0,1,0-4.554,8.07Z" transform="translate(-136.61 -276.717)" fill="#6c63ff"/><path d="M142.578,463.559c2.5.535,10.729-2.449,10.729-2.449s-6.287-6.082-8.8-6.618a4.635,4.635,0,0,0-1.934,9.065Z" transform="translate(-134.35 -382.797)" fill="#6c63ff"/><path d="M168.74,590.979c2.376.95,10.989-.6,10.989-.6s-5.172-7.058-7.549-8.007a4.634,4.634,0,0,0-3.439,8.6Z" transform="translate(-156.855 -488.968)" fill="#6c63ff"/><path d="M145.646,226.532c.649,2.476-1.948,10.831-1.948,10.831s-6.367-6-7.018-8.478a4.636,4.636,0,1,1,8.965-2.361Z" transform="translate(-132.37 -190.487)" fill="#6c63ff"/><path d="M211.579,283.4c-.8,2.432-7.522,8.033-7.522,8.033s-2.083-8.5-1.282-10.93a4.634,4.634,0,1,1,8.8,2.9Z" transform="translate(-187.294 -235.585)" fill="#6c63ff"/><path d="M238.429,412.877c-1.918,1.686-10.549,3.137-10.549,3.137s2.493-8.387,4.41-10.082a4.634,4.634,0,1,1,6.137,6.945Z" transform="translate(-208.316 -341.546)" fill="#fc6681"/><path d="M244.186,527.078c-1.6,2-9.866,4.874-9.866,4.874s1.039-8.689,2.643-10.682a4.634,4.634,0,1,1,7.223,5.808Z" transform="translate(-213.67 -436.96)" fill="#fc6681"/><path d="M144.089,335.512c2.228,1.258,10.962.874,10.962.874s-4.183-7.685-6.409-8.938a4.635,4.635,0,1,0-4.554,8.07Z" transform="translate(-136.61 -276.717)" fill="#6c63ff"/><path d="M142.578,463.559c2.5.535,10.729-2.449,10.729-2.449s-6.287-6.082-8.8-6.618a4.635,4.635,0,0,0-1.934,9.065Z" transform="translate(-134.35 -382.797)" fill="#6c63ff"/><path d="M168.74,590.979c2.376.95,10.989-.6,10.989-.6s-5.172-7.058-7.549-8.007a4.634,4.634,0,0,0-3.439,8.6Z" transform="translate(-156.855 -488.968)" fill="#6c63ff"/><ellipse cx="81.036" cy="5.565" rx="81.036" ry="5.565" transform="translate(2.608 107.858)" fill="#6c63ff" opacity="0.1"/><path d="M845.844,323.446s-.135-.18-.322-.383l.054-.019s-2.408-6.019-1.872-8.561-2.14-8.694-2.14-8.694-3.948-8.085-2.079-14.538a17.329,17.329,0,0,0,.482-2.316c.558-3.822.361-4.609-.575-6.006l-.1-.15a1.182,1.182,0,0,0,.268-.4c.8-2.14-3.744-6.019-2.535-9.632,1.116-3.348-1.789-10.256-2.221-11.249h0l-.049-.113-.145.047a3.528,3.528,0,0,1,.955-2.316l.027-.027c.4-.369.889-.641,1.265-1.037l.022-.025c.037-.035.076-.071.111-.108a1.453,1.453,0,0,0,.425-1.474c-.184-.459-.7-.739-.821-1.218a6.249,6.249,0,0,1-.054-.649c-.1-.675-.754-1.1-1.349-1.432a5.092,5.092,0,0,0-2.373-.853c-1.157,0-2.192.776-3.341.872a4.727,4.727,0,0,0-1.169.116,2.6,2.6,0,0,0-.767.492,3.768,3.768,0,0,0-.374.337,1.2,1.2,0,0,0-.471.874.951.951,0,0,0,.327.649,4.28,4.28,0,0,0,1.55,6.372c.014.093.027.187.041.287a10.949,10.949,0,0,1-.182,4.461c-1.921.99-4.914,2.6-5.451,3.321a.506.506,0,0,0-.071.42.571.571,0,0,0-.01.2,1.839,1.839,0,0,1-1.658-.621c-1.606-1.471-6.687-5.886-6.687-5.886s-2.273-5.618-3.879-4.554,1.872,6.287,1.872,6.287l7.613,8.163s.268,1.739,3.076.8c.928-.309,1.766-.6,2.474-.858l.169.143c-.632,3.7-.96,8.631,1.373,10.078a2.257,2.257,0,0,1,.388.813c-.012.044-.024.089-.034.133a12.841,12.841,0,0,0-.337,2.25,7.154,7.154,0,0,0-.592,3.194l-.894,12.735a12.9,12.9,0,0,0,.8,4.948c.936,2.14,3.879,12.841,1.872,13.644l.191.025a6.25,6.25,0,0,1-2.28,1.666c-1.12.266-.806,1.983,1.676,2.27s2.781.263,4.527-1.192c1.538-1.282,1.783-1.855,1.818-1.978l.088.012s-.936-3.478,0-4.948-2.138-10.431-2.138-10.431a28.915,28.915,0,0,1,.126-3.43c.472,1.236.81,2.093.81,2.093s.8,3.879,1.739,4.554,5.886,9.9,5.083,13.91l-.093.467.226-.066h.02a6.266,6.266,0,0,1-1.491,2.415c-.936.675,0,2.14,2.408,1.471s2.675-.8,3.746-2.808S845.844,323.446,845.844,323.446Z" transform="translate(-692.469 -214.79)" fill="url(#a)"/><path d="M904.9,458.833l-.587-.724a7,7,0,0,0-.828,3.638l-.874,12.451a12.593,12.593,0,0,0,.784,4.839c.916,2.093,3.793,12.554,1.832,13.338l5.877.794s-.916-3.4,0-4.839-2.093-10.2-2.093-10.2-.261-7.323,2.223-9.024S904.9,458.833,904.9,458.833Z" transform="translate(-769.246 -385.891)" fill="#555388"/><path d="M905.775,658.11s-1.614,1.885-2.707,2.147-.788,1.938,1.639,2.219,2.719.258,4.427-1.165,1.784-1.958,1.784-1.958-.337-1.265-.745-1.292S905.775,658.11,905.775,658.11Z" transform="translate(-769.133 -552.115)" fill="#603556"/><path d="M905.3,459.226l-.978-1.116a7,7,0,0,0-.828,3.638l-.874,12.451a12.593,12.593,0,0,0,.784,4.839c.916,2.093,3.793,12.554,1.832,13.339l5.876.794s-.916-3.4,0-4.839-2.093-10.2-2.093-10.2-.261-7.323,2.223-9.024S905.3,459.226,905.3,459.226Z" transform="translate(-769.254 -385.891)" opacity="0.1"/><path d="M337.464,279.329s-1.634-32.079-8.343-43.432c0,0-4.92-8.986-9.031-11.606v-1.036c-6.709-4.645-14.964,0-14.964,0v.459l-1.72,1.434-7.746-.027a3.732,3.732,0,0,0-2.875-1.349H257.438a3.73,3.73,0,0,0-2.749,1.2h-8.045a5.142,5.142,0,0,0-1.72-1.106v-.614c-6.709-4.645-14.964,0-14.964,0V224.5a2.209,2.209,0,0,0-.516.474s-6.795,4.554-8.343,10.234c0,0-8.343,25.028-8.515,44.636s7.4,22.361,11.352,22.877,11.008-.169,17.889-17.54l2.924-10.148s.516-6.021,6.709-2.236,11.7-2.064,11.7-2.064h23.223s7.733,4.81,14.792,1.019c0,0,2.752-3.612,5.333,8.6,0,0,7.913,25.114,20.125,22.533S337.464,279.329,337.464,279.329Z" transform="translate(-195.599 -188.927)" fill="url(#b)"/><path d="M320.84,229.809v-1.855s8.1-4.554,14.672,0v1.686Z" transform="translate(-285.599 -192.868)" fill="#535461"/><path d="M757.84,229.809v-1.855s8.1-4.554,14.673,0v1.686Z" transform="translate(-648.899 -192.868)" fill="#535461"/><path d="M320.84,229.809v-1.855s8.1-4.554,14.672,0v1.686Z" transform="translate(-285.599 -192.868)" opacity="0.1"/><path d="M757.84,229.809v-1.855s8.1-4.554,14.673,0v1.686Z" transform="translate(-648.899 -192.868)" opacity="0.1"/><path d="M261.145,237.08h-7.927s-2.024-2.361-8.77-2.192-8.1,2.192-8.1,2.192-6.662,4.469-8.179,10.035c0,0-8.179,24.538-8.348,43.765s7.252,21.924,11.131,22.43,10.794-.169,17.54-17.2l2.867-9.95s.506-5.9,6.577-2.192,11.468-2.024,11.468-2.024h22.768s7.589,4.722,14.5,1.012c0,0,2.7-3.542,5.228,8.432,0,0,7.758,24.623,19.732,22.093s10.625-23.1,10.625-23.1-1.6-31.453-8.18-42.584c0,0-6.324-11.552-10.541-12.058,0,0-9.107-1.686-12.649-.169l-2.024,1.687Z" transform="translate(-201.618 -200.307)" fill="#535461"/><circle cx="14.673" cy="14.673" r="14.673" transform="translate(26.472 38.628)" fill="#e2e2ec"/><circle cx="14.673" cy="14.673" r="14.673" transform="translate(103.039 38.628)" fill="#e2e2ec"/><path d="M344.272,295.271,342.316,297a.907.907,0,0,1-1.2,0l-1.96-1.73a.906.906,0,0,1-.307-.675v-4.761a.907.907,0,0,1,.907-.906h3.921a.906.906,0,0,1,.907.907v4.756A.906.906,0,0,1,344.272,295.271Z" transform="translate(-300.571 -245.243)" fill="#535461"/><path d="M344.272,355.683l-1.956-1.729a.907.907,0,0,0-1.2,0l-1.96,1.73a.906.906,0,0,0-.307.675v4.756a.906.906,0,0,0,.907.907h3.921a.906.906,0,0,0,.907-.906v-4.756A.906.906,0,0,0,344.272,355.683Z" transform="translate(-300.571 -299.113)" fill="#535461"/><path d="M305.216,334.365l1.73-1.96a.907.907,0,0,0,0-1.2l-1.73-1.96a.907.907,0,0,0-.675-.307h-4.756a.907.907,0,0,0-.906.907v3.921a.906.906,0,0,0,.907.907h4.756A.906.906,0,0,0,305.216,334.365Z" transform="translate(-267.342 -278.505)" fill="#535461"/><path d="M365.609,334.357l-1.727-1.961a.906.906,0,0,1,0-1.2l1.73-1.96a.906.906,0,0,1,.675-.307h4.756a.906.906,0,0,1,.907.907v3.921a.906.906,0,0,1-.906.907h-4.756A.906.906,0,0,1,365.609,334.357Z" transform="translate(-321.193 -278.497)" fill="#535461"/><path d="M229.18,241.272h5.059l-2.53-2.192Z" transform="translate(-190.566 -198.766)" fill="none" stroke="#535461" stroke-miterlimit="10" stroke-width="2"/><path d="M229.18,380.08h5.059l-2.53,2.192Z" transform="translate(-190.566 -315.986)" fill="none" stroke="#535461" stroke-miterlimit="10" stroke-width="2"/><path d="M169.372,301.08v5.059l-2.192-2.53Z" transform="translate(-139.022 -250.309)" fill="none" stroke="#535461" stroke-miterlimit="10" stroke-width="2"/><path d="M308.18,301.08v5.059l2.192-2.53Z" transform="translate(-256.242 -250.309)" fill="none" stroke="#535461" stroke-miterlimit="10" stroke-width="2"/><circle cx="10.625" cy="10.625" r="10.625" transform="translate(50.42 58.697)" fill="#e2e2ec"/><circle cx="7.083" cy="7.083" r="7.083" transform="translate(53.624 60.552)" fill="#535461"/><circle cx="10.625" cy="10.625" r="10.625" transform="translate(87.185 58.697)" fill="#e2e2ec"/><circle cx="7.083" cy="7.083" r="7.083" transform="translate(90.39 60.552)" fill="#535461"/><circle cx="4.722" cy="4.722" r="4.722" transform="translate(55.985 62.913)" fill="none" stroke="#000" stroke-miterlimit="10" stroke-width="2" opacity="0.1"/><circle cx="4.722" cy="4.722" r="4.722" transform="translate(92.751 62.913)" fill="none" stroke="#000" stroke-miterlimit="10" stroke-width="2" opacity="0.1"/><circle cx="3.036" cy="3.036" r="3.036" transform="translate(76.729 67.467)" fill="#e2e2ec"/><circle cx="0.663" cy="0.663" r="0.663" transform="translate(74.463 59.707)" fill="#e2e2ec"/><circle cx="0.663" cy="0.663" r="0.663" transform="translate(76.945 59.707)" fill="#e2e2ec"/><circle cx="0.663" cy="0.663" r="0.663" transform="translate(76.615 62.853)" fill="#e2e2ec"/><circle cx="0.675" cy="0.675" r="0.675" transform="translate(78.922 62.913)" fill="#e2e2ec"/><circle cx="0.663" cy="0.663" r="0.663" transform="translate(81.249 62.853)" fill="#e2e2ec"/><circle cx="0.663" cy="0.663" r="0.663" transform="translate(75.621 61.363)" fill="#e2e2ec"/><circle cx="0.675" cy="0.675" r="0.675" transform="translate(77.741 61.396)" fill="#e2e2ec"/><circle cx="0.675" cy="0.675" r="0.675" transform="translate(79.934 61.396)" fill="#e2e2ec"/><circle cx="0.663" cy="0.663" r="0.663" transform="translate(82.242 61.363)" fill="#e2e2ec"/><circle cx="0.675" cy="0.675" r="0.675" transform="translate(78.922 59.709)" fill="#e2e2ec"/><circle cx="0.675" cy="0.675" r="0.675" transform="translate(81.283 59.709)" fill="#e2e2ec"/><circle cx="0.663" cy="0.663" r="0.663" transform="translate(83.236 59.707)" fill="#e2e2ec"/><rect width="3.71" height="6.409" rx="1.855" transform="translate(53.118 37.953)" fill="#e2e2ec"/><rect width="3.71" height="6.409" rx="1.855" transform="translate(102.364 37.953)" fill="#e2e2ec"/><circle cx="4.048" cy="4.048" r="4.048" transform="translate(113.832 40.314)" fill="#535461"/><circle cx="4.048" cy="4.048" r="4.048" transform="translate(105.231 48.915)" fill="#535461"/><circle cx="4.048" cy="4.048" r="4.048" transform="translate(122.771 48.41)" fill="#535461"/><circle cx="4.048" cy="4.048" r="4.048" transform="translate(114.507 57.348)" fill="#535461"/><rect width="41.994" height="22.43" rx="11.215" transform="translate(58.515 35.592)" fill="#e2e2ec"/><path d="M684.68,253.128l2.361-4.048,2.53,4.048Z" transform="translate(-569.246 -207.079)" fill="none" stroke="#e2e2ec" stroke-miterlimit="10" stroke-width="2"/><rect width="4.216" height="3.71" transform="translate(107.17 51.108)" fill="none" stroke="#e2e2ec" stroke-miterlimit="10" stroke-width="2"/><circle cx="2.361" cy="2.361" r="2.361" transform="translate(124.457 50.096)" fill="none" stroke="#e2e2ec" stroke-miterlimit="10" stroke-width="2"/><line x2="3.795" y2="3.795" transform="translate(116.615 59.498)" fill="none" stroke="#e2e2ec" stroke-miterlimit="10" stroke-width="2"/><line x1="3.879" y2="3.71" transform="translate(116.615 59.498)" fill="none" stroke="#e2e2ec" stroke-miterlimit="10" stroke-width="2"/><path d="M401.467,672.484a2.878,2.878,0,0,0,1.133-1.395,1.181,1.181,0,0,0-.791-1.42,2.538,2.538,0,0,0-2.093.6,3.085,3.085,0,0,1-2.034.8,2.263,2.263,0,0,0,.958-2.361.916.916,0,0,0-.266-.481,1.513,1.513,0,0,0-1.617.076,4.5,4.5,0,0,0-1.973,4.117,6.412,6.412,0,0,1-.029-1.7,1.616,1.616,0,0,0-.781-1.5,2.791,2.791,0,0,0-1.191-.228,2.86,2.86,0,0,0-1.931.449,1.348,1.348,0,0,0,.076,1.934,7.438,7.438,0,0,0,2,1.307,4.163,4.163,0,0,1,1.428,1.111,1.013,1.013,0,0,1,.106.2h4.329a12.448,12.448,0,0,0,2.677-1.511Z" transform="translate(-343.49 -560.401)" fill="#6c63ff"/><path d="M977.836,666.063s-.784,2.361-1.7,3.009,0,2.093,2.361,1.439,2.616-.784,3.661-2.746.916-2.484.916-2.484-.784-1.046-1.181-.916S977.836,666.063,977.836,666.063Z" transform="translate(-830.089 -557.351)" fill="#603556"/><path d="M917.418,300.566s-10.593,5.884-8.109,4.184c1.67-1.142,1.568-4.172,1.322-6.039-.078-.582-.169-1.051-.224-1.314-.032-.148-.052-.231-.052-.231s5.137-3.083,4.849-1.229h0a.107.107,0,0,1-.008.051,2,2,0,0,0-.039.376C915.121,298.269,917.418,300.566,917.418,300.566Z" transform="translate(-774.509 -250.574)" fill="#c87486"/><path d="M825.773,309.5s-.916,1.439-2.484,0-6.539-5.754-6.539-5.754-2.223-5.493-3.795-4.446,1.832,6.147,1.832,6.147l7.454,7.977s.261,1.7,3.009.784,4.709-1.7,4.709-1.7Z" transform="translate(-694.375 -253.75)" fill="#c87486"/><path d="M915.83,439.53" transform="translate(-780.244 -370.444)" fill="none"/><path d="M932.453,470.887l-5.228,1.832-.221.064.091-.457c.784-3.923-4.048-12.947-4.97-13.6s-1.7-4.451-1.7-4.451-1.714-8.631-1.975-10.456a3.8,3.8,0,0,0-.6-1.324,10.476,10.476,0,0,1-1.012-2.422c-.575-2.024-1.916-5.616-1.423-7.648.1-.413-.307.643-.169.239l.079-.223L925.914,431a7.912,7.912,0,0,1,.492.666c.8,1.189.749,1.189.917,3.449a23.312,23.312,0,0,1-.575,4.048c-1.425,6.346,1.789,14.841,1.789,14.841s2.616,6.016,2.093,8.5S932.453,470.887,932.453,470.887Z" transform="translate(-779.735 -363.353)" fill="#555388"/><path d="M924.745,431.664c-1.567,1.965-11.6,3.491-11.478,2.867a1.326,1.326,0,0,0-.047-.644,12.745,12.745,0,0,1,.361-1.226l.079-.223L924.253,431A7.91,7.91,0,0,1,924.745,431.664Z" transform="translate(-778.074 -363.353)" opacity="0.1"/><path d="M917.652,310s-4.317,1.312-5.5,4.321.9,3.172.9,3.172-3.71,9.782-2.727,14.875a1.853,1.853,0,0,1,.393,1.307c-.13.653,10.854-1.046,11.637-3.139s-3.661-5.884-2.484-9.416S917.652,310,917.652,310Z" transform="translate(-775.527 -262.759)" fill="#dfe5ee"/><path d="M922.46,297.548a.416.416,0,0,1-.039.113c-.179.337-.747-.032-.55.474-.759.762-1,2.289-2.157,2.289a4.159,4.159,0,0,1-1.82-.413c-.078-.582-.169-1.051-.224-1.314.506-.3,4.554-2.644,4.8-1.461h0A.779.779,0,0,1,922.46,297.548Z" transform="translate(-781.774 -251.872)" opacity="0.1"/><circle cx="4.184" cy="4.184" r="4.184" transform="translate(133.755 39.923)" fill="#c87486"/><path d="M897.455,343.483l-7.323,3.4s-4.97-3.791-4.186-4.835S892.878,338,892.878,338,899.155,339.3,897.455,343.483Z" transform="translate(-755.33 -286.037)" opacity="0.1"/><path d="M897.462,341.956l-7.323,3.4s-4.97-3.793-4.184-4.839,6.932-4.048,6.932-4.048S899.162,337.765,897.462,341.956Z" transform="translate(-755.337 -284.765)" fill="#dfe5ee"/><path d="M910.381,261.918a4.546,4.546,0,0,1-1.855-.457,1.118,1.118,0,0,1-.627-.865c-.012-.439.358-.781.7-1.059a2.544,2.544,0,0,1,.751-.481,4.59,4.59,0,0,1,1.142-.113c1.127-.094,2.135-.86,3.267-.853a4.875,4.875,0,0,1,2.319.835c.578.327,1.221.742,1.317,1.4a6.142,6.142,0,0,0,.052.634c.12.469.624.742.8,1.191a1.424,1.424,0,0,1-.417,1.442c-.364.383-.843.646-1.226,1a3.437,3.437,0,0,0-1.1,2.587.337.337,0,0,1-.029.187.327.327,0,0,1-.236.118c-.417.078-.931.12-1.181-.224s-.052-.917-.337-1.256c-.363-.437-1.125-.089-1.616-.376a.982.982,0,0,1-.371-.444c-.4-.872.059-1.557.228-2.39C912.16,261.824,911.068,261.987,910.381,261.918Z" transform="translate(-773.65 -219.604)" opacity="0.1"/><path d="M911.161,261.128a4.546,4.546,0,0,1-1.855-.457,1.118,1.118,0,0,1-.627-.865c-.012-.439.358-.781.7-1.059a2.545,2.545,0,0,1,.75-.481,4.591,4.591,0,0,1,1.142-.113c1.127-.094,2.135-.86,3.267-.853a4.875,4.875,0,0,1,2.319.835c.578.327,1.221.742,1.317,1.4a6.125,6.125,0,0,0,.052.634c.12.469.624.742.8,1.191a1.425,1.425,0,0,1-.417,1.442c-.364.383-.843.646-1.226,1a3.437,3.437,0,0,0-1.1,2.594.337.337,0,0,1-.029.187.328.328,0,0,1-.236.118c-.417.078-.931.12-1.181-.224s-.052-.917-.337-1.256c-.363-.437-1.125-.089-1.616-.376a.981.981,0,0,1-.371-.444c-.408-.874.057-1.563.226-2.4C912.939,261.035,911.846,261.2,911.161,261.128Z" transform="translate(-774.298 -218.947)" fill="#603456"/></g></svg>