<svg xmlns="http://www.w3.org/2000/svg" xmlns:xlink="http://www.w3.org/1999/xlink" width="164.668" height="122.634" viewBox="0 0 164.668 122.634"><defs><linearGradient id="a" x1="0.5" y1="1" x2="0.5" gradientUnits="objectBoundingBox"><stop offset="0" stop-color="gray" stop-opacity="0.251"/><stop offset="0.54" stop-color="gray" stop-opacity="0.122"/><stop offset="1" stop-color="gray" stop-opacity="0.102"/></linearGradient><linearGradient id="b" x1="0.5" y1="1" x2="0.5" y2="0" xlink:href="#a"/><linearGradient id="c" x1="0.5" y1="1" x2="0.5" y2="0" xlink:href="#a"/></defs><g transform="translate(0.015 0.006)"><ellipse cx="70.898" cy="4.326" rx="70.898" ry="4.326" transform="matrix(0.998, -0.055, 0.055, 0.998, 4.084, 113.989)" fill="#6c63ff" opacity="0.1"/><path d="M67.34,437.14c2.606,10.706,8.122,19.959,16.839,24.442,18.116,9.323,58.972,4.514,89.465-1.005a70.493,70.493,0,0,0,39.706-21.816Z" transform="translate(-65.575 -375.109)" fill="#6c63ff" opacity="0.1"/><path d="M251.439,30.35H234.707a1.391,1.391,0,1,1,0-2.78H237.6a1.391,1.391,0,1,1,0-2.78h-2.065a1.391,1.391,0,1,1,0-2.78h8.733a23.73,23.73,0,0,0-6.82-1.8c-23.8-2.941-32.3-1-35.3,1.005a34.1,34.1,0,0,1-12.237,5.156c-14.693,2.913-42.167,6.418-67.067-1.122-12.375-3.748-21.576,2.586-27.09,13.17h158.6a24.013,24.013,0,0,0-1.966-8.4A1.483,1.483,0,0,1,251.439,30.35Z" transform="translate(-89.773 -18.71)" fill="#6c63ff" opacity="0.1"/><path d="M157.382,292.148l-.218-.013-2.277-.129-21.818-1.226-2.357-.133L95.968,288.7l-9.738-.55-1.54-.086-1.368-.077L55.7,286.43a68.031,68.031,0,0,0,.649,18.681l23.246.817,1.843.067.326.01,11.035.384.593.019,1.272.044,11.12.391,1.524.055,5.311.187h.1l.781.028,2.661.093h0l2.335.082,4.448.156h.093l.4.015.421.015h.092l7.09.249,1.987.071h.083l.956.033h0l.178.007h.071l.841.03,2.566.09h0l.964.034,1.238.043h.046l1.7.061,4.913.173,1.352.046h.148l6.55.23,3.8.133,4.734.168.759.027,1.226.043,4.457.156,33.618,1.186a66.206,66.206,0,0,0,10.2-14.962ZM94.172,302.527a1.474,1.474,0,0,1-.964-.356h0a1.406,1.406,0,0,1-.305-.369,1.351,1.351,0,0,1-.176-.664,1.326,1.326,0,0,1,.239-.759h0a1.542,1.542,0,0,1,.16-.191,1.466,1.466,0,0,1,1.047-.433h2.891a1.392,1.392,0,1,1,0-2.781H95q-.067,0-.135,0A1.388,1.388,0,0,1,95,294.2h16.73a1.391,1.391,0,1,1,0,2.778h2.065a1.392,1.392,0,1,1,0,2.781H110.9a1.391,1.391,0,1,1,0,2.778Z" transform="translate(-55.35 -246.743)" fill="#6c63ff" opacity="0.1"/><path d="M222.13,152.32l-115.4,2.7-12.684.3-32.287.755a59.29,59.29,0,0,0-3.84,15.923h161.4a63.819,63.819,0,0,0,2.329-10.148A46.21,46.21,0,0,0,222.13,152.32ZM90.475,164.606H87.584A1.422,1.422,0,0,1,89.029,166v.085a1.382,1.382,0,0,1-.642,1.072,1.483,1.483,0,0,1-.8.234H70.857a1.391,1.391,0,1,1,0-2.78H73.75a1.391,1.391,0,1,1,0-2.78H71.684a1.391,1.391,0,1,1,0-2.78h16.73a1.391,1.391,0,1,1,0,2.78h2.065a1.465,1.465,0,0,1,.686.169,1.383,1.383,0,0,1,.759,1.22,1.423,1.423,0,0,1-1.446,1.391Z" transform="translate(-57.552 -132.516)" fill="#6c63ff" opacity="0.1"/><g transform="translate(86.497 53.874)" opacity="0.1"><path d="M645.86,448.988s4.233-10.027,12.137-13.747a16.777,16.777,0,0,0,7.742-7.225,27.037,27.037,0,0,0,1.936-4.687" transform="translate(-644.821 -417.22)" fill="none" stroke="#535461" stroke-miterlimit="10" stroke-width="2"/><path d="M797.288,385.858c-.823,1-5.088,2.449-5.088,2.449s.514-4.322,1.334-5.317a2.464,2.464,0,0,1,3.368-.369,2.243,2.243,0,0,1,.385,3.237Z" transform="translate(-769.464 -382.12)" fill="#6c63ff"/><path d="M784.156,434.733c-1.254.4-5.656-.6-5.656-.6s2.875-3.358,4.129-3.764a2.419,2.419,0,0,1,3.035,1.45,2.283,2.283,0,0,1-1.508,2.918Z" transform="translate(-757.795 -423.11)" fill="#6c63ff"/><path d="M736.906,497.328c-1.3-.258-4.566-3.262-4.566-3.262s4.249-1.508,5.542-1.244a2.305,2.305,0,0,1,1.858,2.724A2.4,2.4,0,0,1,736.906,497.328Z" transform="translate(-718.479 -476.383)" fill="#6c63ff"/><path d="M682.355,535.741c-1.323-.044-5.075-2.476-5.075-2.476s3.92-2.174,5.242-2.129a2.306,2.306,0,1,1-.168,4.6Z" transform="translate(-671.582 -509.042)" fill="#6c63ff"/><path d="M750.756,422.521c.169,1.262,3.035,4.627,3.035,4.627s1.887-3.954,1.718-5.216a2.381,2.381,0,0,0-2.684-1.991A2.322,2.322,0,0,0,750.756,422.521Z" transform="translate(-734.147 -414.318)" fill="#6c63ff"/><path d="M689.857,464.807c.554,1.155,4.337,3.542,4.337,3.542s.571-4.316.016-5.471a2.439,2.439,0,0,0-3.179-1.121,2.268,2.268,0,0,0-1.174,3.05Z" transform="translate(-682.113 -449.766)" fill="#6c63ff"/><path d="M638.927,519.384c.342,1.229,3.652,4.2,3.652,4.2s1.321-4.16.977-5.389a2.411,2.411,0,0,0-2.936-1.631,2.3,2.3,0,0,0-1.693,2.824Z" transform="translate(-638.85 -496.561)" fill="#6c63ff"/><path d="M797.288,385.858c-.823,1-5.088,2.449-5.088,2.449s.514-4.322,1.334-5.317a2.464,2.464,0,0,1,3.368-.369,2.243,2.243,0,0,1,.385,3.237Z" transform="translate(-769.464 -382.12)" opacity="0.25"/><path d="M784.156,434.733c-1.254.4-5.656-.6-5.656-.6s2.875-3.358,4.129-3.764a2.419,2.419,0,0,1,3.035,1.45,2.283,2.283,0,0,1-1.508,2.918Z" transform="translate(-757.795 -423.11)" opacity="0.25"/><path d="M736.906,497.328c-1.3-.258-4.566-3.262-4.566-3.262s4.249-1.508,5.542-1.244a2.305,2.305,0,0,1,1.858,2.724A2.4,2.4,0,0,1,736.906,497.328Z" transform="translate(-718.479 -476.383)" opacity="0.25"/><path d="M682.355,535.741c-1.323-.044-5.075-2.476-5.075-2.476s3.92-2.174,5.242-2.129a2.306,2.306,0,1,1-.168,4.6Z" transform="translate(-671.582 -509.042)" opacity="0.25"/><path d="M750.756,422.521c.169,1.262,3.035,4.627,3.035,4.627s1.887-3.954,1.718-5.216a2.381,2.381,0,0,0-2.684-1.991A2.322,2.322,0,0,0,750.756,422.521Z" transform="translate(-734.147 -414.318)" opacity="0.25"/><path d="M689.857,464.807c.554,1.155,4.337,3.542,4.337,3.542s.571-4.316.016-5.471a2.439,2.439,0,0,0-3.179-1.121,2.268,2.268,0,0,0-1.174,3.05Z" transform="translate(-682.113 -449.766)" opacity="0.25"/><path d="M638.927,519.384c.342,1.229,3.652,4.2,3.652,4.2s1.321-4.16.977-5.389a2.411,2.411,0,0,0-2.936-1.631,2.3,2.3,0,0,0-1.693,2.824Z" transform="translate(-638.85 -496.561)" opacity="0.25"/></g><g transform="translate(86.298 32.418)" opacity="0.1"><path d="M667.23,314.973s.534-10.81,6.707-16.838a16.173,16.173,0,0,0,4.811-9.284,26.6,26.6,0,0,0,.213-5.041" transform="translate(-662.824 -276.929)" fill="none" stroke="#535461" stroke-miterlimit="10" stroke-width="2"/><path d="M745.814,240.454c-.434,1.2-3.957,3.932-3.957,3.932s-1-4.228-.572-5.437a2.413,2.413,0,0,1,3.05-1.42,2.283,2.283,0,0,1,1.48,2.925Z" transform="translate(-725.807 -237.399)" fill="#6c63ff"/><path d="M749.633,287.688c-1.038.783-5.543,1.235-5.543,1.235s1.552-4.086,2.6-4.867a2.461,2.461,0,0,1,3.364.4,2.243,2.243,0,0,1-.417,3.232Z" transform="translate(-728.288 -276.723)" fill="#6c63ff"/><path d="M721.465,361.355c-1.312.169-5.435-1.631-5.435-1.631s3.487-2.774,4.8-2.941a2.382,2.382,0,0,1,2.694,1.976A2.331,2.331,0,0,1,721.465,361.355Z" transform="translate(-704.388 -339.066)" fill="#6c63ff"/><path d="M684.951,414.941c-1.263.38-5.641-.719-5.641-.719s2.949-3.3,4.212-3.678a2.416,2.416,0,0,1,3,1.511,2.289,2.289,0,0,1-1.573,2.887Z" transform="translate(-673.113 -384.783)" fill="#6c63ff"/><path d="M710.01,291.369c.593,1.136,4.46,3.4,4.46,3.4s.417-4.331-.178-5.468a2.442,2.442,0,0,0-3.217-1.022,2.261,2.261,0,0,0-1.065,3.093Z" transform="translate(-699.046 -280.52)" fill="#6c63ff"/><path d="M667.114,350.694c.921.913,5.312,1.959,5.312,1.959s-.95-4.252-1.871-5.165a2.466,2.466,0,0,0-3.389-.05,2.24,2.24,0,0,0-.052,3.257Z" transform="translate(-662.148 -330.569)" fill="#6c63ff"/><path d="M637.921,418.455c.741,1.05,4.893,2.795,4.893,2.795s-.191-4.345-.933-5.4a2.46,2.46,0,0,0-3.331-.593,2.249,2.249,0,0,0-.629,3.2Z" transform="translate(-637.509 -388.545)" fill="#6c63ff"/></g><ellipse cx="2.676" cy="0.368" rx="2.676" ry="0.368" transform="translate(56.698 101.572)" fill="#6c63ff" opacity="0.1"/><ellipse cx="2.676" cy="0.368" rx="2.676" ry="0.368" transform="translate(46.447 102.611)" fill="#6c63ff" opacity="0.1"/><ellipse cx="2.676" cy="0.368" rx="2.676" ry="0.368" transform="translate(34.373 101.204)" fill="#6c63ff" opacity="0.1"/><ellipse cx="1.902" cy="0.261" rx="1.902" ry="0.261" transform="translate(51.324 105.677)" fill="#6c63ff" opacity="0.1"/><ellipse cx="1.902" cy="0.261" rx="1.902" ry="0.261" transform="translate(40.685 105.416)" fill="#6c63ff" opacity="0.1"/><path d="M320.9,596.042s3.752-12.306-.593-17.231a8.165,8.165,0,0,0-8.583-2.789,3.044,3.044,0,0,0-1.969,1.631c-.577,1.245-.473,3.262,3.6,5.625,6.82,3.948,7.245,9.366,7.245,9.366Z" transform="translate(-271.829 -493.146)" fill="#6c63ff"/><path d="M328.49,589.51s11.063,3.459,8.583,18.275" transform="translate(-288.007 -504.889)" fill="none" stroke="#565987" stroke-miterlimit="10" stroke-width="1"/><path d="M365.56,597.87a2.446,2.446,0,0,0-1.038,2.569" transform="translate(-318.616 -512.009)" fill="none" stroke="#565987" stroke-miterlimit="10" stroke-width="1"/><path d="M336,600.658a1.919,1.919,0,0,1,2.064-.424" transform="translate(-294.404 -513.889)" fill="none" stroke="#565987" stroke-miterlimit="10" stroke-width="1"/><path d="M365.47,634.366s1.631-.83,2.058.209" transform="translate(-319.504 -542.826)" fill="none" stroke="#565987" stroke-miterlimit="10" stroke-width="1"/><path d="M385.58,647.8s-1.228-.1-1.25.489" transform="translate(-335.568 -554.535)" fill="none" stroke="#565987" stroke-miterlimit="10" stroke-width="1"/><path d="M349.308,663.159s-4.394-8.942-5.6-8.747c-.572.093-.838.657-.956,1.225a3.6,3.6,0,0,0,.239,2.176A9.661,9.661,0,0,0,349.308,663.159Z" transform="translate(-300.091 -560.166)" fill="#6c63ff"/><path d="M349.83,665.89s4.621,6.688,5.511,6.984" transform="translate(-306.183 -569.944)" fill="none" stroke="#565987" stroke-miterlimit="10" stroke-width="1"/><line x2="1.076" transform="translate(43.223 96.989)" fill="none" stroke="#565987" stroke-miterlimit="10" stroke-width="1"/><line x2="1.689" y2="0.073" transform="translate(44.513 99.437)" fill="none" stroke="#565987" stroke-miterlimit="10" stroke-width="1"/><line x1="0.184" y2="0.879" transform="translate(45.356 97.479)" fill="none" stroke="#565987" stroke-miterlimit="10" stroke-width="1"/><line x1="0.033" y2="0.799" transform="translate(47.303 100.155)" fill="none" stroke="#565987" stroke-miterlimit="10" stroke-width="1"/><path d="M386.52,663.159s4.4-8.942,5.6-8.747c.572.093.838.657.956,1.225a3.6,3.6,0,0,1-.239,2.176A9.633,9.633,0,0,1,386.52,663.159Z" transform="translate(-337.434 -560.166)" fill="#6c63ff"/><path d="M392.5,665.89s-4.609,6.688-5.5,6.984" transform="translate(-337.842 -569.944)" fill="none" stroke="#565987" stroke-miterlimit="10" stroke-width="1"/><line x1="1.076" transform="translate(54.004 96.989)" fill="none" stroke="#565987" stroke-miterlimit="10" stroke-width="1"/><line x1="1.687" y2="0.073" transform="translate(52.104 99.437)" fill="none" stroke="#565987" stroke-miterlimit="10" stroke-width="1"/><line x2="0.182" y2="0.879" transform="translate(52.765 97.479)" fill="none" stroke="#565987" stroke-miterlimit="10" stroke-width="1"/><line x2="0.033" y2="0.799" transform="translate(50.969 100.155)" fill="none" stroke="#565987" stroke-miterlimit="10" stroke-width="1"/><path d="M334.117,720.571a.768.768,0,0,1-.251-.378.334.334,0,0,1,.175-.384c.16-.062.332.049.463.162s.279.24.445.216a.686.686,0,0,1-.212-.64.271.271,0,0,1,.059-.129c.089-.1.251-.055.357.021a1.329,1.329,0,0,1,.436,1.113,2.053,2.053,0,0,0,0-.458.47.47,0,0,1,.173-.406.514.514,0,0,1,.262-.062.544.544,0,0,1,.427.122.426.426,0,0,1-.016.523,1.659,1.659,0,0,1-.445.354.973.973,0,0,0-.316.3.217.217,0,0,0-.024.053H334.7A2.713,2.713,0,0,1,334.117,720.571Z" transform="translate(-292.577 -615.488)" fill="#6c63ff"/><path d="M447.087,696.281a.768.768,0,0,1-.251-.378.334.334,0,0,1,.175-.384c.16-.062.332.049.463.162a.615.615,0,0,0,.445.216.684.684,0,0,1-.212-.641.271.271,0,0,1,.059-.129c.089-.1.251-.055.357.021a1.329,1.329,0,0,1,.436,1.113,2.053,2.053,0,0,0,0-.458.472.472,0,0,1,.172-.406.518.518,0,0,1,.264-.062.546.546,0,0,1,.427.122.424.424,0,0,1-.018.523,1.632,1.632,0,0,1-.445.354.952.952,0,0,0-.314.3.216.216,0,0,0-.024.053h-.956A2.666,2.666,0,0,1,447.087,696.281Z" transform="translate(-388.798 -594.799)" fill="#6c63ff"/><path d="M409.437,720.571a.768.768,0,0,1-.251-.378.334.334,0,0,1,.175-.384c.16-.062.332.049.463.162s.279.24.445.216a.683.683,0,0,1-.212-.64.271.271,0,0,1,.059-.129c.089-.1.251-.055.357.021a1.329,1.329,0,0,1,.436,1.113,2.057,2.057,0,0,0,0-.458.472.472,0,0,1,.172-.406.518.518,0,0,1,.264-.062.545.545,0,0,1,.427.122.424.424,0,0,1-.018.523,1.63,1.63,0,0,1-.445.354.954.954,0,0,0-.314.3.217.217,0,0,0-.024.053h-.956A2.669,2.669,0,0,1,409.437,720.571Z" transform="translate(-356.73 -615.488)" fill="#6c63ff"/><path d="M299.533,678.42s-.359.469.166,1.176.956,1.306.781,1.746c0,0-.79-1.314-1.435-1.334S298.826,679.21,299.533,678.42Z" transform="translate(-262.657 -580.617)" fill="#6c63ff"/><path d="M299.533,678.42a.554.554,0,0,0-.073.148c-.629.741-.962,1.426-.359,1.443.562.016,1.237,1.022,1.4,1.277a.159.159,0,0,1-.019.056c-.007.018-.79-1.314-1.435-1.334S298.826,679.21,299.533,678.42Z" transform="translate(-262.657 -580.617)" opacity="0.1"/><path d="M299.67,681.841c0,.165.018.3.04.3s.042-.133.042-.3-.022-.087-.046-.087S299.67,681.675,299.67,681.841Z" transform="translate(-263.46 -583.44)" fill="#ffd037"/><path d="M297.614,683.13c.148.079.271.126.283.105s-.1-.1-.243-.178-.087-.022-.1,0S297.47,683.05,297.614,683.13Z" transform="translate(-261.633 -584.533)" fill="#ffd037"/><path d="M311.271,678.42s.357.469-.166,1.176-.956,1.306-.781,1.746c0,0,.79-1.314,1.434-1.334S311.978,679.21,311.271,678.42Z" transform="translate(-272.5 -580.617)" fill="#6c63ff"/><path d="M311.387,678.42a.616.616,0,0,1,.073.148c.627.741.962,1.426.359,1.443-.562.016-1.237,1.022-1.4,1.277a.159.159,0,0,0,.019.056c.007.018.79-1.314,1.434-1.334S312.094,679.21,311.387,678.42Z" transform="translate(-272.616 -580.617)" opacity="0.1"/><path d="M320.953,681.841c0,.165-.018.3-.042.3s-.042-.133-.042-.3.024-.087.046-.087S320.953,681.675,320.953,681.841Z" transform="translate(-281.517 -583.44)" fill="#ffd037"/><path d="M321.378,683.13c-.148.079-.271.126-.282.105s.1-.1.243-.178.087-.022.1,0S321.526,683.05,321.378,683.13Z" transform="translate(-281.709 -584.533)" fill="#ffd037"/><path d="M299.232,694.611a3.681,3.681,0,0,1-1.3-.246c-.3-.215-1.542-.471-1.616-.126s-1.508,1.715-.375,1.724a9.577,9.577,0,0,0,2.931-.36C299.169,695.419,299.232,694.611,299.232,694.611Z" transform="translate(-259.91 -593.946)" fill="#a8a8a8"/><path d="M295.91,698.914a9.579,9.579,0,0,0,2.931-.36c.23-.139.322-.642.353-.873h.033s-.064.808-.365.992a9.586,9.586,0,0,1-2.931.36c-.328,0-.445-.119-.434-.3C295.542,698.851,295.667,698.914,295.91,698.914Z" transform="translate(-259.905 -597.021)" opacity="0.2"/><rect width="2.62" height="5.855" rx="1.31" transform="matrix(0.3, 0.954, -0.954, 0.3, 29.669, 82.3)" fill="#6c63ff"/><path d="M550.977,232.924s-.46-3.515-2.928-3.589.387,4.36.678,4.761c.17.233.034.881-.107,1.38a10.228,10.228,0,0,0-.254,1.093,2.552,2.552,0,0,1-.557,1.265,6.326,6.326,0,0,0-.993,1.663,2.341,2.341,0,0,1-.992-.148,7.629,7.629,0,0,0-2.033-.7c-.016.021-.062.03-.126.028a2.038,2.038,0,0,1-.3-.037c-.013-.083-.028-.166-.049-.252,0,0-.209-.09-.445-.218v-.015h0c.055-.139.09-.289.148-.426v-.012h0a.66.66,0,0,1,.188-.267c.227-.182.555-.12.829-.211a.951.951,0,0,0,.09-.036l.033-.019.05-.028.036-.025.04-.03.036-.031a.353.353,0,0,1,.034-.033l.031-.037.031-.036.028-.04c.009-.013.019-.025.027-.039s.018-.028.025-.043l.024-.043.022-.044.019-.046a.445.445,0,0,0,.019-.047.165.165,0,0,1,.016-.047c.006-.016.009-.033.015-.049s0-.031.012-.049.009-.033.012-.05l.009-.049a.134.134,0,0,1,.007-.053c.007-.018,0-.031,0-.046v-.058a.392.392,0,0,1,0-.042v-.181a1.483,1.483,0,0,0-.028-.181,1.7,1.7,0,0,1-.11-.881.246.246,0,0,1,.012-.03.465.465,0,0,1,.044-.085.61.61,0,0,1,.246-.2c.086-.044.181-.079.27-.116a2.075,2.075,0,0,0,.857-.593h0a1.369,1.369,0,0,0,.3-.67,1.07,1.07,0,0,0,0-.337v-.031h0a3.142,3.142,0,0,1-.133-.593.758.758,0,0,1,.034-.233q.018-.053.04-.107l.012-.025c.016-.034.034-.068.052-.1a.117.117,0,0,0,.01-.018l.058-.092.013-.019c.021-.033.044-.065.067-.1.055-.079.113-.156.166-.236h0c.025-.037.049-.076.071-.114h0c.022-.04.043-.079.062-.119v-.019a1.324,1.324,0,0,0,.049-.128l.013-.043c.013-.049.025-.1.034-.148a.315.315,0,0,1,0-.036c0-.044.012-.089.015-.133a.224.224,0,0,1,0-.033v-.157a.338.338,0,0,0,0-.039.8.8,0,0,0-.01-.157,4.033,4.033,0,0,0-.1-.553c-.064-.265-.176-.569-.434-.64a1.061,1.061,0,0,0-.4.018,1.936,1.936,0,0,1-1.2-.3,9.623,9.623,0,0,1-1.016-.759.892.892,0,0,0-.774-.264,2.073,2.073,0,0,0-.274.139.31.31,0,0,1-.059.018,1.418,1.418,0,0,1-.285.024h-.027c-.082-.261-.169-.519-.267-.774a3.928,3.928,0,0,0-1.1-1.726,4.426,4.426,0,0,0-1.014-.553,3.843,3.843,0,0,0-4.787.125l-1.822,1.244-.136-.042c-.267-.077-.543-.123-.7-.176l-.028-.009a1.432,1.432,0,0,1-1.038-1.174,1.264,1.264,0,0,1,.025-.259,4.162,4.162,0,0,1,.168-.526c.037-.1.068-.2.1-.305l.03-.11c.018-.065.034-.13.05-.2l.031-.148c.012-.053.021-.105.031-.159s.021-.113.028-.169a.185.185,0,0,1,.012-.079c.022-.162.039-.323.047-.485h0a2.539,2.539,0,0,1,.009-.259v-.3h0a6.088,6.088,0,0,0-1.023-3.217,1.927,1.927,0,0,0-.2.79.3.3,0,0,1-.03.148.193.193,0,0,1-.277.012,2.709,2.709,0,0,1-.208-.24.51.51,0,0,0-.618-.074.56.56,0,0,0-.227.6,2.332,2.332,0,0,0-2.329.148.863.863,0,0,0-.4.51h0a.593.593,0,0,0,.07.414c.126.246.371.469.531.721a6.206,6.206,0,0,0-.97,2.093l-.13.163a4.584,4.584,0,0,0-.836.663.888.888,0,0,0-.279.741l-2.262,2.839a37.848,37.848,0,0,0-2.669,4.049,1.9,1.9,0,0,0,.458,2.691c1.5,1.4,1.791,1.545,2.009,2.019a5.993,5.993,0,0,0,1.893,1.155l.276.129a3.715,3.715,0,0,0,1.474,2.882,1.984,1.984,0,0,1,.034.4,13.076,13.076,0,0,0,.436,2.58,1.238,1.238,0,0,1-.181,1.607c-.8.636-.977,1-.486,1.518l.015.015-.073,1.459h-.214a10.378,10.378,0,0,0-2.328,2.13c-.4.786-1.124,2.882-1.124,2.882a10.954,10.954,0,0,1-.363,2.317c-.215.3,0,1.533,0,1.533s-.037,1.907.434,2.356.328,1.57.328,1.57a5.308,5.308,0,0,0,.083.725c-.506-.148-1.4-.246-1.554.921a12.453,12.453,0,0,0-.108,2.669,14.9,14.9,0,0,1-.762,2.52c-.326.559-1.017,5.521,2.05,4.673a1.318,1.318,0,0,0,.741-.762,3.469,3.469,0,0,0,.319-.4c-.012.968.255,1.787,1.2,1.586,0,0,.543-.12.787-1.262a11.764,11.764,0,0,0,1.334-1.558l.876-2.185h0l.067-.168.815-.875a22.01,22.01,0,0,0,4.151.872,10.206,10.206,0,0,0,1.245.056,9.59,9.59,0,0,0,2.15-.2,11.823,11.823,0,0,0,5.569-.414c2.9-1.121.907-3.589.4-4.113s-2.113-2.076-2.242-2.2v-.009s.3-8.973-.328-9.234a18.964,18.964,0,0,1-2.685-2.469l.218-1.42s1.016.113,1.053-.786,0-2.243,0-2.243l1.334-2.393s1.616-.959,2.35-1.284c.039.025.08.052.126.077a6.99,6.99,0,0,0,3.1.845,17.347,17.347,0,0,1,3.41.3c1.014.1,1.483-.921,1.379-1.038s.412-1.262.412-1.262.968-4.687.75-5.434A5.1,5.1,0,0,1,550.977,232.924Zm-26.07,30.07c.084.042.172.082.262.122a14.171,14.171,0,0,0,1.456.516l.907.337s-1.367.033-2.049.067a2.013,2.013,0,0,1-.881-.408A1.512,1.512,0,0,1,524.907,262.995Zm13.71-26.183c-.016-.044-.031-.092-.044-.139.125-.031.246-.067.368-.107-.082.093-.181.2-.3.325C538.634,236.864,538.624,236.839,538.616,236.812Zm-15.271-3.706s.648-1.6,1.146-2.691q.03.132.067.262c-.021,0-.018-.024.068.2v.012a3.281,3.281,0,0,0,1.364,1.631,3.022,3.022,0,0,0,.646.3v-.022a.211.211,0,0,0,0-.043.162.162,0,0,0,0-.027.189.189,0,0,0,0-.042l-.009-.021a.227.227,0,0,0-.022-.042l-.013-.015a.1.1,0,0,0-.021-.024c.1.064.2.125.305.187.022.012.043.027.065.04.105.061.211.119.317.176l.077.044c.126.067.255.132.384.194l.019.009.16.074.252.114a.445.445,0,0,0,.264.052.421.421,0,0,0,.16-.086l.049-.037a4.692,4.692,0,0,1,1.048-.434.965.965,0,0,0,.676-.845.9.9,0,0,0-.388-.629c-.2-.148-.431-.258-.635-.406a1.238,1.238,0,0,1-.517-1.223.778.778,0,0,1,.033-.093l.009-.022q.018-.037.04-.076c0-.007.009-.016.015-.025a.972.972,0,0,1,.169-.188,2.817,2.817,0,0,1,.264-.2l1.788-1.205c.135-.092.27-.182.409-.267h0a4.049,4.049,0,0,1,.369-.2c.037-.016.074-.034.113-.049l.074-.031c.067-.025.133-.049.2-.07.037-.009.087-.018.148-.027a9.7,9.7,0,0,1-.764,1.718,1.335,1.335,0,0,0-.139.307.389.389,0,0,0-.016.092.917.917,0,0,0,.083.385,1.149,1.149,0,0,0,.384.652c.062.044.12.086.17.129a1.035,1.035,0,0,1-.019.133,5.767,5.767,0,0,0-.039.663,5.469,5.469,0,0,0,1.038,3.216l-.059.067a5.432,5.432,0,0,1-1.093.971c-.047.03-.095.058-.148.085a1.674,1.674,0,0,1-.173-.378.466.466,0,0,1-.593-.261c-.211-.412-.864,0-.864,0s-1.483-.86-1.56-.486a.372.372,0,0,1-.084.157l-.088-.083s-.341.113-.82.332a.919.919,0,0,1-.534-.332c-.148-.193-.11.092-.016.6l-.012.007-.173-.064c-1.024-.377-3.462-1.355-3.576-2.179Zm16.742,3.73c-.067-.209-.39-.372-.632-.468a5.337,5.337,0,0,0,2.694-2.839c.022-.055.043-.111.064-.168.043-.01.086-.018.128-.031a.627.627,0,0,0,.424-.311.7.7,0,0,0,.043-.236c.012-.179.019-.359.024-.538v-.025a13.34,13.34,0,0,0-.328-3.272l.16.132h0c.062.052.125.1.185.157a1.267,1.267,0,0,1,.148.148l.024.024c.047.047.093.1.136.148l.015.019a1.78,1.78,0,0,1,.108.148l.037.058a1.307,1.307,0,0,1,.08.148l.015.03a1.466,1.466,0,0,1,.059.16l.013.037c.013.047.024.095.034.148a.349.349,0,0,0,.015.065c.009.05.015.1.021.156v.056c0,.049.007.1.01.148s0,.064,0,.095a6.659,6.659,0,0,1-.608,2.9,11.311,11.311,0,0,1-1.576,2.5,3.323,3.323,0,0,0-.52.765,1.554,1.554,0,0,0-.058.165c-.255-.034-.649-.107-.715-.32Z" transform="translate(-450.818 -189.012)" fill="url(#a)"/><path d="M679.072,298.8c.222.741-.766,5.386-.766,5.386s-.519,1.143-.42,1.251-.371,1.121-1.409,1.022a17.882,17.882,0,0,0-3.484-.3,7.325,7.325,0,0,1-3.168-.838c-.277-.148-.445-.3-.43-.423a15.924,15.924,0,0,1,1.62-2.595,4.349,4.349,0,0,0,.712.128c.065,0,.113-.007.129-.028a8.093,8.093,0,0,1,2.076.692,2.5,2.5,0,0,0,1.013.141,6.252,6.252,0,0,1,1.014-1.649,2.5,2.5,0,0,0,.571-1.254,9.749,9.749,0,0,1,.258-1.084c.148-.5.283-1.137.11-1.368-.3-.4-3.213-4.793-.692-4.719s2.99,3.558,2.99,3.558A5.105,5.105,0,0,0,679.072,298.8Z" transform="translate(-578.369 -252.479)" fill="#fbbebe"/><path d="M607.278,326.37l-2.076.89-2.409.741s-5.523-4.485-4.114-4.818a2.411,2.411,0,0,0,.694-.3,5.477,5.477,0,0,0,1.116-.962,9.824,9.824,0,0,0,.97-1.256s5.449-.259,4.6,1.038a2.684,2.684,0,0,0,.042,2.141c.015.049.031.1.047.148A13.715,13.715,0,0,0,607.278,326.37Z" transform="translate(-517.942 -275.887)" fill="#fbbebe"/><path d="M548.382,525.979s-.956-.89-1.3.48a14.087,14.087,0,0,0-.412,2.246,16.168,16.168,0,0,1-.807,2.058c-.279.443-1.351,4.566.7,4.151,0,0,.753-.16.9-1.9s1.413-6.927,1.413-6.927Z" transform="translate(-472.698 -450.535)" fill="#3f3d56"/><path d="M566.481,499.247a12.627,12.627,0,0,1-5.87.385c-.566-.082-.913-.163-.913-.163l-6.486-.667-.13.136-.833.867-.964,2.332s-2.595,3.558-2.891,1.446a8.68,8.68,0,0,1-.055-1.394,38.47,38.47,0,0,1,.648-5.241l5.893-.778,3.707-1.927.04-2.01.009-.494.025-1.239,5.041.482.89,2,.009.009c.13.122,1.791,1.68,2.289,2.178S569.446,498.135,566.481,499.247Z" transform="translate(-475.254 -420.558)" fill="#fbbebe"/><path d="M553.4,552.3s-2.646.111-2.817-.363l-.82,1.956s2.409.927,2.743.574Z" transform="translate(-476.472 -472.889)" fill="#6c63ff"/><path d="M524.933,512.471s-1.723-.853-1.945.778a12.029,12.029,0,0,0-.111,2.651,14.465,14.465,0,0,1-.778,2.5c-.334.556-1.038,5.474,2.093,4.633,0,0,1.149-.314.964-2.335a66.908,66.908,0,0,1,.569-8.191Z" transform="translate(-452.647 -439.081)" fill="#3f3d56"/><path d="M539.111,487.75l5.374,4.744s3.113,1.668-.593,4.522a9.333,9.333,0,0,1-4.225.445,22.683,22.683,0,0,1-4.67-1s-1.927-.3-2.595.741-2.15,3.3-2.15,3.3-1.816,3.6-3-.852l1.52-4.337a13.961,13.961,0,0,0,0-1.779c-.074-.334,1-1.816,1.557-1.334s1.3,1.149,1.927,1.112,2.224-.074,2.224-.074l-.927-.334s-2.669-.741-2.483-1.3,1.483-3.262,1.483-3.262Z" transform="translate(-457.299 -418.215)" opacity="0.1"/><path d="M541.892,497.016a5.876,5.876,0,0,1-.94.274,10.4,10.4,0,0,1-3.285.171,23.141,23.141,0,0,1-4.245-.864c-.273-.083-.426-.136-.426-.136s-1.927-.3-2.595.741c-.445.684-1.232,1.9-1.723,2.646l-.427.652s-1.816,3.6-3-.852l1.52-4.337a13.961,13.961,0,0,0,0-1.779,2.15,2.15,0,0,1,.915-1.291c.23-.148.463-.2.642-.043a7.3,7.3,0,0,0,1.186.9,1.42,1.42,0,0,0,.741.209c.63-.037,2.224-.074,2.224-.074l-.927-.334a14.522,14.522,0,0,1-1.483-.512c-.577-.243-1.081-.534-1-.786.185-.556,1.483-3.262,1.483-3.262l6.56-.593,1.865,1.647.8.7,2.71,2.393S545.6,494.162,541.892,497.016Z" transform="translate(-455.595 -418.215)" fill="#fbbebe"/><path d="M578.744,525.6s-1.408-1.89-4.744-1.371" transform="translate(-497.118 -449.212)" fill="none" stroke="#000" stroke-miterlimit="10" stroke-width="1" opacity="0.1"/><path d="M528.325,536.63l-1.075,2.464s1.186,2.725,3.484,2.317l1.413-2.56S528.956,538.519,528.325,536.63Z" transform="translate(-457.299 -459.849)" opacity="0.1"/><path d="M527.325,537.63l-1.075,2.464s1.186,2.725,3.484,2.317l1.413-2.56S527.956,539.519,527.325,537.63Z" transform="translate(-456.447 -460.7)" fill="#6c63ff"/><path d="M670.22,357.672a2.652,2.652,0,0,0-.445.175c-.277-.148-.445-.3-.43-.423a15.929,15.929,0,0,1,1.62-2.595,4.354,4.354,0,0,0,.712.128A2.485,2.485,0,0,1,670.22,357.672Z" transform="translate(-578.326 -305.002)" opacity="0.1"/><path d="M607.278,340.234l-2.076.89-2.409.741s-5.523-4.485-4.114-4.818a2.411,2.411,0,0,0,.694-.3,11.724,11.724,0,0,0,2.79,2.224c1.64.593,3.13-.489,3.933-1.269A13.407,13.407,0,0,0,607.278,340.234Z" transform="translate(-517.942 -289.603)" opacity="0.1"/><path d="M577.671,334.922A24.4,24.4,0,0,0,575,336.294l-1.371,2.372s.037,1.334,0,2.224-1.075.778-1.075.778l-.05.021c-.265.111-1.511.635-1.511.646s-2.553-.259-2.553-.259l-5-.815a4.327,4.327,0,0,1-2.113-.593l-.015-.015c-.5-.512-.311-.881.5-1.5a1.211,1.211,0,0,0,.185-1.594,12.616,12.616,0,0,1-.445-2.557c0-.964-.482-.927-.482-.927s-.334,0,1.149-.964-.185-5.449.334-4.818,1.483.3,1.557-.074,1.594.482,1.594.482.667-.408.89,0a.483.483,0,0,0,.593.259c.371,1.223,3.113,2.817,3.113,2.817,2.446.89,4.559-1.964,4.559-1.964s.815.222.927.559,1.038.32,1.038.32,1.112.122,1.149.455,1.112.778,1.112.778A2.517,2.517,0,0,1,577.671,334.922Z" transform="translate(-486.073 -282.252)" fill="#fff"/><path d="M574.146,410.9l-.05.317c-.265.111-1.511.635-1.511.646s-2.553-.259-2.553-.259l-5-.815a4.327,4.327,0,0,1-2.113-.593l-.015-.015.015-.282.815-.148s8.006.445,9.118.964Z" transform="translate(-487.663 -351.78)" opacity="0.1"/><path d="M566.819,490.65c0,.184-.009.288-.009.288s-1.557-2.409-3.6-1.223a2.614,2.614,0,0,1-1.561.387,2.471,2.471,0,0,1-.808-.211,3.19,3.19,0,0,1-1.115-.844s-3.558.741-4.781,1.742a1.535,1.535,0,0,1-2.224-.3,5.3,5.3,0,0,1-.783,1.9c-.577-.243-1.081-.534-1-.786.185-.556,1.483-3.262,1.483-3.262l6.561-.593,1.865,1.647.025-1.239,5.041.482.89,2Z" transform="translate(-477.474 -418.215)" opacity="0.1"/><path d="M539.182,411.75s8.006.445,9.118.964l1.3.185-.222,1.408a19.642,19.642,0,0,0,2.743,2.446c.63.259.334,9.155.334,9.155s-1.557-2.409-3.6-1.223a2.7,2.7,0,0,1-3.484-.667s-3.558.741-4.781,1.742a1.536,1.536,0,0,1-2.224-.3s-.408,1.779-.89,1.964-.593,1.371-.593,1.371-1.334-.259-1.334-.667a1.017,1.017,0,0,0-.3-.853,2.94,2.94,0,0,1-.3-1.26s.148-1.112-.334-1.557-.445-2.335-.445-2.335-.224-1.223,0-1.52a10.309,10.309,0,0,0,.371-2.3s.741-2.076,1.149-2.854a10.5,10.5,0,0,1,2.372-2.113h.218l.074-1.446Z" transform="translate(-463.115 -353.483)" fill="#6c63ff"/><circle cx="0.234" cy="0.234" r="0.234" transform="translate(84.703 60.924)" fill="#3f3d56"/><circle cx="0.234" cy="0.234" r="0.234" transform="translate(83.455 66.237)" fill="#3f3d56"/><circle cx="0.234" cy="0.234" r="0.234" transform="translate(85.099 64.433)" fill="#3f3d56"/><path d="M556.227,424h.3s-1.779,4.077-1.877,2.94S556.227,424,556.227,424Z" transform="translate(-480.63 -363.917)" opacity="0.1"/><path d="M572.146,426s-2.027,3.113-1.038,3.558,1.877-3.41,1.877-3.41Z" transform="translate(-494.423 -365.621)" opacity="0.1"/><path d="M597.83,438.12s.767,4.727,1.631,5.641a.954.954,0,0,1-.148,1.557s3.039.271,4,.469,2.446-.222,1.853-.617-.1-4.6-.049-4.795S603.218,444.019,597.83,438.12Z" transform="translate(-517.415 -375.944)" opacity="0.1"/><path d="M575.67,379.606c.172-.074,2.94-3.961,3.607-3.649S575.67,379.606,575.67,379.606Z" transform="translate(-498.54 -322.982)" opacity="0.1"/><path d="M573.125,377.5s-1.112,1.7-.79,2S573.125,377.5,573.125,377.5Z" transform="translate(-495.649 -324.311)" opacity="0.1"/><path d="M588.07,334s1.127,2.249.805,2.669S588.07,334,588.07,334Z" transform="translate(-509.102 -287.26)" opacity="0.1"/><path d="M669.976,354.83s-.222,1.311-.519,1.36S669.976,354.83,669.976,354.83Z" transform="translate(-578.367 -305.002)" opacity="0.1"/><path d="M637.33,357.67s3.139.768,3.386.94S638,358.782,637.33,357.67Z" transform="translate(-551.058 -307.421)" opacity="0.1"/><path d="M709.433,364.006s-.394-1.533-.913-1.508S709.433,364.006,709.433,364.006Z" transform="translate(-611.597 -311.533)" opacity="0.1"/><path d="M671.289,285.956c-.193.4-.612.718-.606,1.161a3.123,3.123,0,0,0,.148.612,1.236,1.236,0,0,1-.3,1,2.124,2.124,0,0,1-.879.593,1.093,1.093,0,0,0-.528.316c-.194.28-.025.654.055.986a1.143,1.143,0,0,1-.606,1.37c-.28.089-.615.028-.847.208s-.255.538-.4.805a.922.922,0,0,1-1.207.362.932.932,0,0,1,.052-.4.759.759,0,0,1-.847-.345,1.011,1.011,0,0,1,.007-.89,3.334,3.334,0,0,1,.531-.759,11.183,11.183,0,0,0,1.61-2.476,6.443,6.443,0,0,0,.621-2.87,2.2,2.2,0,0,0-.168-.857,2.126,2.126,0,0,0-.584-.709c-.123-.107-.253-.208-.381-.31-.089-.071-.178-.148-.262-.216-.116-.1-.575-.477-.538-.658.021-.1.332-.089.6-.092a1.472,1.472,0,0,0,.3-.024.3.3,0,0,0,.061-.018,2.338,2.338,0,0,1,.28-.138.93.93,0,0,1,.79.262,9.821,9.821,0,0,0,1.038.752,2.028,2.028,0,0,0,1.223.3,1.107,1.107,0,0,1,.412-.018c.262.07.378.371.445.635A2.192,2.192,0,0,1,671.289,285.956Z" transform="translate(-574.821 -243.461)" fill="#3f3d56"/><path d="M560.731,230.354a1.529,1.529,0,0,0-.169.03,2.732,2.732,0,0,0-.457.173,6.675,6.675,0,0,0-.741.445l-1.827,1.195a1.5,1.5,0,0,0-.445.383,1.108,1.108,0,0,0,.43,1.426c.208.148.445.252.648.4a.889.889,0,0,1,.4.623c.022.387-.334.691-.691.838a4.9,4.9,0,0,0-1.07.431.617.617,0,0,1-.214.122.469.469,0,0,1-.27-.052,11.207,11.207,0,0,1-1.613-.832.218.218,0,0,1,.067.233,3.22,3.22,0,0,1-1.84-4.692,9.364,9.364,0,0,0,.593-.968,1.188,1.188,0,0,0,0-1.09c-.148-.221-.408-.369-.485-.623a.86.86,0,0,1,.277-.764c.428-.445,1.02-.712,1.493-1.118a1.474,1.474,0,0,0,.562-1.641c-.213-.445-.787-.775-.691-1.26a.859.859,0,0,1,.411-.512,2.442,2.442,0,0,1,2.372-.148.547.547,0,0,1,.233-.593.532.532,0,0,1,.632.073,2.726,2.726,0,0,0,.211.239.2.2,0,0,0,.283-.012.278.278,0,0,0,.031-.148,1.862,1.862,0,0,1,.2-.784,5.962,5.962,0,0,1,.7,5.383,2.124,2.124,0,0,0-.2.778,1.444,1.444,0,0,0,1.064,1.164l.028.009c.165.053.445.1.718.175.359.1.7.251.741.534C562.2,230.234,561.2,230.291,560.731,230.354Z" transform="translate(-478.808 -191.636)" fill="#3f3d56"/><path d="M525.137,245.308c-.271.3-1.68,3.632-1.68,3.632.117.817,2.606,1.788,3.661,2.163.285.1.466.16.466.16l1.013.89s-1.038,5.733-1.121,4.325-1.918-2.126-1.918-2.126-.48-.2-1.056-.461a6.054,6.054,0,0,1-1.927-1.145c-.222-.47-.519-.618-2.052-2a1.848,1.848,0,0,1-.469-2.669,36.5,36.5,0,0,1,2.718-4.013l3.578-4.363s.987-4.052,3.469-2.471-2.827,5.363-2.827,5.363S525.409,245.012,525.137,245.308Z" transform="translate(-450.85 -204.524)" fill="#fbbebe"/><path d="M556.3,333.97s-1.038,5.733-1.121,4.325-1.918-2.126-1.918-2.126-.48-.2-1.056-.461c.185-1.314,1.552-2.249,2.617-2.787.285.1.466.16.466.16Z" transform="translate(-478.558 -286.341)" opacity="0.1"/><path d="M559.076,330.24l-1.087-.99s-7.03,2.224-2.286,6.437h2l1.833-2.434Z" transform="translate(-480.133 -283.215)" fill="#fff"/><path d="M617.787,323.824c.015.049.031.1.047.148a5.345,5.345,0,0,1-5.655-2.068,9.819,9.819,0,0,0,.97-1.256s5.449-.259,4.6,1.038A2.714,2.714,0,0,0,617.787,323.824Z" transform="translate(-529.637 -275.87)" opacity="0.1"/><path d="M616.165,276.607a5.317,5.317,0,1,1-1.557-3.78A5.337,5.337,0,0,1,616.165,276.607Z" transform="translate(-523.939 -233.831)" fill="#fbbebe"/><path d="M616.446,276.547a5.317,5.317,0,0,1-.415,2.065,2.4,2.4,0,0,1-.909.015.538.538,0,0,1-.322-.148.593.593,0,0,1-.108-.3q-.085-.494-.166-.984a1.775,1.775,0,0,1-1.483-.2c-.445-.252-.836-.6-1.269-.89a2.053,2.053,0,0,0-1.459-.4,2.467,2.467,0,0,0-.78.328,5.452,5.452,0,0,0-1.334,1,2.483,2.483,0,0,1-.879.787.931.931,0,0,1-1.161-.593,5.229,5.229,0,0,1-.058-.851.661.661,0,0,0-.283-.492,5.337,5.337,0,0,1,10.635.657Z" transform="translate(-524.22 -233.771)" opacity="0.1"/><path d="M602.389,265.536a5.229,5.229,0,0,0,.058.851.931.931,0,0,0,1.161.593,2.512,2.512,0,0,0,.879-.787,5.451,5.451,0,0,1,1.334-1,2.466,2.466,0,0,1,.78-.328,2.084,2.084,0,0,1,1.459.4c.434.28.818.633,1.269.89a1.762,1.762,0,0,0,1.483.2l.166.984a.593.593,0,0,0,.108.3.538.538,0,0,0,.322.148,2.4,2.4,0,0,0,1.1-.064.634.634,0,0,0,.433-.308.692.692,0,0,0,.044-.234,12.856,12.856,0,0,0-.857-5.557,3.888,3.888,0,0,0-1.122-1.711,4.532,4.532,0,0,0-1.038-.549,5.357,5.357,0,0,0-3.489-.612,5.249,5.249,0,0,0-1.407.741L603,260.87a1.294,1.294,0,0,0-.3.245,1.413,1.413,0,0,0-.224.489,9.495,9.495,0,0,1-.851,1.91.948.948,0,0,0-.16.4.9.9,0,0,0,.086.381c.107.277.148.483.391.646A.764.764,0,0,1,602.389,265.536Z" transform="translate(-520.515 -223.072)" fill="#3f3d56"/><g transform="translate(73.833 31.866)" opacity="0.1"><path d="M558.67,302.088a4.976,4.976,0,0,0-1.07.431.616.616,0,0,1-.214.122.468.468,0,0,1-.27-.052,11.09,11.09,0,0,1-1.631-.847.215.215,0,0,1,.089.248,3.27,3.27,0,0,1-2.058-1.9c-.119-.3.022.325,0,0-.033.473-.172,0,0,.445a3.27,3.27,0,0,0,2.052,1.9.215.215,0,0,0-.089-.248,11.09,11.09,0,0,0,1.631.847.468.468,0,0,0,.27.052.616.616,0,0,0,.214-.122,4.832,4.832,0,0,1,1.07-.431c.357-.145.713-.445.691-.838a.624.624,0,0,0-.043-.188A1.152,1.152,0,0,1,558.67,302.088Z" transform="translate(-553.432 -290.17)"/><path d="M600.17,245.778a.891.891,0,0,0,.027.188,3.831,3.831,0,0,1,.171-.522,5.782,5.782,0,0,0,.342-2.194,5.737,5.737,0,0,1-.342,1.749A2.125,2.125,0,0,0,600.17,245.778Z" transform="translate(-593.241 -241.831)"/><path d="M678.068,288.566a2.954,2.954,0,0,0-.938-1c.042.176.079.354.113.534a2.643,2.643,0,0,1,.826.907,2.147,2.147,0,0,1,.166.814v-.4A2.2,2.2,0,0,0,678.068,288.566Z" transform="translate(-658.791 -279.58)"/><path d="M567.767,234.934c.044-.218.163-.123.065-.329-.162-.335-.526-.6-.655-.925a.555.555,0,0,0-.036.11c-.1.485.412.7.626,1.145C567.8,235,567.635,234.617,567.767,234.934Z" transform="translate(-565.098 -233.68)"/><path d="M586.318,276.92a1.091,1.091,0,0,0-.148.027,4.286,4.286,0,0,0-1.2.614l-1.827,1.195a1.5,1.5,0,0,0-.445.383.808.808,0,0,0-.1.663.7.7,0,0,1,.1-.218,1.5,1.5,0,0,1,.445-.383l1.827-1.195a4.378,4.378,0,0,1,1.165-.6C586.2,277.242,586.261,277.08,586.318,276.92Z" transform="translate(-578.25 -270.509)"/><path d="M692.691,317.11a1.355,1.355,0,0,1-.285.584,2.124,2.124,0,0,1-.879.593,1.093,1.093,0,0,0-.528.316.687.687,0,0,0-.058.559.458.458,0,0,1,.058-.114,1.06,1.06,0,0,1,.528-.316,2.125,2.125,0,0,0,.879-.593,1.237,1.237,0,0,0,.3-1A.067.067,0,0,0,692.691,317.11Z" transform="translate(-670.525 -304.741)"/><path d="M702.616,299.815c-.193.4-.612.718-.606,1.161a.859.859,0,0,0,.034.219,7.846,7.846,0,0,1,.572-.936,1.631,1.631,0,0,0,.12-.89A1.389,1.389,0,0,1,702.616,299.815Z" transform="translate(-679.981 -289.631)"/><path d="M611.129,296.84a.538.538,0,0,0,.322.148,2.4,2.4,0,0,0,1.1-.064.634.634,0,0,0,.433-.308.692.692,0,0,0,.044-.234c.025-.365.033-.729.025-1.094,0,.216-.01.433-.025.649a.692.692,0,0,1-.044.234.634.634,0,0,1-.433.308,2.4,2.4,0,0,1-1.1.064.538.538,0,0,1-.322-.148.593.593,0,0,1-.108-.3q-.085-.494-.166-.984a1.775,1.775,0,0,1-1.483-.2c-.445-.252-.836-.6-1.269-.89a2.053,2.053,0,0,0-1.459-.4,2.467,2.467,0,0,0-.78.328,5.452,5.452,0,0,0-1.334,1,2.483,2.483,0,0,1-.879.787.931.931,0,0,1-1.161-.593,5.228,5.228,0,0,1-.058-.851.765.765,0,0,0-.445-.6c-.245-.16-.285-.369-.391-.646-.013-.036-.028-.074-.04-.111a.556.556,0,0,0-.046.175.9.9,0,0,0,.086.381c.107.277.148.483.391.646a.785.785,0,0,1,.445.6,5.229,5.229,0,0,0,.058.851.931.931,0,0,0,1.161.593,2.512,2.512,0,0,0,.879-.787,5.452,5.452,0,0,1,1.334-1,2.467,2.467,0,0,1,.78-.328,2.084,2.084,0,0,1,1.459.4c.434.28.818.633,1.269.89a1.762,1.762,0,0,0,1.483.2l.166.984A.593.593,0,0,0,611.129,296.84Z" transform="translate(-594.382 -284.146)"/><path d="M668.569,338.292c-.28.089-.615.028-.847.208s-.255.538-.4.805a.922.922,0,0,1-1.207.362.932.932,0,0,1,.052-.4.759.759,0,0,1-.847-.345.776.776,0,0,1-.076-.194.912.912,0,0,0,.076.639.759.759,0,0,0,.847.345.933.933,0,0,0-.052.4.922.922,0,0,0,1.207-.362c.148-.267.159-.618.4-.805s.566-.119.847-.208a1.119,1.119,0,0,0,.624-1.277A.988.988,0,0,1,668.569,338.292Z" transform="translate(-648.646 -322.074)"/></g><path d="M605.055,271.385a5.326,5.326,0,0,1-.649,1.113,1.532,1.532,0,0,0-.169.03,2.735,2.735,0,0,0-.457.173,9.258,9.258,0,0,1,.559-1.491C604.5,271.263,604.782,271.309,605.055,271.385Z" transform="translate(-522.483 -233.78)" fill="#6c63ff"/><path d="M676.2,285.04c-.123-.107-.254-.208-.381-.31-.074-.3-.148-.651-.2-.967a1.47,1.47,0,0,0,.3-.024A4.082,4.082,0,0,1,676.2,285.04Z" transform="translate(-583.672 -244.452)" fill="#6c63ff"/><path d="M868.483,330.132c.046-.022.09-.044.135-.07-.09-.018-.181-.039-.27-.061-.064.018-.129.031-.194.046a7.3,7.3,0,0,1-3.262-1.967,5.144,5.144,0,0,1-1.524-3.5c.01-.946.357-1.868.347-2.817a2.037,2.037,0,0,0-1.529-2.125,7.057,7.057,0,0,0-1.013.062.808.808,0,0,1-.9-1.182c.258-.725.838-1.311,1.087-2.039a2.449,2.449,0,0,0,.067-1.343,1.346,1.346,0,0,0-.629-.921c-.572-.3-1.253.047-1.889.168a4.538,4.538,0,0,1-3.13-.844,13.684,13.684,0,0,0-2.869-1.62,6.9,6.9,0,0,0-2.129-.276,1.866,1.866,0,0,0-1.254.325c-.016.015-.028.031-.044.046a1.142,1.142,0,0,1,.129-.259.923.923,0,0,0-.138.1c-.68.6-.2,1.747-.6,2.55a1.33,1.33,0,0,1-.163.249,1.955,1.955,0,0,0,.264-.243c-.015.036-.028.071-.046.107a2.409,2.409,0,0,1-1.186.97,3.925,3.925,0,0,0-1.321.83c-.009.009-.015.018-.024.028a1.452,1.452,0,0,1,.237-.391,1.951,1.951,0,0,0-.268.251c-.372.431-.4.79-.234,1.066a1.279,1.279,0,0,0,.9.657c-.021.093-.04.187-.056.282a4.694,4.694,0,0,0-.056.712,4.631,4.631,0,0,0,3.683,4.483,2.687,2.687,0,0,1-.024.3c-.071.673-.279,1.4-.823,1.58-.508-.173-1.527.593-1.755.815s-1.038.024-1.779.049a1.493,1.493,0,0,1-.992-.2,4.221,4.221,0,0,0-.027,1.21c.077.741-.534.767-.534.767a3.637,3.637,0,0,1-.148,1.606,1.8,1.8,0,0,0-.2,1.016s.864-.074.787.222a.264.264,0,0,0,.05.2l-.009.283-.117,3.917L844.8,337.5a.394.394,0,0,0-.255.234c-.206.469-.538,1.093-.8,1.57-1.06.642-2.652,1.832-2.2,2.977.661,1.681,1.6,1.459,2.162,1.26s1.558-1.754,1.558-1.754.331-.618.584-.618a3.288,3.288,0,0,0,.4-.043v.043a9.331,9.331,0,0,0-.356,2.62,2.544,2.544,0,0,1,.025,1.186,7.14,7.14,0,0,0,.05,2.027,4.107,4.107,0,0,1-.276,1.825s.136.042.372.1c-.018.085-.039.178-.061.282a19.415,19.415,0,0,0-.234,7.6s.356,1.483.406,1.88a2.892,2.892,0,0,1,.148,1.631,5.966,5.966,0,0,0,.406,2.522,7.55,7.55,0,0,1,.128,2.273c-.178.716,1.856,8.747,1.856,8.747l.332-.047.074.286.331,1.275.036.139a1.1,1.1,0,0,0-.593.374,6.345,6.345,0,0,1-2.009,2.595c-.3.148-.66.347-1.01.562-1,.611-1.856,1.346-.4,1.365,1.6.021,4.216.105,5.156.136a2.245,2.245,0,0,0,1.06.16c2.618-.049,6.332-.322,6.409-.568.037-.12-.119-.375-.288-.6s-.375-.458-.375-.458l-.076-2.249s-.213-.193-.544-.458l-.012-.157-.166-2.169-.022-.3a.855.855,0,0,0,.311-.135l.179-2.246a13.036,13.036,0,0,0-.305-7.438s-1.22-2.544-.89-3.459l.052-1.953s.584-2.3.864-2.916a15.8,15.8,0,0,0,.872-2.947,6.883,6.883,0,0,0,.839-3.707l.712-2.224.992-2.841s.28-1.73.383-2.076a15.917,15.917,0,0,0,0-2.224s.86-6.85.141-9.526v-.1h.007v-.148c.012-.013.783-.817.43-1.038a11.186,11.186,0,0,1-1.235-1.5c-.055-.064-.105-.122-.148-.173a5.084,5.084,0,0,0,1.223-1.358c.125-.2.277-.445.52-.455a.657.657,0,0,1,.363.12c1.864,1.116,2.163,3.908,4.128,4.847a2.933,2.933,0,0,0,2.623-.076Zm-14.909,44.647-.016.148a.8.8,0,0,0-.185.092,6.008,6.008,0,0,1-.408,1.408,1.227,1.227,0,0,0-.188.332l-.037-.067c-.012.027-.025.053-.037.082l-.068-.125-.019-.148-.424-3.278a15.019,15.019,0,0,1,.012-2.9c.178-.989.148-4.448-.992-5.831a2.727,2.727,0,0,1-.05-2.076l.076-5.142.178-.173.025,4.744a4.784,4.784,0,0,0,1.145,2.719l.179,2.5a23.354,23.354,0,0,0,.609,4.225v2.323s.123.021.32.049l-.031.3Z" transform="translate(-724.925 -268.218)" fill="url(#b)"/><path d="M899.756,368.289l-1.063,2.372-.393.23-2.646,1.549s-3.336-.322-3.434-.371-.255-2.882.608-3.478a.57.57,0,0,1,.156-.079h0c.529-.178.731-.907.8-1.58.01-.1.018-.2.022-.3a7.029,7.029,0,0,0,0-.946s.81-.81,1.779-1.647c1.718-1.483,3.941-3.047,3.088-.38a8.9,8.9,0,0,0-.347,1.474c-.018.117-.03.231-.039.34a2.754,2.754,0,0,0,.721,2.4c.044.042.09.077.135.111A1.631,1.631,0,0,0,899.756,368.289Z" transform="translate(-768.091 -311.295)" fill="#cf6f80"/><path d="M840.612,712.725l-.371.172-2.5-.568-.222-.884-.322-1.275-.222-.881h3.2l.412,3.281Z" transform="translate(-712.902 -604.136)" fill="#cf6f80"/><path d="M898.718,743.607l-2.5-.568-.222-.89a3.741,3.741,0,0,1,2.323.513c-.09.314.62.569.741.612l.019.148Z" transform="translate(-771.378 -634.846)" opacity="0.1"/><path d="M905.112,752.8l-1.789,1.754-.632.618-.342-.012c-.645-.362.191-1.241.75-1.729.11-.1.209-.176.285-.236a5.455,5.455,0,0,0,1.016-1.736Z" transform="translate(-776.586 -642.828)" opacity="0.1"/><path d="M904.4,751.46l.713,1.334-1.789,1.754-.632.624-.342-.012c-.645-.362.191-1.241.75-1.729.11-.1.209-.176.285-.236A5.454,5.454,0,0,0,904.4,751.46Z" transform="translate(-776.586 -642.828)" opacity="0.1"/><path d="M925.617,740.26l-3.287-1.112.1-.938c.857-.3,2.347.781,3.143,1.435Z" transform="translate(-793.804 -631.499)" opacity="0.1"/><path d="M873.361,745.852l-1.789,1.754-.632.618s-3.435-.123-5.348-.148c-1.414-.019-.583-.755.388-1.365.341-.215.7-.414.982-.562a6.339,6.339,0,0,0,1.951-2.595c.815-1.038,2.867.148,2.867.148-.1.345.765.618.765.618Z" transform="translate(-744.835 -635.732)" fill="#3f3d56"/><path d="M871.572,768.185l-.632.618s-3.435-.123-5.348-.148c-1.414-.019-.583-.755.388-1.365a1.552,1.552,0,0,1,1.228.89Z" transform="translate(-744.835 -656.311)" opacity="0.1"/><path d="M870.267,710.768l-3.287-1.112.1-.938.085-.82.114-1.108h2.694l.089,1.194.162,2.169Z" transform="translate(-738.454 -602.007)" fill="#cf6f80"/><path d="M909.608,744.422c-.074.246-3.683.519-6.227.568-2.209.043-1.013-1.254-.285-1.889.11-.1.209-.176.285-.236.568-.445,1.087-2.052,1.235-2.15a6.131,6.131,0,0,0,.4-1.409c1.112-.792,3.878,1.8,3.878,1.8l.074,2.249s.19.215.365.458S909.644,744.3,909.608,744.422Z" transform="translate(-776.585 -632.348)" fill="#3f3d56"/><path d="M909.608,767.081c-.074.246-3.683.519-6.227.568-2.209.043-1.013-1.254-.285-1.889a3.277,3.277,0,0,1,1.4,1.122h2.841a16.592,16.592,0,0,0,2-.406C909.493,766.706,909.644,766.961,909.608,767.081Z" transform="translate(-776.585 -655.008)" opacity="0.1"/><path d="M895.512,728c.016.271.031.445.031.445l-2.99.436L892.33,728Z" transform="translate(-768.252 -622.846)" opacity="0.1"/><path d="M926.457,726.693a9.4,9.4,0,0,1-2.9-.086l.114-1.107h2.694Z" transform="translate(-794.852 -620.717)" opacity="0.1"/><path d="M880.934,568.829a13.4,13.4,0,0,1,.3,7.438l-.173,2.249c-.618.494-3.459,0-3.459,0v-2.323a24.364,24.364,0,0,1-.593-4.225l-.173-2.5a4.863,4.863,0,0,1-1.112-2.719l-.025-4.744-.172.173-.074,5.14a2.8,2.8,0,0,0,.049,2.076c1.112,1.383,1.137,4.842.964,5.831a16.731,16.731,0,0,0,0,3.039l-3.385.494s-1.978-8.03-1.8-8.747a7.747,7.747,0,0,0-.123-2.273,6.184,6.184,0,0,1-.4-2.52,3,3,0,0,0-.148-1.631c-.049-.4-.4-1.878-.4-1.878a19.993,19.993,0,0,1,.228-7.6c.1-.473.168-.752.168-.752s9.192-2.669,10.749-.445a3.194,3.194,0,0,1,.421.876c.761,2.4-.577,6.165-.817,6.71-.271.617-.839,2.915-.839,2.915l-.05,1.953C879.748,566.285,880.934,568.829,880.934,568.829Z" transform="translate(-749.171 -472.966)" fill="#3f3d56"/><circle cx="0.099" cy="0.099" r="0.099" transform="translate(129.291 99.446)" fill="#6c63ff"/><circle cx="0.099" cy="0.099" r="0.099" transform="translate(124.371 101.925)" fill="#6c63ff"/><circle cx="0.099" cy="0.099" r="0.099" transform="translate(124.027 100.361)" fill="#6c63ff"/><circle cx="0.099" cy="0.099" r="0.099" transform="translate(124.706 100.484)" fill="#6c63ff"/><circle cx="0.099" cy="0.099" r="0.099" transform="translate(124.416 101.321)" fill="#6c63ff"/><circle cx="0.099" cy="0.099" r="0.099" transform="translate(128.871 101.077)" fill="#6c63ff"/><circle cx="0.099" cy="0.099" r="0.099" transform="translate(130.947 101.645)" fill="#6c63ff"/><circle cx="0.099" cy="0.099" r="0.099" transform="translate(131.614 100.978)" fill="#6c63ff"/><circle cx="0.099" cy="0.099" r="0.099" transform="translate(129.489 100.583)" fill="#6c63ff"/><circle cx="0.099" cy="0.099" r="0.099" transform="translate(125.458 99.906)" fill="#6c63ff"/><circle cx="0.099" cy="0.099" r="0.099" transform="translate(126.283 100.484)" fill="#6c63ff"/><circle cx="0.099" cy="0.099" r="0.099" transform="translate(124.865 102.992)" fill="#6c63ff"/><circle cx="0.099" cy="0.099" r="0.099" transform="translate(125.206 104.19)" fill="#6c63ff"/><circle cx="0.099" cy="0.099" r="0.099" transform="translate(126.326 104.608)" fill="#6c63ff"/><circle cx="0.099" cy="0.099" r="0.099" transform="translate(125.655 104.684)" fill="#6c63ff"/><circle cx="0.099" cy="0.099" r="0.099" transform="translate(125.062 105.249)" fill="#6c63ff"/><circle cx="0.099" cy="0.099" r="0.099" transform="translate(125.558 101.222)" fill="#6c63ff"/><circle cx="0.099" cy="0.099" r="0.099" transform="translate(125.558 102.436)" fill="#6c63ff"/><circle cx="0.099" cy="0.099" r="0.099" transform="translate(126.185 103.236)" fill="#6c63ff"/><circle cx="0.099" cy="0.099" r="0.099" transform="translate(125.615 103.596)" fill="#6c63ff"/><circle cx="0.099" cy="0.099" r="0.099" transform="translate(124.469 105.249)" fill="#6c63ff"/><circle cx="0.099" cy="0.099" r="0.099" transform="translate(126.228 103.805)" fill="#6c63ff"/><circle cx="0.099" cy="0.099" r="0.099" transform="translate(130.947 100.261)" fill="#6c63ff"/><circle cx="0.099" cy="0.099" r="0.099" transform="translate(129.971 101.645)" fill="#6c63ff"/><circle cx="0.099" cy="0.099" r="0.099" transform="translate(129.291 103.695)" fill="#6c63ff"/><circle cx="0.099" cy="0.099" r="0.099" transform="translate(129.068 105.055)" fill="#6c63ff"/><circle cx="0.099" cy="0.099" r="0.099" transform="translate(130.231 100.78)" fill="#6c63ff"/><circle cx="0.099" cy="0.099" r="0.099" transform="translate(129.872 102.238)" fill="#6c63ff"/><circle cx="0.099" cy="0.099" r="0.099" transform="translate(130.168 103.335)" fill="#6c63ff"/><circle cx="0.099" cy="0.099" r="0.099" transform="translate(128.612 104.451)" fill="#6c63ff"/><circle cx="0.099" cy="0.099" r="0.099" transform="translate(129.489 104.091)" fill="#6c63ff"/><circle cx="0.099" cy="0.099" r="0.099" transform="translate(129.193 104.388)" fill="#6c63ff"/><circle cx="0.099" cy="0.099" r="0.099" transform="translate(130.947 103.956)" fill="#6c63ff"/><circle cx="0.099" cy="0.099" r="0.099" transform="translate(130.947 104.29)" fill="#6c63ff"/><circle cx="0.099" cy="0.099" r="0.099" transform="translate(129.971 105.055)" fill="#6c63ff"/><circle cx="0.099" cy="0.099" r="0.099" transform="translate(129.687 105.348)" fill="#6c63ff"/><circle cx="0.099" cy="0.099" r="0.099" transform="translate(130.366 104.451)" fill="#6c63ff"/><circle cx="0.099" cy="0.099" r="0.099" transform="translate(129.587 104.957)" fill="#6c63ff"/><circle cx="0.099" cy="0.099" r="0.099" transform="translate(131.314 103.695)" fill="#6c63ff"/><circle cx="0.099" cy="0.099" r="0.099" transform="translate(131.515 104.29)" fill="#6c63ff"/><circle cx="0.099" cy="0.099" r="0.099" transform="translate(130.069 104.091)" fill="#6c63ff"/><circle cx="0.099" cy="0.099" r="0.099" transform="translate(130.366 105.101)" fill="#6c63ff"/><circle cx="0.099" cy="0.099" r="0.099" transform="translate(130.947 104.957)" fill="#6c63ff"/><circle cx="0.099" cy="0.099" r="0.099" transform="translate(130.847 105.348)" fill="#6c63ff"/><circle cx="0.099" cy="0.099" r="0.099" transform="translate(130.366 105.448)" fill="#6c63ff"/><circle cx="0.099" cy="0.099" r="0.099" transform="translate(130.847 102.933)" fill="#6c63ff"/><circle cx="0.099" cy="0.099" r="0.099" transform="translate(124.038 103.706)" fill="#6c63ff"/><circle cx="0.099" cy="0.099" r="0.099" transform="translate(124.038 104.039)" fill="#6c63ff"/><circle cx="0.099" cy="0.099" r="0.099" transform="translate(124.406 103.446)" fill="#6c63ff"/><circle cx="0.099" cy="0.099" r="0.099" transform="translate(124.705 104.608)" fill="#6c63ff"/><circle cx="0.099" cy="0.099" r="0.099" transform="translate(124.606 104.039)" fill="#6c63ff"/><circle cx="0.099" cy="0.099" r="0.099" transform="translate(124.038 104.706)" fill="#6c63ff"/><circle cx="0.099" cy="0.099" r="0.099" transform="translate(123.939 102.684)" fill="#6c63ff"/><path d="M850.48,541.211l.248,7.561.271-.2.2-7.784Z" transform="translate(-724.401 -460.618)" opacity="0.1"/><path d="M859.068,487.94s-1.705-1.607-2.076-.741-1.162,2.273-1.162,2.273l1.878,1.779s.322-.618.568-.618a8.129,8.129,0,0,0,.964-.148Z" transform="translate(-737.164 -417.528)" fill="#cf6f80"/><path d="M812.97,420.02l-1.137,8.549-.427-.654-1.426-2.187.222-2.348.114-3.917.034-1.173Z" transform="translate(-689.905 -356.28)" fill="#cf6f80"/><path d="M908.131,363.7a8.207,8.207,0,0,0-.385,1.813,4.586,4.586,0,0,1-3.457,1.569,4.636,4.636,0,0,1-1.038-.119,7.145,7.145,0,0,0,.015-1.237S909.465,359.52,908.131,363.7Z" transform="translate(-777.553 -311.323)" opacity="0.1"/><path d="M888.442,335.384a4.578,4.578,0,0,1-1.1,2.984,4.6,4.6,0,0,1-8.092-2.984,4.685,4.685,0,0,1,.055-.712,4.6,4.6,0,0,1,9.137.712Z" transform="translate(-757.111 -284.522)" fill="#cf6f80"/><path d="M868.919,439.347a7.9,7.9,0,0,1-1.32-1.174l.034-1.173,2.62,1.73-1.137,8.549-.42-.654a3.3,3.3,0,0,1,.181-1.075,3.818,3.818,0,0,0,.074-1.8c0-.3.42-.766.394-.964a11.725,11.725,0,0,0-.148-1.235C869.093,441.077,869.587,439.916,868.919,439.347Z" transform="translate(-747.189 -374.99)" opacity="0.1"/><path d="M884.707,553.792v.013a13.753,13.753,0,0,0-5.758.371,10.623,10.623,0,0,1-5.579-.064c.1-.473.168-.752.168-.752s9.192-2.669,10.749-.445a3.2,3.2,0,0,1,.421.876Z" transform="translate(-752.103 -472.966)" opacity="0.1"/><path d="M899.756,400.819l-1.063,2.372-3.039,1.779s-3.336-.322-3.434-.371-.255-2.882.608-3.478c-.243.685-.508,2.076,1.294,2.193a7.481,7.481,0,0,0,4.882-2.9A1.705,1.705,0,0,0,899.756,400.819Z" transform="translate(-768.091 -343.825)" opacity="0.1"/><path d="M878.136,405.947l-.05,1.112-2.965,17.692a13.745,13.745,0,0,0-5.757.371c-2.52.89-5.881-.148-5.881-.148a4.157,4.157,0,0,0,.273-1.828,7.2,7.2,0,0,1-.05-2.027,2.625,2.625,0,0,0-.024-1.186,9.621,9.621,0,0,1,.345-2.62,10.174,10.174,0,0,1,.173-2.841,3.819,3.819,0,0,0,.074-1.8c0-.3.42-.767.394-.964a11.727,11.727,0,0,0-.148-1.235c-.1-.47.4-1.631-.271-2.2s-1.434-1.062-1.36-1.358-.765-.222-.765-.222a1.837,1.837,0,0,1,.2-1.014,3.71,3.71,0,0,0,.148-1.606s.593-.025.519-.767a4.331,4.331,0,0,1,.025-1.21,1.428,1.428,0,0,0,.964.2c.718-.025,1.506.173,1.729-.049s1.211-.989,1.7-.815h0c-.039.076-1.22,2.423,1.139,2.568a7.48,7.48,0,0,0,5.017-3.09s.271-.3,1.161.669,1.655.593,1.655.593l.989.074s-.642.543-.248.913a2.56,2.56,0,0,1,.233.259,11.485,11.485,0,0,0,1.2,1.5C878.9,405.132,878.136,405.947,878.136,405.947Z" transform="translate(-742.518 -344.208)" fill="#6c63ff"/><path d="M846.553,496s-3.632,1.779-2.99,3.459,1.557,1.459,2.1,1.26,1.532-1.754,1.532-1.754Z" transform="translate(-726.651 -425.242)" fill="#cf6f80"/><path d="M930.884,428.93c0,.159-.927,2.16,0,2.679S930.884,428.93,930.884,428.93Z" transform="translate(-800.739 -368.116)" opacity="0.1"/><path d="M878.84,424.25s-1.309,1.408-.766,1.557S878.84,424.25,878.84,424.25Z" transform="translate(-755.997 -364.13)" opacity="0.1"/><path d="M930.756,430.983s.568,3.509.593,4.547.173,2.718.173,2.718.42,4-.222,5.634a9.18,9.18,0,0,0-.544,3.41s-1.878,3.658-2.15,4.028.222,3.88,2.2,2.4,1.73-4.721,1.73-4.721l.692-2.224.964-2.841s.271-1.73.371-2.076a16.4,16.4,0,0,0,0-2.224s1.161-9.514-.4-10.5S930.756,430.983,930.756,430.983Z" transform="translate(-799.091 -368.108)" fill="#cf6f80"/><path d="M940.692,420.879s2.323-2.546,3.039-2.323.915.125.915.125a2.092,2.092,0,0,0-.964-1.927c-1.062-.519-2.224-2.1-3.113-.222S940.692,420.879,940.692,420.879Z" transform="translate(-809.027 -356.793)" opacity="0.1"/><path d="M940.692,419.879s2.323-2.546,3.039-2.323.915.125.915.125a2.092,2.092,0,0,0-.964-1.927c-1.062-.519-2.224-2.1-3.113-.222S940.692,419.879,940.692,419.879Z" transform="translate(-809.027 -355.941)" fill="#6c63ff"/><path d="M892.238,343.75a4.709,4.709,0,0,1-.538.4,4,4,0,0,1-1.555.593,3.474,3.474,0,0,1-1.4-.079,3.4,3.4,0,0,1-1.133-.526,2.879,2.879,0,0,1-.858-.953c-.03-.053-.056-.107-.082-.16-.5-1.05-.365-2.3-.584-3.457-.016-.082-.034-.165-.053-.246a4.031,4.031,0,0,0-1.142-2.027,12.534,12.534,0,0,0-2.965-1.81,5.416,5.416,0,0,0-1.916-.7,2.484,2.484,0,0,1-.42-.09,4.6,4.6,0,1,1,8.037,3.7c-.018.117-.03.231-.039.34a2.754,2.754,0,0,0,.721,2.4c.044.042.09.077.135.111,0,0,.271-.3,1.161.669s1.655.593,1.655.593l.989.074s-.642.543-.248.913A2.565,2.565,0,0,1,892.238,343.75Z" transform="translate(-757.401 -284.544)" opacity="0.1"/><path d="M874.127,317.372a3.746,3.746,0,0,1,1.284-.83,2.335,2.335,0,0,0,1.156-.97c.388-.8-.074-1.95.593-2.552a1.774,1.774,0,0,1,1.217-.325,6.578,6.578,0,0,1,2.076.276,13.035,13.035,0,0,1,2.787,1.62,4.293,4.293,0,0,0,3.041.844c.618-.12,1.278-.463,1.836-.168a1.349,1.349,0,0,1,.611.921,2.52,2.52,0,0,1-.065,1.343c-.242.728-.807,1.314-1.056,2.039a.986.986,0,0,0,.013.824.96.96,0,0,0,.872.357,6.646,6.646,0,0,1,.983-.062c.94.107,1.483,1.179,1.483,2.125s-.328,1.868-.338,2.817a5.211,5.211,0,0,0,1.483,3.5,7.02,7.02,0,0,0,3.677,2.095,2.774,2.774,0,0,1-2.549.076c-1.908-.938-2.2-3.729-4-4.845a.614.614,0,0,0-.353-.12c-.236.015-.384.252-.506.454a4.573,4.573,0,0,1-3.133,2.233,3.351,3.351,0,0,1-3.394-1.558c-.639-1.162-.409-2.581-.719-3.864-.538-2.224-2.279-2.876-4.1-3.837a5.415,5.415,0,0,0-1.916-.7C874.176,318.94,873.31,318.338,874.127,317.372Z" transform="translate(-752.471 -269.112)" fill="#512e4e"/><g transform="translate(121.275 43.694)" opacity="0.1"><path d="M891.455,315.816c.35-.724.012-1.724.424-2.356a.979.979,0,0,0-.135.1c-.66.6-.2,1.746-.586,2.55a1.4,1.4,0,0,1-.159.245A1.574,1.574,0,0,0,891.455,315.816Z" transform="translate(-888.395 -313.46)"/><path d="M978.855,406.887c-1.91-.938-2.2-3.729-4.012-4.847a.621.621,0,0,0-.353-.12.606.606,0,0,0-.43.334.372.372,0,0,1,.133-.037.621.621,0,0,1,.353.12c1.81,1.118,2.1,3.908,4.012,4.847a2.775,2.775,0,0,0,2.547-.076c-.088-.019-.176-.04-.264-.062A2.781,2.781,0,0,1,978.855,406.887Z" transform="translate(-959.14 -388.805)"/><path d="M885.139,353.4a3.351,3.351,0,0,1-3.392-1.558c-.638-1.161-.409-2.583-.719-3.864-.54-2.224-2.28-2.876-4.1-3.837a5.381,5.381,0,0,0-1.914-.7c-.89-.117-1.745-.7-1-1.641a1.8,1.8,0,0,0-.259.251c-.812.967.053,1.569.962,1.687a5.38,5.38,0,0,1,1.914.7c1.824.961,3.558,1.607,4.1,3.837.31,1.281.083,2.709.719,3.864a3.36,3.36,0,0,0,3.392,1.558,4.356,4.356,0,0,0,2.509-1.4A4.255,4.255,0,0,1,885.139,353.4Z" transform="translate(-873.427 -337.598)"/></g><path d="M135.021,349.267A7.824,7.824,0,0,1,132,347.636c.4-.236.67-.4.67-.4s-1.927-1.938-1.695-3.205-.463-7.044-.463-7.044-1.079-.82-.5-2.907a13.364,13.364,0,0,0,.578-2.609,13.924,13.924,0,0,1-.116-3.28,8.288,8.288,0,0,0,.233-2.021l.461-4.787.249-1.791c.42,1.373,1.122,2.28,2.224,1.509,2.544-1.789.655-7.641.655-7.641s-.328-1.259-.557-2.311l.126-.335s-.077-1.3.578-1.751,0-10.1,0-10.1l-.218-5.853h0v-.173a5.423,5.423,0,0,0-2.807-4.559l-.157-.082c-.009-.053-.018-.107-.027-.163-.125-.759-.264-1.672-.356-2.577-.01-.1-.019-.194-.028-.3a6,6,0,0,0,4.6-5.766,5.764,5.764,0,0,0-.216-1.567c-.01-.039-.022-.077-.034-.114.353-.353.642-.455.669-.225.039.335.328-.093.347-.428s.1-.093.3-.093.231-.354-.077-.54.058-.391.148-.428.1-.391,0-.391a.1.1,0,0,1-.034-.01h-.01a.527.527,0,0,1-.049-.025h0l-.061-.039-.016-.01-.067-.047h0c-.176-.126-.38-.3-.38-.3l.1-.074c.1-.074-.116-.261-.3-.279h-.037c-.181-.028-.47-.132-.286-.218.042-.019.059-.042.062-.065h0a.089.089,0,0,0-.033-.068h0a.389.389,0,0,0-.089-.062h0l-.055-.025h0l-.053-.018h0a.4.4,0,0,0-.058-.012h-.108a4.184,4.184,0,0,1-.728-.258v-.391l-.325-.151h0l-.27-.119.1-.36h-.848l.116-.317-.39-.076-.092-.018v-.148l-.52-.2v-.224h-.626l.24-.187h-.482c-1.259-.863-4.8-.8-6.217-.329s-1.825.82-3.751,4.87c-1.232,2.589.341,5.1,1.723,6.5h0c.046.047.092.092.138.136l.019.019.123.117.012.01.132.12.015.012.116.1.016.013.125.1h0l.113.087.019.015a2.372,2.372,0,0,0,.215.148l.021.013.089.058h.007c.03.019.059.036.087.052l.018.01.067.036h.015l.07.031h.012l.049.018h.013a.362.362,0,0,0,.049.01h.052a.073.073,0,0,0,.027-.012,1.848,1.848,0,0,1,.572-.184l.148.119c.071.058.148.113.219.166.018.108.033.218.046.332a5.967,5.967,0,0,1-.139,2.171c-.015.055-.031.11-.047.165a2.918,2.918,0,0,0-1.6,1.22,42.107,42.107,0,0,0-2.39,4.1,5.935,5.935,0,0,1-.663,2.148c-.418.412.771,7.79.771,7.79s-1.426,2.832-.148,3.336-.116.913-.116.913.385.857-.347.931-1.156,1.38-1.156,1.38l-2.273,2.46.572.2c-.049.077-.1.157-.148.248A9.363,9.363,0,0,0,116.8,318.6c1.079,4.473,1.388,5.441,1.349,6.227s1.232,3.877.924,4.584-.48,3.168.049,3.8a.618.618,0,0,1-.2,1.005s.789.933.394,1.566.491,8.461.491,8.461,1.426,2.013,1.349,2.646-.732.97-.148,1.231.347.633.347.633l.148.012c-.132.119-.258.243-.374.369a3.494,3.494,0,0,0-.316.4,1.844,1.844,0,0,0-.13.231c-.519,1.142.863,2.013.863,2.013h.471a33.441,33.441,0,0,0,6.922-.3l.033.021s6.783.365,8.131-.568S136.447,349.43,135.021,349.267Zm-6.946.328-.049-.007-.077-.013h-.055l-.086-.013h-.036c-.064-.009-.128-.018-.19-.024a3.1,3.1,0,0,1-.878-.27c-.2-.087-.394-.193-.593-.305l.391-.009a2.748,2.748,0,0,0,.3-.01l.176-.009h0c.445,0,1.082.059,1.25.36a1.547,1.547,0,0,0-.151.3Z" transform="translate(-107.494 -233.883)" fill="url(#c)"/><path d="M178.656,349.039c-.111,0-8.859,1.668-6.672-1.3a5.318,5.318,0,0,0,.89-1.859,6.128,6.128,0,0,0,.133-2.159,7.613,7.613,0,0,0-.726-2.506s7.228-1.594,6.079-.371c-.5.534-.488,2.163-.322,3.828.089.9.222,1.809.342,2.563C178.55,348.29,178.692,349.039,178.656,349.039Z" transform="translate(-154.406 -292.699)" fill="#ffccd0"/><path d="M151.03,783.22s2.261,2.085,3.632,2.248,3.3.755,2,1.681-7.821.565-7.821.565-1.511-.987-.7-2.233A8.619,8.619,0,0,1,151.03,783.22Z" transform="translate(-134.193 -669.879)" fill="#3f3d56"/><path d="M156.663,787.149a2.4,2.4,0,0,1-.812.316,35.312,35.312,0,0,1-7.008.249s-1.511-.987-.7-2.233a8.619,8.619,0,0,1,2.891-2.261s2.261,2.085,3.632,2.248l.194.025C156.205,785.686,157.9,786.265,156.663,787.149Z" transform="translate(-134.193 -669.879)" opacity="0.1"/><path d="M196.076,800.206a2.4,2.4,0,0,1-.812.316l-.148-.007s-1.3-.848-.844-1.964C195.618,798.743,197.312,799.322,196.076,800.206Z" transform="translate(-173.605 -682.936)" opacity="0.1"/><path d="M199.28,781.5s2.261,2.076,3.632,2.246,3.3.756,2,1.683-7.821.563-7.821.563-1.511-.986-.7-2.224A8.789,8.789,0,0,1,199.28,781.5Z" transform="translate(-175.289 -668.414)" fill="#3f3d56"/><path d="M199.28,781.5s2.261,2.076,3.632,2.246,3.3.756,2,1.683-7.821.563-7.821.563-1.511-.986-.7-2.224A8.789,8.789,0,0,1,199.28,781.5Z" transform="translate(-175.289 -668.414)" opacity="0.1"/><path d="M133.814,576.047a4.251,4.251,0,0,1-1.87.383h-.013l-.162.009c-.095,0-.193.009-.3.01-2.169.07-4.967-.179-4.967-.179s.222-.371-.334-.63.074-.593.148-1.223-1.291-2.632-1.291-2.632-.852-7.784-.473-8.414-.38-1.557-.38-1.557a.624.624,0,0,0,.194-1c-.51-.63-.342-3.076-.046-3.781s-.927-3.781-.89-4.559-.259-1.742-1.3-6.19a9.581,9.581,0,0,1,1.107-6.936,7.017,7.017,0,0,1,.56-.848h7.079l.179,1.666.009.092c.059.562.132,1.242.213,2.024C132.277,551.685,134.676,575.423,133.814,576.047Z" transform="translate(-112.048 -461.441)" fill="#3f3d56"/><path d="M146.185,586.148a4.655,4.655,0,0,1-2.045.391,4.984,4.984,0,0,0-.741.01s-.111-.254-1.446-1.186,0-3.039,0-3.039l-1.388-5.671a5.708,5.708,0,0,1-.052-2.4.843.843,0,0,0-.639-1.112.781.781,0,0,0,0-1.371c-.936-.778-1.066-3.632-1.066-3.632s-1.334-1.779-.741-2.372-.371-2-.371-2-1.408-2.224-1.26-2.965,2.15-.482,1.557-2.854,3.062.89,3.062.89l2.39-8.472C144.221,557.69,147.118,585.472,146.185,586.148Z" transform="translate(-124.419 -471.543)" opacity="0.1"/><path d="M148.418,577.944s-4,2.52-4.262,2.039c-.162-.3-.768-.357-1.2-.359h-.013c-.258,0-.452.019-.452.019s-.111-.254-1.446-1.186,0-3.039,0-3.039l-1.388-5.671a5.671,5.671,0,0,1-.058-2.4.843.843,0,0,0-.639-1.112.781.781,0,0,0,0-1.371c-.936-.778-1.066-3.632-1.066-3.632s-1.334-1.779-.741-2.372-.371-2-.371-2-1.408-2.224-1.26-2.965,0-.593-.593-2.965c-.445-1.788.706-5.807,1.3-7.678.194-.612.329-.995.329-.995l5.517,1.11,5.529,1.113.148,1.964-.042.311-.741,5.486L146.523,557a8.434,8.434,0,0,1-.222,2,14.316,14.316,0,0,0,.111,3.262,13.688,13.688,0,0,1-.556,2.595c-.556,2.076.482,2.891.482,2.891s.667,5.745.445,7.005S148.418,577.944,148.418,577.944Z" transform="translate(-123.056 -464.635)" fill="#3f3d56"/><path d="M171.63,690c.556.093,3.428.148,2.669.5S171.63,690,171.63,690Z" transform="translate(-154.403 -590.48)" opacity="0.1"/><path d="M169.5,700.016a12.023,12.023,0,0,1,1.52-.427,7.742,7.742,0,0,1,.983,0c.334.079.958.3.608.428s-1.082.018-1.5.148A4.991,4.991,0,0,1,169.5,700.016Z" transform="translate(-152.589 -598.623)" opacity="0.1"/><path d="M149,696.549c.148-.019,1.3-.316,1.205,0S149,696.549,149,696.549Z" transform="translate(-135.128 -595.934)" opacity="0.1"/><path d="M136.63,634.63c.111.148.759,1.631,1.075,1.631S136.63,634.63,136.63,634.63Z" transform="translate(-124.592 -543.319)" opacity="0.1"/><path d="M182.079,340.847c-.5.534-.488,2.163-.322,3.828a5.943,5.943,0,0,1-1.526.2c-1.315,0-1.419-1.659-2.4-2.381-.156-1.446-1.83-1.275-1.83-1.275S183.228,339.624,182.079,340.847Z" transform="translate(-158.125 -292.699)" opacity="0.1"/><path d="M176.4,294.568a5.93,5.93,0,1,1-.208-1.558,5.93,5.93,0,0,1,.208,1.558Z" transform="translate(-148.361 -248.62)" fill="#ffccd0"/><path d="M178.656,379.58c-.111,0-8.859,1.668-6.672-1.3a5.318,5.318,0,0,0,.89-1.859,6.553,6.553,0,0,1,3.936.377l1,.741a3.444,3.444,0,0,1,.577.239C178.55,378.831,178.692,379.58,178.656,379.58Z" transform="translate(-154.406 -323.24)" opacity="0.1"/><path d="M144.466,543.278l-.042.311c-.236.08-1.32.381-3.911-.682-.417-.17-.931-.372-1.5-.593-1.84-.7-4.283-1.591-6.068-2.224-.855-.307-1.56-.557-1.973-.7a7.024,7.024,0,0,1,.56-.848h7.079l.179,1.666,5.529,1.107Z" transform="translate(-119.771 -461.475)" opacity="0.1"/><path d="M139.851,377.8s-3.929-1.705-5.523.852a42.261,42.261,0,0,0-2.3,4.077,5.788,5.788,0,0,1-.63,2.113c-.408.408.741,7.747.741,7.747s-1.371,2.817-.148,3.317-.111.909-.111.909.371.852-.334.927-1.112,1.371-1.112,1.371l-2.187,2.446s7.142,2.52,9.947,3.669,3.841.7,3.953.667,1.816-4.707,1.816-4.707-.074-1.3.556-1.742,0-10.045,0-10.045l-.216-5.994a5.419,5.419,0,0,0-2.7-4.532,3.755,3.755,0,0,0-.753-.334Z" transform="translate(-117.455 -324.094)" fill="#6c63ff"/><path d="M200.041,445.528l.778,1.371s-6.227,1.779-6.472.074a17.354,17.354,0,0,1,2.431-2.224Z" transform="translate(-173.752 -381.591)" fill="#6c63ff"/><path d="M200.041,445.528l.778,1.371s-6.227,1.779-6.472.074a17.354,17.354,0,0,1,2.431-2.224Z" transform="translate(-173.752 -381.591)" opacity="0.1"/><path d="M161.25,497.191s2.965-.964,2.335-.185S161.25,497.191,161.25,497.191Z" transform="translate(-145.562 -425.84)" opacity="0.1"/><path d="M184.07,501.46s1.517,1.895,1.88,1.186S184.07,501.46,184.07,501.46Z" transform="translate(-164.999 -429.893)" opacity="0.1"/><path d="M176.189,293.036a3.836,3.836,0,0,0-.522.663c-.519.815-.907.835-.907.835s0,1.764-.24,1.948-1.613-.781-1.631-1.022-1.695-2.854-2.423.463l-.136,2.688s-2.4.3-3.631.565a5.93,5.93,0,1,1,9.489-6.139Z" transform="translate(-148.36 -248.647)" opacity="0.1"/><path d="M159.927,274.548h.464l-.233.185h.6v.222l.5.2v.148l.464.093-.111.314h.815l-.093.357.556.255v.388a3.277,3.277,0,0,0,.741.259c.185,0,.492.168.3.259s.148.2.31.222.371.2.277.279l-.092.074a3.252,3.252,0,0,0,.593.426c.093,0,.092.353,0,.39s-.445.24-.148.426.259.538.074.538-.259-.242-.279.092-.3.761-.334.427-.611.037-1.13.853-.909.833-.909.833,0,1.764-.24,1.948-1.613-.78-1.631-1.022-1.695-2.854-2.423.464l-.135,2.686a29.536,29.536,0,0,0-4.319.778c-.316.277-5.066-3.558-3.213-7.586s2.249-4.374,3.609-4.842S158.716,273.688,159.927,274.548Z" transform="translate(-135.899 -236.055)" fill="#3f3d56"/><path d="M194.665,446.158a22.989,22.989,0,0,1-.3,3.744c-.259.741,1.779,7.672,1.779,7.672s1.631,3.655,1.334,4.781.111,8.34,2.557,6.56.63-7.6.63-7.6-.778-3.241-.778-3.64-.815-6.4-.815-6.4a9.028,9.028,0,0,1-.445-3.151c.185-1.186.259-3.373.259-3.373Z" transform="translate(-173.751 -381.591)" fill="#ffccd0"/><path d="M195.131,416.25s-2.974.964-3.1,3.6a11.44,11.44,0,0,0,0,2.854s4.433-2.224,6.472-.074l-.209-5.819Z" transform="translate(-171.733 -357.316)" opacity="0.1"/><path d="M197.131,416.25s-2.974.964-3.1,3.6a11.44,11.44,0,0,0,0,2.854s4.433-2.224,6.472-.074l-.209-5.819Z" transform="translate(-173.437 -357.316)" fill="#6c63ff"/><g transform="translate(16.097 38.679)" opacity="0.1"><path d="M242.161,294.73c-.067.083.209.172.357.188a.242.242,0,0,1,.044.01c.01-.09-.212-.2-.36-.2Z" transform="translate(-230.566 -292.491)"/><path d="M235.5,289.688s.136.064.3.128V289.6l-.3-.136Z" transform="translate(-224.901 -288.003)"/><path d="M245.956,298l-.076.061s.171.148.332.267l.056-.044c.093-.074-.111-.259-.277-.279Z" transform="translate(-233.742 -295.276)"/><path d="M176.4,267.6l.334.151.055-.214h-.372Z" transform="translate(-166.357 -266.559)"/><path d="M169.722,325.053l-.135,2.686a29.536,29.536,0,0,0-4.319.778c-.1.087-.63-.228-1.259-.826.75.787,1.441,1.223,1.555,1.122a29.532,29.532,0,0,1,4.319-.778l.135-2.686c.426-1.945,1.186-1.852,1.732-1.394C171.205,323.314,170.235,322.736,169.722,325.053Z" transform="translate(-164.01 -316.899)"/><path d="M225.541,303.29c-.3-.185.055-.388.148-.426s.092-.39,0-.39a.69.69,0,0,1-.228-.135c0,.1-.019.208-.068.228-.093.037-.445.24-.148.426s.259.538.074.538-.259-.242-.279.092-.3.761-.334.427-.611.037-1.13.853-.909.833-.909.833,0,1.764-.24,1.948c-.168.126-.87-.3-1.3-.643.218.323,1.373,1.108,1.594.94s.24-1.948.24-1.948.39-.018.909-.833,1.093-1.186,1.13-.852.316-.093.334-.427.093-.092.279-.092S225.837,303.476,225.541,303.29Z" transform="translate(-212.661 -298.973)"/><path d="M171.52,265h.4l.006-.018-.374-.076Z" transform="translate(-162.2 -264.318)"/><path d="M167.114,260.966v-.046H167Z" transform="translate(-158.351 -260.92)"/></g><path d="M248.66,523.437s12.208-18.541,26.589-8.015,17.914,17.2,29.937,13.492,11.576-10.992,21.065-8.313,12.776-6.093,12.776-6.093" transform="translate(-220.013 -439.03)" fill="none" stroke="#6c63ff" stroke-miterlimit="10" stroke-width="4"/><rect width="2.62" height="5.855" rx="1.31" transform="translate(118.97 71.443) rotate(23.32)" fill="#6c63ff"/></g></svg>