<svg xmlns="http://www.w3.org/2000/svg" width="142.416" height="122.686" viewBox="0 0 142.416 122.686"><g transform="translate(0 0)"><path d="M280.771,313.578s-15.232,5.246-18.153,10.089S280.771,313.578,280.771,313.578Z" transform="translate(-245.433 -274.174)" fill="#6c63ff"/><path d="M209.13,320.026a.742.742,0,0,1-.578-.213c-.474-.427-.087-1.234.246-1.8,4.456-7.639,26.863-15.689,27.814-16.028l2.049-.73-1.755,1.285c-.065.048-6.583,4.819-13.256,9.314C213.276,318.839,210.2,320.026,209.13,320.026Zm25.491-16.617c-5.883,2.277-21.739,8.86-25.274,14.92-.471.807-.371,1.009-.37,1.011.1.1,1.3.748,14.241-7.965C227.729,308.338,232.18,305.167,234.621,303.408Z" transform="translate(-200.109 -263.829)" fill="#3f3d56"/><path d="M276.634,278.8s-14.037-1.443-18.295,1.023S276.634,278.8,276.634,278.8Z" transform="translate(-241.626 -244.641)" fill="#6c63ff"/><path d="M227.4,270.157c-4.913,0-5.251-.788-5.405-1.148-.309-.721.551-1.4.833-1.622,6.093-4.81,24.6.051,25.383.26l1.505.4-1.542.22c-.062.009-6.262.891-12.519,1.443C232.01,270.033,229.349,270.157,227.4,270.157Zm4.306-4.239c-3.461,0-6.627.5-8.484,1.968-.56.442-.7.741-.643.873.142.332,1.5,1.336,13.019.32,4.292-.379,8.557-.913,10.822-1.213A71.937,71.937,0,0,0,231.71,265.918Z" transform="translate(-211.524 -233.634)" fill="#3f3d56"/><path d="M370.563,167.885s-7.06-16.953-5.35-18.631S370.563,167.885,370.563,167.885Z" transform="translate(-331.538 -136.193)" fill="#6c63ff"/><path d="M364.732,136.03l-.878-2.243c-.021-.055-2.169-5.557-3.94-11.222-3.646-11.667-2.151-12.663-1.661-12.991a.827.827,0,0,1,.844-.071c2.754,1.283,5.109,21.8,5.368,24.134Zm-5.995-25.975a.236.236,0,0,0-.131.048c-1.755,1.17,1.8,12.686,4.929,21.069-1.072-8.643-3.047-20.32-4.706-21.093a.216.216,0,0,0-.092-.023Z" transform="translate(-325.316 -102.847)" fill="#3f3d56"/><path d="M416.468,199.385s3.79-17.136,7.76-17.136S416.468,199.385,416.468,199.385Z" transform="translate(-374.774 -163.965)" fill="#6c63ff"/><path d="M410.251,156.561l.375-1.411c.275-1.035,6.818-25.34,13.971-25.34a1.579,1.579,0,0,1,1.586.846c1.907,4.039-13.268,22.667-15,24.778ZM424.6,130.445c-5.709,0-11.385,18.045-12.941,23.393,5.121-6.362,15.327-20,13.952-22.912C425.552,130.808,425.381,130.445,424.6,130.445Z" transform="translate(-369.557 -119.959)" fill="#3f3d56"/><path d="M430.3,257.528s13.029-8.233,39.722-5.72S430.3,257.528,430.3,257.528Z" transform="translate(-386.382 -221.937)" fill="#6c63ff"/><path d="M424.773,247.717l.682-.585a32.545,32.545,0,0,1,10.114-5.184c6.124-2.078,16.333-4.036,30.187-1.561,5.854,1.045,6.614,1.824,6.563,2.51s-.168,2.265-23.556,3.737c-11.429.719-22.977,1.054-23.093,1.057Zm28.41-7.85c-15.05,0-23.947,5.347-26.527,7.158,3.054-.1,12.6-.429,22.069-1.025,21.733-1.367,22.94-2.863,22.961-3.149,0-.031-.014-.761-6.04-1.838a70.84,70.84,0,0,0-12.463-1.146Z" transform="translate(-381.744 -211.783)" fill="#3f3d56"/><path d="M481.676,295.806s22.822-.3,24.1,2.132S481.676,295.806,481.676,295.806Z" transform="translate(-429.496 -259.25)" fill="#6c63ff"/><path d="M498.283,300.189c-7.285,0-24.794-5.231-27.118-5.935l-1.9-.577,1.99-.045c2.919-.065,28.568-.492,30.181,4.672a1.146,1.146,0,0,1-.25,1.226A4.384,4.384,0,0,1,498.283,300.189Zm-24.945-5.95c10.7,3.137,25.569,6.682,27.391,4.843a.519.519,0,0,0,.095-.589C499.678,294.825,482.185,294.179,473.339,294.239Z" transform="translate(-419.077 -257.406)" fill="#3f3d56"/><path d="M454.012,311.6s13.784,6.371,11.091,8.332S454.012,311.6,454.012,311.6Z" transform="translate(-406.281 -272.516)" fill="#6c63ff"/><path d="M462.784,318.191c-6.668,0-20.245-16.038-20.876-16.789l-.894-1.062,1.267.568c.924.414,22.648,10.206,23.123,15.111a1.751,1.751,0,0,1-.825,1.645A3.037,3.037,0,0,1,462.784,318.191ZM443.33,302.084c5.243,6.015,16.907,17.867,20.882,15.06a1.108,1.108,0,0,0,.56-1.065C464.429,312.553,450.234,305.282,443.33,302.084Z" transform="translate(-395.373 -263.065)" fill="#3f3d56"/><path d="M596.284,359.026s11.44,4.767,8.9,7.944S596.284,359.026,596.284,359.026Z" transform="translate(-525.673 -312.313)" fill="#6c63ff"/><path d="M463.892,335.314s23.833,26.057,21.609,27.646S463.892,335.314,463.892,335.314Z" transform="translate(-414.572 -292.415)" fill="#6c63ff"/><path d="M436.228,323.458s10.034,16.712,7.986,18.337S436.228,323.458,436.228,323.458Z" transform="translate(-391.357 -282.465)" fill="#6c63ff"/><path d="M438.832,332.142a1.176,1.176,0,0,1-.368-.062c-3.679-1.208-11.093-22.916-11.926-25.387l-.741-2.2,1.3,1.917c.039.057,3.939,5.8,7.4,11.737,6.4,10.979,5.868,13.138,4.912,13.807A1,1,0,0,1,438.832,332.142Zm-10.884-23.311c2.7,7.677,8.149,21.8,10.714,22.646a.4.4,0,0,0,.388-.041c.525-.367,1.08-2.366-5.1-12.963-2.191-3.76-4.559-7.441-6.006-9.641Z" transform="translate(-382.603 -266.552)" fill="#3f3d56"/><path d="M382.236,319.506s-9.031,26.648-3.489,26.373S382.236,319.506,382.236,319.506Z" transform="translate(-341.61 -279.149)" fill="#6c63ff"/><path d="M358.709,344.09a2.518,2.518,0,0,1-2.224-1.131c-3.575-5.329,7.016-28.829,7.468-29.827l.483-1.065.122,1.163c.1.952,2.394,23.377-2.8,29.368a3.965,3.965,0,0,1-2.9,1.489C358.8,344.089,358.756,344.09,358.709,344.09Zm5.329-29.575c-2.094,4.814-9.982,23.684-7.025,28.09a1.925,1.925,0,0,0,1.816.848,3.312,3.312,0,0,0,2.448-1.27c4.343-5.008,3.17-22.829,2.762-27.667Z" transform="translate(-323.82 -272.907)" fill="#3f3d56"/><path d="M318.1,327.743s-15.159,17.338-13.772,19.165S318.1,327.743,318.1,327.743Z" transform="translate(-280.594 -286.061)" fill="#6c63ff"/><path d="M271.628,325.153a.888.888,0,0,1-.556-.184.979.979,0,0,1-.361-.722c-.381-4.307,19.8-26.752,20.657-27.705l2.031-2.254-1.52,2.626c-.648,1.119-15.914,27.415-20.025,28.217A1.19,1.19,0,0,1,271.628,325.153ZM289.7,299.375c-6.686,7.593-18.617,21.825-18.353,24.815a.348.348,0,0,0,.118.277.309.309,0,0,0,.271.039c2.841-.554,12.766-16.382,17.964-25.131Z" transform="translate(-252.454 -257.986)" fill="#3f3d56"/><path d="M216.667,181.034s-13.216-15.611-25.438-14.1S216.667,181.034,216.667,181.034Z" transform="translate(-183.71 -151.028)" fill="#6c63ff"/><path d="M191.925,179.444l-1.04-.238c-.083-.019-8.436-1.935-16.695-4.379-16.911-5-16.965-7.306-16.983-8.062-.022-.912.907-1.618,2.839-2.157,7.171-2,15.269,1.941,20.8,5.6a69.152,69.152,0,0,1,10.341,8.465ZM164.15,164.7a14.58,14.58,0,0,0-3.933.52c-1.545.431-2.388.974-2.375,1.53.072,3.051,18.826,8.491,32.089,11.583-3.135-3.008-14.98-13.633-25.781-13.633Z" transform="translate(-157.206 -148.708)" fill="#3f3d56"/><path d="M212.993,247.06s-17.478-1.271-16.206,1.907S212.993,247.06,212.993,247.06Z" transform="translate(-190.366 -218.142)" fill="#6c63ff"/><path d="M310.408,156.319s-.953-4.449-2.542-3.5S310.408,156.319,310.408,156.319Z" transform="translate(-283.332 -139.159)" fill="#6c63ff"/><path d="M425.688,98.865s4.361-18.323,2.384-18.39S425.688,98.865,425.688,98.865Z" transform="translate(-382.512 -78.557)" fill="#6c63ff"/><path d="M420.393,92.918l-.036-2.433c-.011-.782-.254-19.17,2.137-21.6a1,1,0,0,1,.723-.334.846.846,0,0,1,.681.349c1.84,2.356-2.423,19.687-2.915,21.655Zm2.824-23.729c-.032,0-.128,0-.27.145-1.579,1.6-1.945,12.263-1.967,18.533,1.75-7.471,3.534-17.143,2.417-18.573A.214.214,0,0,0,423.218,69.189Z" transform="translate(-378.028 -68.554)" fill="#3f3d56"/><path d="M550.836,191.461s1.907-4.767,3.813-3.5S550.836,191.461,550.836,191.461Z" transform="translate(-487.534 -168.581)" fill="#6c63ff"/><path d="M434.67,473.634s-2.542,18.749,2.224,18.431S434.67,473.634,434.67,473.634Z" transform="translate(-389.481 -408.491)" fill="#6c63ff"/><path d="M491.154,344.376s-2.436-4.059-2.436-6.9c0,0-4.262-4.465-3.045-5.683s3.857,3.451,3.857,3.451-4.871-5.48-3.451-6.292,6.089,5.277,6.089,5.277l1.624-.812s-3.449-8.507-1.015-8.728c1.116-.1,3.654,8.119,3.654,8.119l2.639,6.7s1.015,2.436.609,3.857A26.78,26.78,0,0,0,499.07,346Z" transform="translate(-432.667 -283.496)" fill="#ffb9b9"/><path d="M541.443,396.236a8.735,8.735,0,0,0,.907-5.642,8.524,8.524,0,0,0-3.342-5.319s-1.827,1.421,0,5.074c0,0-2.233,2.03-.406,5.277" transform="translate(-476.664 -334.342)" opacity="0.1"/><path d="M546.491,396.236a8.735,8.735,0,0,0,.907-5.642,8.524,8.524,0,0,0-3.342-5.319s-1.827,1.421,0,5.074c0,0-2.233,2.03-.406,5.277" transform="translate(-480.9 -334.342)" fill="#ffb9b9"/><path d="M499.918,373.441l-1.116-1.725s-5.277-.812-4.668,1.015,3.045,1.015,3.045,1.015l1.421,1.421Z" transform="translate(-439.909 -322.811)" opacity="0.1"/><path d="M502.95,370.162l-1.624-2.233s-5.277-.812-4.668,1.015,3.045,1.015,3.045,1.015l1.421,1.421Z" transform="translate(-442.027 -319.634)" fill="#ffb9b9"/><path d="M607.667,476.993l-1.015,8.119,15.832,1.015v-9.743Z" transform="translate(-509.092 -399.774)" fill="#ffb9b9"/><path d="M584.425,506.808,571.586,481.13c-.767-2.54-3.162-6.677-10.6-9.335l-5.582-4.722-4.161-.149-16.644-2.436s-12.787-.812-21.109,4.262l-2.233-1.015s-3.654-12.99-2.03-22.327l-9.337-.812s-5.074,22.124-2.639,28.823,11.367,11.57,11.367,11.57l7.916,7.916,3.045,13.8h47.5l.756-3.621,3.71,3.621Z" transform="translate(-442.008 -384.123)" fill="#cfcce0"/><path d="M686.5,279.061c-14.954,4.038-29.651,4.324-44.039.062a3.875,3.875,0,0,1-2.847-3.671V233.425a3.9,3.9,0,0,1,3.381-3.79c13.572-2.128,27.949-1.964,42.987.079a3.907,3.907,0,0,1,3.462,3.8v41.847A3.88,3.88,0,0,1,686.5,279.061Z" transform="translate(-562.036 -202.45)" fill="#cfcce0"/><path d="M715.5,331.487s-3.439-5.027-1.323-6.35,5.292,2.381,5.292,2.381,3.969-3.439,6.085-2.117-2.117,6.085-2.117,6.085,3.175.794,3.439,2.91,1.323,7.673-3.175,7.937a5.818,5.818,0,0,1-4.487-1.226,1.475,1.475,0,0,0-1.942-.023c-1.525,1.285-4.272,2.766-6.271-.867C710.21,334.662,715.5,331.487,715.5,331.487Z" transform="translate(-621.876 -283.635)" fill="#3f3d56"/><path d="M836.413,334.778s3.44-5.027,1.323-6.35-5.291,2.381-5.291,2.381-3.969-3.439-6.085-2.117,2.117,6.085,2.117,6.085-3.175.794-3.439,2.91-1.323,7.673,3.175,7.937A5.818,5.818,0,0,0,832.7,344.4a1.475,1.475,0,0,1,1.942-.023c1.525,1.285,4.272,2.766,6.271-.867C841.7,337.953,836.413,334.778,836.413,334.778Z" transform="translate(-717.388 -286.397)" fill="#3f3d56"/><path d="M699.8,452.145s4.963,4,15.547,3.744,14.006-.684,16.268-3.178,2.933.387,2.23,2.275-1.6,5.111-6.877,5.634c-3.471.344-10.973.425-15.694.441a24.128,24.128,0,0,1-10.609-2.36l-.131-.064a6.006,6.006,0,0,1-3.346-5.383c0-.89.157-1.371.736-1.546A2.094,2.094,0,0,1,699.8,452.145Z" transform="translate(-610.35 -390.025)" fill="#3f3d56"/><path d="M666.156,236.223A80.162,80.162,0,0,1,642.3,232.6a4.66,4.66,0,0,1-3.3-4.466V178.9a4.657,4.657,0,0,1,3.913-4.611c14.576-2.4,30.716-2.371,47.971.093a4.693,4.693,0,0,1,4.007,4.625v49.024a4.7,4.7,0,0,1-3.407,4.5,93.3,93.3,0,0,1-24.829,3.689Zm-.562-63.364a139.146,139.146,0,0,0-22.619,1.774,4.313,4.313,0,0,0-3.624,4.27v49.235a4.316,4.316,0,0,0,3.053,4.136c15.421,4.8,31.9,4.776,48.992-.074l.047.166-.047-.166a4.352,4.352,0,0,0,3.156-4.166V179.01a4.346,4.346,0,0,0-3.711-4.284,178.883,178.883,0,0,0-25.247-1.868Z" transform="translate(-561.524 -155.795)" fill="#3f3d56"/><path d="M679.555,204.7c-3.8,0-7.053-.171-9.716-.4a63.589,63.589,0,0,1-12.934-2.207l.108-.328a63.313,63.313,0,0,0,12.872,2.193,139.945,139.945,0,0,0,36.9-2.2l.062.339A152.14,152.14,0,0,1,679.555,204.7Z" transform="translate(-576.544 -180.334)" fill="#3f3d56"/></g></svg>