<svg xmlns="http://www.w3.org/2000/svg" width="124.578" height="100.445" viewBox="0 0 124.578 100.445"><circle cx="14.304" cy="14.304" r="14.304" transform="translate(21.185 38.966)" fill="#e6e6e6"/><path d="M385.283,482.231l3.518,2.18V469.673l-3.944-2.444a1.529,1.529,0,0,1-.667-.889h0a1.53,1.53,0,0,1,1.093.2l3.518,2.18v-5.715a13.523,13.523,0,0,1,.4-3.28,13.523,13.523,0,0,1,.4,3.28v9.328l5.191-3.216a.747.747,0,1,1,.425.686l-5.616,3.48v35.148H388.8V485.361l-3.944-2.444a1.53,1.53,0,0,1-.668-.889h0A1.53,1.53,0,0,1,385.283,482.231Z" transform="translate(-353.658 -408.075)" fill="#ccc"/><circle cx="14.304" cy="14.304" r="14.304" transform="translate(0 40.18)" fill="#e6e6e6"/><path d="M237.012,490.484l-3.518,2.18V477.926l3.944-2.444a1.53,1.53,0,0,0,.668-.889h0a1.53,1.53,0,0,0-1.093.2l-3.518,2.18v-5.715a13.522,13.522,0,0,0-.4-3.28,13.522,13.522,0,0,0-.4,3.28v9.328l-5.191-3.217a.747.747,0,1,0-.425.686l5.616,3.48v33.716h.807V493.614l3.944-2.444a1.53,1.53,0,0,0,.668-.889h0A1.53,1.53,0,0,0,237.012,490.484Z" transform="translate(-218.844 -415.113)" fill="#ccc"/><circle cx="24.627" cy="24.627" r="24.627" transform="translate(0.067 0)" fill="#e6e6e6"/><path d="M280.987,295.91l-6.058,3.754V274.29l6.79-4.208a2.634,2.634,0,0,0,1.149-1.53h0a2.634,2.634,0,0,0-1.882.348l-6.058,3.754v-9.84a23.281,23.281,0,0,0-.7-5.646,23.282,23.282,0,0,0-.7,5.646v16.06l-8.937-5.538a4.38,4.38,0,0,0-2.379-.656,4.38,4.38,0,0,0,1.646,1.838l9.669,5.992v55.008h1.39V301.3l6.79-4.208a2.634,2.634,0,0,0,1.149-1.53h0A2.634,2.634,0,0,0,280.987,295.91Z" transform="translate(-249.64 -235.321)" fill="#ccc"/><rect width="119.637" height="0.294" transform="translate(4.941 100.151)" fill="#3f3d56"/><path d="M531.893,139.261h-.334v-16.77a5.738,5.738,0,0,0-5.738-5.738H488.476a5.738,5.738,0,0,0-5.738,5.738v7.347h-.127a.337.337,0,0,0-.337.337v3.286a.337.337,0,0,0,.337.337h.127v3.289h-.156a.337.337,0,0,0-.337.337v6.219a.337.337,0,0,0,.337.337h.156v2.412H482.6a.337.337,0,0,0-.337.337v6.278a.337.337,0,0,0,.337.337h.141v56.894a5.738,5.738,0,0,0,5.738,5.738h37.346a5.738,5.738,0,0,0,5.738-5.738v-58.95h.334a.337.337,0,0,0,.337-.337V139.6A.337.337,0,0,0,531.893,139.261Z" transform="translate(-437.284 -115.569)" fill="#3f3d56"/><path d="M625.3,137.916h-5.679a.644.644,0,0,1-.643-.643v-.246a.644.644,0,0,1,.643-.643H625.3a.644.644,0,0,1,.643.643v.246A.644.644,0,0,1,625.3,137.916Z" transform="translate(-553.894 -132.311)" fill="#fff"/><circle cx="0.786" cy="0.786" r="0.786" transform="translate(73.003 4.053)" fill="#fff"/><path d="M545,134.313h-5.592v.672a3.193,3.193,0,0,1-3.193,3.193H518.4a3.192,3.192,0,0,1-3.193-3.19v-.675h-5.243a3.878,3.878,0,0,0-3.878,3.878h0v86.3a3.878,3.878,0,0,0,3.878,3.878H545a3.876,3.876,0,0,0,3.876-3.876v-86.3A3.876,3.876,0,0,0,545,134.313Z" transform="translate(-457.616 -130.545)" fill="#fff"/><path d="M592.032,655.385h-15.01a4.047,4.047,0,1,1,0-8.093h15.01a4.047,4.047,0,0,1,0,8.093Z" transform="translate(-514.663 -568.037)" fill="#6c63ff"/><path d="M579.155,460.2H552.373a1.4,1.4,0,0,1,0-2.8h26.782a1.4,1.4,0,0,1,0,2.8Z" transform="translate(-495.9 -406.091)" fill="#e6e6e6"/><path d="M579.155,488.2H552.373a1.4,1.4,0,0,1,0-2.8h26.782a1.4,1.4,0,0,1,0,2.8Z" transform="translate(-495.9 -429.971)" fill="#e6e6e6"/><path d="M579.155,516.2H552.373a1.4,1.4,0,0,1,0-2.8h26.782a1.4,1.4,0,0,1,0,2.8Z" transform="translate(-495.9 -453.85)" fill="#e6e6e6"/><path d="M579.155,544.2H552.373a1.4,1.4,0,0,1,0-2.8h26.782a1.4,1.4,0,0,1,0,2.8Z" transform="translate(-495.9 -477.73)" fill="#e6e6e6"/><path d="M560.908,572.2h-8.535a1.4,1.4,0,0,1,0-2.8h8.535a1.4,1.4,0,1,1,0,2.8Z" transform="translate(-495.9 -501.61)" fill="#e6e6e6"/><path d="M560.359,233.7H525.193a1.174,1.174,0,0,1-1.173-1.173v-26.1a1.174,1.174,0,0,1,1.173-1.173h35.166a1.174,1.174,0,0,1,1.172,1.173v26.1A1.174,1.174,0,0,1,560.359,233.7Z" transform="translate(-472.913 -191.047)" fill="#e6e6e6"/><g transform="translate(93.669 34.592)" opacity="0.1"><path d="M813.254,344.392v-.609a4.618,4.618,0,0,0,0,.472C813.252,344.3,813.254,344.347,813.254,344.392Z" transform="translate(-813.248 -343.783)"/></g><circle cx="3.861" cy="3.861" r="3.861" transform="translate(95.68 39.051)" fill="#ffb8b8"/><path d="M900.8,573.572a1.4,1.4,0,0,0-.095-2.141l-.526-4.677-2.932.8,1.428,4.209a1.405,1.405,0,0,0,2.126,1.808Z" transform="translate(-791.218 -499.351)" fill="#ffb8b8"/><path d="M735.842,620.152l1.618-1.047-3.267-6.74L731.8,613.91Z" transform="translate(-624.116 -522.253)" fill="#ffb8b8"/><path d="M0,0H6.057V2.34h-3.8A2.253,2.253,0,0,1,0,.087V0Z" transform="translate(117.438 96.336) rotate(147.104)" fill="#2f2e41"/><path d="M661.851,626.852h1.927l.917-7.434h-2.845Z" transform="translate(-564.456 -528.268)" fill="#ffb8b8"/><path d="M0,0H6.057V2.34h-3.8A2.253,2.253,0,0,1,0,.088V0Z" transform="translate(103.039 100.374) rotate(180)" fill="#2f2e41"/><path d="M890.781,452.418c-.256.835.652,1.743.946,2.563a16.264,16.264,0,0,1,.847,2.468c.108.59,2.567,13.626,2.449,14.42a3.059,3.059,0,0,0-2.275.209,6.764,6.764,0,0,1-.864-2.813,14.714,14.714,0,0,1,.017-1.761c.076-1.658-.643-3.319-.666-4.979a9.376,9.376,0,0,0-.136-1.717c-.079-.39-.072-1.12-.156-1.508-.135-.618.445-.9.412-1.536l-.176-3.458C891.139,453.7,890.531,452.959,890.781,452.418Z" transform="translate(-785.651 -401.839)" fill="#2f2e41"/><path d="M813.6,539.4c-.62.967-1.924,1.176-2.837,1.868-1.394,1.064,2.163,24.977,3.337,29.224,3.1-.465,3.207-.463,3.563-.62s.679-12.3,1.432-14.806c1.409,1.328,5.844,12.741,6.779,15.271,3.718-.93,0,0,4.8-1.239-.04-.877-7.1-29.449-7.354-31.7C820.093,538.038,816.818,538.755,813.6,539.4Z" transform="translate(-717.187 -474.312)" fill="#2f2e41"/><path d="M827.809,428.947c-.383,1.134.138,5.545.176,6.537a22.229,22.229,0,0,1,0,2.7c-.132,1.559-.6,3.13-.285,4.663a25.963,25.963,0,0,1,.651,2.99,8.857,8.857,0,0,0,.266,2.121c.835-.358,8.234-1.587,8.777-2.3-.372-1.8-.012-3.652-.259-5.47-.143-1.048-.5-2.057-.664-3.1a29.478,29.478,0,0,0-.495-3.874,11.158,11.158,0,0,0-.79-1.832c-.323-.667-.729-1.214-.868-1.214C833.968,430.19,827.832,428.846,827.809,428.947Z" transform="translate(-731.815 -381.818)" fill="#6c63ff"/><path d="M790.036,456.027A14.028,14.028,0,0,0,791.383,452a8.633,8.633,0,0,1,2.111-3.093c1.538-1.127,2.672-8.678,2.152-10.511a47.279,47.279,0,0,0-3.95-9.033.658.658,0,0,0-.215-.273c-.312-.194-.651.188-.864.488a8.378,8.378,0,0,1-3.008,2.157,4.741,4.741,0,0,0-2.539,2.6,5.346,5.346,0,0,0,.119,2.477,6.716,6.716,0,0,0,1.2,2.153,22.593,22.593,0,0,1,1.844,4.526,56.2,56.2,0,0,1-.248,7.4c-.168,1.387-.316,4.173-.316,4.173Z" transform="translate(-695.458 -381.903)" fill="#2f2e41"/><path d="M871.485,459.857c-2.362-5.376-2.229-11.493-3.73-17.168a16.379,16.379,0,0,1-.935-5.117,1.039,1.039,0,0,1,.344-.835.845.845,0,0,1,.8,0c.254.113.471.3.715.424.395.2.854.259,1.233.486a3.129,3.129,0,0,1,1.1,1.588,11.6,11.6,0,0,1,1.116,4.025c.091,2.723-1.117,5.34-.488,7.988a15.858,15.858,0,0,0,.487,1.543,46.919,46.919,0,0,1,1.55,5.581C873.75,458.7,871.585,460.084,871.485,459.857Z" transform="translate(-765.257 -388.38)" fill="#2f2e41"/><path d="M809.786,557.175a1.4,1.4,0,0,0-1.411-1.613l-3.331-3.325-1.791,2.456,3.743,2.4a1.405,1.405,0,0,0,2.789.085Z" transform="translate(-711.055 -486.969)" fill="#ffb8b8"/><path d="M775.522,467.75c.055.5,4.251,5.768,6.531,7.487-.132-.678,1.655-2.891,2.233-3.237-1.445-1.363-4.464-4.525-4.564-4.7a2.448,2.448,0,0,1,.285-2.036,10.266,10.266,0,0,0,.745-6.611,3.778,3.778,0,0,0-1.286-2.146,1.05,1.05,0,0,0-1.044-.2,1.162,1.162,0,0,0-.358.321C776.995,457.928,775.482,467.379,775.522,467.75Z" transform="translate(-687.404 -405.095)" fill="#2f2e41"/><path d="M820.171,367.075c.225-.957-.914-3.015-.689-3.971.153-.648,1.676-.207,2.031-.77a2.043,2.043,0,0,1,1.616-1.026c.765-.009,1.518.559,2.242.314a1.444,1.444,0,0,0,.643-1.954,3.51,3.51,0,0,0-1.711-1.5,5.165,5.165,0,0,0-3.8-.638,6.242,6.242,0,0,0-2.009,1.263,7,7,0,0,0-1.521,1.544,4.149,4.149,0,0,0-.065,4.072,6.12,6.12,0,0,0,3.167,2.725" transform="translate(-722.276 -320.785)" fill="#2f2e41"/></svg>